<svg width="223" height="204" viewBox="0 0 223 204" fill="none" xmlns="http://www.w3.org/2000/svg">
<path fill-rule="evenodd" clip-rule="evenodd" d="M55.6533 3.80493C36.8633 3.57578 25.1861 10.1709 18.2881 18.3993C11.4239 26.5875 9.33548 36.342 9.61625 42.4393C8.85282 53.0798 18.6595 75.2058 60.384 81.3651C65.3026 82.264 72.737 83.8844 78.8649 87.5774C84.9691 91.2562 89.7345 96.9588 89.4582 106.075C89.4487 106.388 89.6953 106.65 90.009 106.66C90.3227 106.669 90.5847 106.423 90.5942 106.109C90.8863 96.4725 85.8017 90.431 79.4516 86.604C73.129 82.7936 65.5101 81.1462 60.5788 80.2453C60.5724 80.2441 60.566 80.2431 60.5596 80.2421C19.144 74.1316 10.0241 52.3181 10.7522 42.4887C10.7539 42.4657 10.7542 42.4426 10.7531 42.4197C10.4751 36.5811 12.4832 27.0929 19.1591 19.1294C25.8142 11.1908 37.1516 4.71591 55.6395 4.94137C74.1473 5.16707 85.9272 11.2743 93.0811 18.7869C100.038 26.093 102.657 34.7653 102.805 40.7709L87.4014 41.5676C86.123 31.6189 80.9533 26.4535 75.0991 23.7486C69.6011 21.2083 63.5179 20.8489 59.6319 20.6193C59.3447 20.6023 59.0694 20.5861 58.8073 20.5697C48.803 19.9444 40.8468 21.4366 35.3383 25.0617C29.7968 28.7087 26.8103 34.463 26.6652 42.1518C26.5351 49.0489 32.3264 54.072 39.2818 57.5521C46.2796 61.0533 54.7066 63.1255 60.3747 64.0315C83.604 68.7925 95.1346 76.4138 100.553 85.1803C105.977 93.9569 105.374 104.028 103.954 113.967C103.91 114.278 104.126 114.566 104.437 114.61C104.747 114.655 105.035 114.439 105.079 114.128C106.501 104.178 107.176 93.7349 101.52 84.5828C95.8579 75.4223 83.9507 67.7016 60.5907 62.9156L60.5793 62.9134L60.5662 62.9112C54.964 62.0167 46.6532 59.9694 39.7903 56.5357C32.8801 53.0782 27.685 48.3461 27.8015 42.1732C27.9406 34.8031 30.7787 29.423 35.9631 26.0111C41.1806 22.5774 48.8516 21.0862 58.7364 21.704C58.9954 21.7202 59.2655 21.7362 59.5458 21.7529C63.4479 21.9849 69.3288 22.3345 74.6224 24.7804C80.2432 27.3774 85.2233 32.3497 86.3361 42.2261C86.3698 42.5247 86.6301 42.7455 86.9302 42.73L103.41 41.8776C103.712 41.862 103.949 41.6126 103.949 41.3101C103.949 35.015 101.283 25.7521 93.9042 18.0031C86.5106 10.2389 74.4235 4.03383 55.6533 3.80493ZM108.211 81.0884C108.211 80.7746 107.956 80.5202 107.642 80.5202C107.329 80.5202 107.074 80.7746 107.074 81.0884V81.3072V81.5264V81.7462V81.9665V82.1873V82.4086V82.6305V82.8528V83.0757V83.299V83.5228V83.7471V83.9719V84.1972V84.423V84.6492V84.8759V85.1031V85.3307V85.5589V85.7874V86.0164V86.2459V86.4758V86.7061V86.9369V87.1681V87.3997V87.6318V87.8643V88.0972V88.3305V88.5642V88.7984V89.0329V89.2678V89.5032V89.7389V89.975V90.2115V90.4484V90.6857V90.9233V91.1613V91.3997V91.6384V91.8775V92.1169V92.3567V92.5968V92.8373V93.0781V93.3193V93.5608V93.8026V94.0447V94.2872V94.53V94.7731V95.0165V95.2602V95.5042V95.7485V95.9931V96.238V96.4832V96.7287V96.9744V97.2205V97.4668V97.7133V97.9602V98.2072V98.4546V98.7022V98.95V99.1982V99.4465V99.6951V99.9439V100.193V100.442V100.692V100.941V101.191V101.442V101.692V101.942V102.193V102.444V102.695V102.947V103.198V103.45V103.702V103.954V104.206V104.458V104.711V104.964V105.217V105.47V105.723V105.976V106.23V106.483V106.737V106.991V107.245V107.499V107.753V108.008V108.262V108.517V108.771V109.026V109.281V109.536V109.791V110.046V110.302V110.557V110.812V111.068V111.323V111.579V111.834V112.09V112.346V112.602V112.857V113.113V113.369V113.625V113.881V114.137V114.393V114.649V114.905V115.161V115.418V115.674V115.93V116.186V116.442V116.698V116.954V117.21V117.466V117.722V117.978V118.234V118.49V118.746V119.001V119.257V119.513V119.768V120.024V120.279V120.535V120.79V121.046V121.301V121.556V121.811V122.066V122.321V122.575V122.83V123.085V123.339V123.593V123.848V124.102V124.356V124.61V124.863V125.117V125.37V125.624V125.877V126.13V126.383V126.635V126.888V127.14V127.392V127.644V127.896V128.148V128.399V128.651V128.902V129.153V129.403V129.654V129.904V130.154V130.404V130.654V130.903V131.152V131.401V131.65V131.899V132.147V132.395V132.643V132.89V133.138V133.385V133.631V133.878V134.124V134.37V134.616V134.861V135.106V135.351V135.596V135.84V136.084V136.327V136.571V136.814V137.056V137.299V137.541V137.782V138.024V138.265V138.506V138.746V138.986V139.226V139.465V139.704V139.943V140.181V140.419V140.656V140.894V141.13V141.367V141.603V141.838V142.074V142.308V142.543V142.777V143.011V143.244V143.477V143.709V143.941V144.172V144.403V144.634V144.864V145.094V145.323V145.552V145.781V146.009V146.236V146.463V146.69V146.916V147.142V147.367V147.591V147.816V148.039V148.262V148.485V148.707V148.929V149.15V149.371V149.591V149.811V150.03V150.248V150.466V150.684V150.901V151.117V151.333V151.549V151.763V151.978V152.191V152.404V152.617V152.829V153.04V153.251V153.461V153.671V153.88V154.088V154.296V154.504V154.71V154.916V155.122V155.326V155.531V155.734V155.937V156.139V156.341V156.542V156.742V156.942V157.141V157.34V157.537V157.735V157.931V158.127V158.322V158.516V158.71V158.903V159.095V159.287V159.478V159.668V159.858V160.047V160.235V160.422V160.609V160.795V160.98V161.165V161.349V161.532V161.714V161.896V162.077V162.257V162.436V162.615V162.792V162.969V163.146V163.321V163.496V163.67V163.843V164.015V164.187V164.358V164.528V164.697V164.865V165.033V165.199V165.365V165.53V165.695V165.858V166.021V166.182V166.343V166.503V166.663V166.821V166.979V167.135V167.291V167.446V167.6V167.753V167.905V168.057V168.207V168.357V168.506V168.654V168.801V168.947V169.092V169.236V169.379V169.522V169.663V169.804V169.943V170.082V170.22V170.356V170.492V170.627V170.761V170.894V171.026V171.157V171.287V171.416V171.544V171.672V171.798V171.923V172.047V172.17V172.292V172.414V172.534V172.653V172.771V172.888V173.004V173.12V173.234V173.347V173.459V173.57V173.68V173.788V173.896V174.003V174.109V174.213V174.317V174.419V174.521V174.621V174.721V174.819V174.916V175.012V175.107V175.201V175.293V175.385V175.475V175.565V175.653V175.74V175.826V175.911V175.995V176.077V176.159V176.239V176.318V176.396V176.473V176.549V176.624V176.697V176.769V176.84V176.91V176.979V177.046V177.113V177.178V177.242V177.304V177.366V177.426V177.485V177.543V177.6V177.655V177.709V177.762V177.814V177.865V177.914V177.962V178.009V178.054V178.098V178.141V178.183V178.224V178.263V178.301V178.337V178.373V178.407V178.439V178.471V178.501V178.53V178.558V178.584V178.609V178.632V178.655V178.676V178.695V178.714V178.731V178.747V178.761V178.774V178.785V178.796V178.805V178.812V178.818V178.823V178.827V178.829C107.074 178.829 107.074 178.829 107.642 178.829H107.074C107.074 179.143 107.329 179.398 107.642 179.398C107.956 179.398 108.211 179.143 108.211 178.829H107.642C108.211 178.829 108.211 178.829 108.211 178.829V178.827V178.823V178.818V178.812V178.805V178.796V178.785V178.774V178.761V178.747V178.731V178.714V178.695V178.676V178.655V178.632V178.609V178.584V178.558V178.53V178.501V178.471V178.439V178.407V178.373V178.337V178.301V178.263V178.224V178.183V178.141V178.098V178.054V178.009V177.962V177.914V177.865V177.814V177.762V177.709V177.655V177.6V177.543V177.485V177.426V177.366V177.304V177.242V177.178V177.113V177.046V176.979V176.91V176.84V176.769V176.697V176.624V176.549V176.473V176.396V176.318V176.239V176.159V176.077V175.995V175.911V175.826V175.74V175.653V175.565V175.475V175.385V175.293V175.201V175.107V175.012V174.916V174.819V174.721V174.621V174.521V174.419V174.317V174.213V174.109V174.003V173.896V173.788V173.68V173.57V173.459V173.347V173.234V173.12V173.004V172.888V172.771V172.653V172.534V172.414V172.292V172.17V172.047V171.923V171.798V171.672V171.544V171.416V171.287V171.157V171.026V170.894V170.761V170.627V170.492V170.356V170.22V170.082V169.943V169.804V169.663V169.522V169.379V169.236V169.092V168.947V168.801V168.654V168.506V168.357V168.207V168.057V167.905V167.753V167.6V167.446V167.291V167.135V166.979V166.821V166.663V166.503V166.343V166.182V166.021V165.858V165.695V165.53V165.365V165.199V165.033V164.865V164.697V164.528V164.358V164.187V164.015V163.843V163.67V163.496V163.321V163.146V162.969V162.792V162.615V162.436V162.257V162.077V161.896V161.714V161.532V161.349V161.165V160.98V160.795V160.609V160.422V160.235V160.047V159.858V159.668V159.478V159.287V159.095V158.903V158.71V158.516V158.322V158.127V157.931V157.735V157.537V157.34V157.141V156.942V156.742V156.542V156.341V156.139V155.937V155.734V155.531V155.326V155.122V154.916V154.71V154.504V154.296V154.088V153.88V153.671V153.461V153.251V153.04V152.829V152.617V152.404V152.191V151.978V151.763V151.549V151.333V151.117V150.901V150.684V150.466V150.248V150.03V149.811V149.591V149.371V149.15V148.929V148.707V148.485V148.262V148.039V147.816V147.591V147.367V147.142V146.916V146.69V146.463V146.236V146.009V145.781V145.552V145.323V145.094V144.864V144.634V144.403V144.172V143.941V143.709V143.477V143.244V143.011V142.777V142.543V142.308V142.074V141.838V141.603V141.367V141.13V140.894V140.656V140.419V140.181V139.943V139.704V139.465V139.226V138.986V138.746V138.506V138.265V138.024V137.782V137.541V137.299V137.056V136.814V136.571V136.327V136.084V135.84V135.596V135.351V135.106V134.861V134.616V134.37V134.124V133.878V133.631V133.385V133.138V132.89V132.643V132.395V132.147V131.899V131.65V131.401V131.152V130.903V130.654V130.404V130.154V129.904V129.654V129.403V129.153V128.902V128.651V128.399V128.148V127.896V127.644V127.392V127.14V126.888V126.635V126.383V126.13V125.877V125.624V125.37V125.117V124.863V124.61V124.356V124.102V123.848V123.593V123.339V123.085V122.83V122.575V122.321V122.066V121.811V121.556V121.301V121.046V120.79V120.535V120.279V120.024V119.768V119.513V119.257V119.001V118.746V118.49V118.234V117.978V117.722V117.466V117.21V116.954V116.698V116.442V116.186V115.93V115.674V115.418V115.161V114.905V114.649V114.393V114.137V113.881V113.625V113.369V113.113V112.857V112.602V112.346V112.09V111.834V111.579V111.323V111.068V110.812V110.557V110.302V110.046V109.791V109.536V109.281V109.026V108.771V108.517V108.262V108.008V107.753V107.499V107.245V106.991V106.737V106.483V106.23V105.976V105.723V105.47V105.217V104.964V104.711V104.458V104.206V103.954V103.702V103.45V103.198V102.947V102.695V102.444V102.193V101.942V101.692V101.442V101.191V100.941V100.692V100.442V100.193V99.9439V99.6951V99.4465V99.1982V98.95V98.7022V98.4546V98.2072V97.9602V97.7133V97.4668V97.2205V96.9744V96.7287V96.4832V96.238V95.9931V95.7485V95.5042V95.2602V95.0165V94.7731V94.53V94.2872V94.0447V93.8026V93.5608V93.3193V93.0781V92.8373V92.5968V92.3567V92.1169V91.8775V91.6384V91.3997V91.1613V90.9233V90.6857V90.4484V90.2115V89.975V89.7389V89.5032V89.2678V89.0329V88.7984V88.5642V88.3305V88.0972V87.8643V87.6318V87.3997V87.1681V86.9369V86.7061V86.4758V86.2459V86.0164V85.7874V85.5589V85.3307V85.1031V84.8759V84.6492V84.423V84.1972V83.9719V83.7471V83.5228V83.299V83.0757V82.8528V82.6305V82.4086V82.1873V81.9665V81.7462V81.5264V81.3072V81.0884ZM125.258 81.3717C125.258 81.0579 125.004 80.8035 124.69 80.8035C124.376 80.8035 124.122 81.0579 124.122 81.3717V178.829C124.122 179.143 124.376 179.398 124.69 179.398C125.004 179.398 125.258 179.143 125.258 178.829V81.3717ZM127.928 121.73C127.62 121.668 127.321 121.867 127.259 122.175C127.197 122.483 127.396 122.782 127.703 122.844C154.534 128.256 162.979 145.156 163.618 152.737C164.379 161.755 163.131 173.135 156.458 182.302C149.805 191.442 137.679 198.493 116.444 198.719C95.2288 198.944 81.8509 191.475 73.8276 182.18C65.9668 173.074 63.2099 162.173 63.3064 154.91L79.5626 153.311C80.6226 165.209 86.3421 172.658 93.5338 177.124C100.813 181.645 109.566 183.091 116.45 183.091C128.473 183.091 136.378 180.085 141.314 175.48C146.252 170.873 148.135 164.742 148.273 158.669C148.393 153.398 144.904 148.938 140.683 145.616C136.448 142.282 131.349 139.99 127.964 139.071C127.662 138.989 127.349 139.168 127.267 139.471C127.185 139.773 127.364 140.086 127.667 140.168C130.912 141.049 135.871 143.274 139.98 146.509C144.104 149.754 147.244 153.912 147.137 158.643C147.003 164.504 145.193 170.307 140.538 174.649C135.881 178.994 128.294 181.955 116.45 181.955C109.696 181.955 101.174 180.531 94.1334 176.159C87.1209 171.804 81.5433 164.505 80.6483 152.647C80.6368 152.494 80.5643 152.353 80.4472 152.254C80.33 152.156 80.1782 152.109 80.026 152.124L62.694 153.829C62.4101 153.857 62.1908 154.091 62.1817 154.376C61.9407 161.895 64.7245 173.374 72.9673 182.923C81.2295 192.494 94.9387 200.084 116.456 199.855C137.955 199.626 150.462 192.47 157.377 182.971C164.271 173.5 165.524 161.808 164.751 152.642C164.064 144.5 155.196 127.23 127.928 121.73ZM84.3827 95.2963C84.6958 95.3179 84.9321 95.5892 84.9105 95.9023C84.6291 99.9828 84.8649 103.862 87.4489 107.39C90.0444 110.933 95.0848 114.225 104.67 116.91C104.972 116.995 105.149 117.308 105.064 117.61C104.979 117.913 104.666 118.089 104.364 118.004C94.6779 115.291 89.3475 111.905 86.532 108.061C83.7052 104.202 83.4899 99.9834 83.7767 95.8241C83.7983 95.511 84.0696 95.2747 84.3827 95.2963ZM72.0907 86.9684C72.1997 86.6741 72.0495 86.3472 71.7551 86.2382C71.4608 86.1292 71.1339 86.2794 71.0249 86.5737C68.1493 94.3376 67.1216 104.027 71.5447 113.055C75.9728 122.092 85.801 130.339 104.369 135.338C104.672 135.419 104.984 135.24 105.066 134.937C105.147 134.634 104.968 134.322 104.665 134.24C86.2959 129.295 76.8032 121.204 72.5653 112.554C68.3224 103.895 69.2836 94.5475 72.0907 86.9684ZM22.4814 95.1414C22.6006 95.2401 22.6744 95.3831 22.6857 95.5374C24.0759 114.443 44.4079 132.158 74.502 122.033C74.7994 121.933 75.1217 122.093 75.2218 122.39C75.3219 122.688 75.1619 123.01 74.8644 123.11C44.4607 133.339 23.4261 115.714 21.6015 96.2105L5.38235 98.0717C6.19155 112.427 11.6376 122.692 19.8249 129.705C28.1278 136.817 39.2994 140.625 51.4436 141.895C70.8162 143.923 84.8426 136.165 89.3939 132.635C89.6419 132.443 89.9988 132.488 90.1912 132.736C90.3835 132.984 90.3384 133.341 90.0904 133.533C85.36 137.202 71.0492 145.09 51.3253 143.026C39.0343 141.74 27.6175 137.876 19.0856 130.568C10.5388 123.247 4.93656 112.512 4.21942 97.5953C4.20505 97.2964 4.42494 97.0376 4.72224 97.0034L22.0542 95.0145C22.2079 94.9969 22.3622 95.0427 22.4814 95.1414ZM107.074 18.5797C107.074 18.2658 107.329 18.0114 107.642 18.0114H164.184C171.727 18.0114 182.932 18.6471 192.264 23.6913C196.941 26.2194 201.153 29.8575 204.192 35.0751C207.23 40.2916 209.077 47.0536 209.077 55.8008C209.077 70.6729 205.429 80.0444 200.39 86.2427C195.555 92.1904 189.489 95.1519 184.342 97.2718L219.505 154.095C219.613 154.27 219.618 154.491 219.518 154.671C219.418 154.851 219.228 154.962 219.022 154.962H198.564C198.368 154.962 198.186 154.861 198.082 154.695L173.94 116.068C172.999 114.745 172.14 113.512 171.34 112.362C169.592 109.85 168.119 107.734 166.651 105.937C164.527 103.336 162.454 101.46 159.662 100.119C156.859 98.7726 153.289 97.9451 148.139 97.5154C142.988 97.0857 136.294 97.0565 127.262 97.2837C126.948 97.2916 126.687 97.0436 126.679 96.7299C126.671 96.4162 126.919 96.1554 127.233 96.1475C136.271 95.9202 143.017 95.9477 148.233 96.3828C153.45 96.818 157.175 97.6633 160.154 99.0944C163.144 100.531 165.341 102.536 167.532 105.218C169.027 107.05 170.54 109.222 172.303 111.756L172.304 111.757L172.304 111.757C173.103 112.904 173.953 114.126 174.876 115.423C174.883 115.432 174.889 115.442 174.895 115.451L198.879 153.826H218.002L183.022 97.2988C182.934 97.1564 182.913 96.9824 182.965 96.8233C183.017 96.6641 183.137 96.536 183.292 96.4731C188.529 94.3498 194.666 91.4821 199.508 85.5258C204.343 79.5782 207.941 70.4812 207.941 55.8008C207.941 47.216 206.129 40.6594 203.21 35.6471C200.291 30.6361 196.245 27.1353 191.723 24.6911C182.658 19.7908 171.701 19.1479 164.184 19.1479H108.211V41.8784C108.211 42.1922 107.956 42.4466 107.642 42.4466C107.329 42.4466 107.074 42.1922 107.074 41.8784V18.5797ZM124.69 32.7862C124.376 32.7862 124.122 33.0406 124.122 33.3545V41.8784C124.122 42.1922 124.376 42.4466 124.69 42.4466C125.004 42.4466 125.258 42.1922 125.258 41.8784V33.9227H165.037C169.281 33.9227 175.582 34.3229 180.865 37.1513C183.496 38.5602 185.869 40.5688 187.614 43.4315C189.36 46.2946 190.497 50.0434 190.609 54.9613C190.834 64.856 186.663 71.5091 181.303 75.7041C175.918 79.9179 169.323 81.6567 164.753 81.6567H127.247C126.934 81.6567 126.679 81.9111 126.679 82.2249C126.679 82.5388 126.934 82.7932 127.247 82.7932H164.753C169.559 82.7932 176.405 80.9803 182.003 76.5992C187.625 72.1992 191.979 65.214 191.745 54.9355C191.629 49.852 190.451 45.9008 188.585 42.8398C186.718 39.7784 184.182 37.6386 181.401 36.1494C175.858 33.1815 169.317 32.7862 165.037 32.7862H124.69ZM128.522 80.217C117.517 77.2973 105.372 79.2833 100.975 80.4996C100.672 80.5832 100.359 80.4059 100.276 80.1034C100.192 79.8009 100.369 79.4879 100.672 79.4042C105.177 78.158 117.543 76.1282 128.814 79.1185C129.117 79.199 129.298 79.5101 129.217 79.8135C129.137 80.1168 128.826 80.2975 128.522 80.217ZM88.0198 70.1337C93.3194 67.3181 104.513 64.2512 116.752 64.6428C128.979 65.0341 142.156 68.8727 151.536 79.7547C151.741 79.9924 152.1 80.019 152.338 79.8141C152.576 79.6092 152.602 79.2503 152.397 79.0126C142.74 67.8097 129.209 63.9043 116.788 63.5069C104.379 63.1098 92.984 66.2093 87.4866 69.1301C87.2094 69.2773 87.1041 69.6214 87.2514 69.8985C87.3986 70.1757 87.7427 70.281 88.0198 70.1337ZM66.7275 44.7197C66.7275 44.4058 66.9819 44.1514 67.2958 44.1514H165.605C165.919 44.1514 166.173 44.4058 166.173 44.7197V61.7675C166.173 62.0814 165.919 62.3358 165.605 62.3358H124.808C124.494 62.3358 124.24 62.0814 124.24 61.7675C124.24 61.4537 124.494 61.1993 124.808 61.1993H165.037V45.2879H67.8641V61.1993H107.526C107.84 61.1993 108.094 61.4537 108.094 61.7675C108.094 62.0814 107.84 62.3358 107.526 62.3358H67.2958C66.9819 62.3358 66.7275 62.0814 66.7275 61.7675V44.7197ZM144.57 99.4522C144.512 99.1437 144.215 98.9406 143.906 98.9984C143.598 99.0562 143.395 99.3532 143.453 99.6616L144.305 104.208C144.359 104.497 144.626 104.697 144.919 104.669L159.41 103.242C159.722 103.211 159.95 102.933 159.92 102.621C159.889 102.309 159.611 102.08 159.298 102.111L145.326 103.486L144.57 99.4522Z" fill="#424242"/>
<path d="M107.642 178.829C107.074 178.829 107.074 178.829 107.074 178.829V178.827V178.823V178.818V178.812V178.805V178.796V178.785V178.774V178.761V178.747V178.731V178.714V178.696V178.676V178.655V178.632V178.609V178.584V178.558V178.53V178.501V178.471V178.44V178.407V178.373V178.337V178.301V178.263V178.224V178.183V178.141V178.098V178.054V178.009V177.962V177.914V177.865V177.814V177.762V177.709V177.655V177.6V177.543V177.485V177.426V177.366V177.304V177.242V177.178V177.113V177.046V176.979V176.91V176.84V176.769V176.697V176.624V176.549V176.473V176.396V176.318V176.239V176.159V176.077V175.995V175.911V175.826V175.74V175.653V175.565V175.475V175.385V175.293V175.201V175.107V175.012V174.916V174.819V174.72V174.621V174.521V174.419V174.317V174.213V174.109V174.003V173.896V173.788V173.68V173.57V173.459V173.347V173.234V173.12V173.004V172.888V172.771V172.653V172.534V172.414V172.292V172.17V172.047V171.923V171.798V171.672V171.544V171.416V171.287V171.157V171.026V170.894V170.761V170.627V170.492V170.356V170.22V170.082V169.943V169.804V169.663V169.522V169.379V169.236V169.092V168.947V168.801V168.654V168.506V168.357V168.207V168.057V167.905V167.753V167.6V167.446V167.291V167.135V166.979V166.821V166.663V166.503V166.343V166.182V166.021V165.858V165.695V165.53V165.365V165.199V165.033V164.865V164.697V164.528V164.358V164.187V164.015V163.843V163.67V163.496V163.321V163.146V162.969V162.792V162.615V162.436V162.257V162.077V161.896V161.714V161.532V161.349V161.165V160.98V160.795V160.609V160.422V160.235V160.047V159.858V159.668V159.478V159.287V159.095V158.903V158.71V158.516V158.322V158.127V157.931V157.735V157.537V157.34V157.141V156.942V156.742V156.542V156.341V156.139V155.937V155.734V155.531V155.326V155.122V154.916V154.71V154.504V154.296V154.088V153.88V153.671V153.461V153.251V153.04V152.829V152.617V152.404V152.191V151.978V151.763V151.549V151.333V151.117V150.901V150.684V150.466V150.248V150.03V149.811V149.591V149.371V149.15V148.929V148.707V148.485V148.262V148.039V147.816V147.591V147.367V147.142V146.916V146.69V146.463V146.236V146.009V145.781V145.552V145.323V145.094V144.864V144.634V144.403V144.172V143.941V143.709V143.477V143.244V143.011V142.777V142.543V142.308V142.074V141.838V141.603V141.367V141.13V140.894V140.656V140.419V140.181V139.943V139.704V139.465V139.226V138.986V138.746V138.506V138.265V138.024V137.782V137.541V137.299V137.056V136.814V136.571V136.327V136.084V135.84V135.596V135.351V135.106V134.861V134.616V134.37V134.124V133.878V133.631V133.385V133.138V132.89V132.643V132.395V132.147V131.899V131.65V131.401V131.152V130.903V130.654V130.404V130.154V129.904V129.654V129.403V129.153V128.902V128.651V128.399V128.148V127.896V127.644V127.392V127.14V126.888V126.635V126.383V126.13V125.877V125.624V125.37V125.117V124.863V124.61V124.356V124.102V123.848V123.593V123.339V123.085V122.83V122.575V122.321V122.066V121.811V121.556V121.301V121.046V120.79V120.535V120.279V120.024V119.768V119.513V119.257V119.001V118.746V118.49V118.234V117.978V117.722V117.466V117.21V116.954V116.698V116.442V116.186V115.93V115.674V115.418V115.161V114.905V114.649V114.393V114.137V113.881V113.625V113.369V113.113V112.857V112.602V112.346V112.09V111.834V111.579V111.323V111.068V110.812V110.557V110.302V110.046V109.791V109.536V109.281V109.026V108.771V108.517V108.262V108.008V107.753V107.499V107.245V106.991V106.737V106.483V106.23V105.976V105.723V105.47V105.217V104.964V104.711V104.458V104.206V103.954V103.702V103.45V103.198V102.947V102.695V102.444V102.193V101.942V101.692V101.442V101.191V100.941V100.692V100.442V100.193V99.9439V99.6951V99.4465V99.1981V98.95V98.7022V98.4546V98.2072V97.9601V97.7133V97.4668V97.2205V96.9744V96.7287V96.4832V96.238V95.9931V95.7485V95.5042V95.2602V95.0165V94.7731V94.53V94.2872V94.0448V93.8026V93.5608V93.3193V93.0781V92.8373V92.5968V92.3567V92.1169V91.8775V91.6384V91.3996V91.1613V90.9233V90.6857V90.4484V90.2115V89.975V89.7389V89.5032V89.2678V89.0329V88.7984V88.5642V88.3305V88.0972V87.8643V87.6318V87.3997V87.1681V86.9369V86.7061V86.4758V86.2459V86.0164V85.7874V85.5588V85.3308V85.1031V84.8759V84.6492V84.423V84.1972V83.9719V83.7471V83.5228V83.299V83.0757V82.8528V82.6305V82.4086V82.1873V81.9665V81.7462V81.5264V81.3072V81.0884C107.074 80.7746 107.329 80.5202 107.642 80.5202C107.956 80.5202 108.211 80.7746 108.211 81.0884V81.3072V81.5264V81.7462V81.9665V82.1873V82.4086V82.6305V82.8528V83.0757V83.299V83.5228V83.7471V83.9719V84.1972V84.423V84.6492V84.8759V85.1031V85.3308V85.5588V85.7874V86.0164V86.2459V86.4758V86.7061V86.9369V87.1681V87.3997V87.6318V87.8643V88.0972V88.3305V88.5642V88.7984V89.0329V89.2678V89.5032V89.7389V89.975V90.2115V90.4484V90.6857V90.9233V91.1613V91.3996V91.6384V91.8775V92.1169V92.3567V92.5968V92.8373V93.0781V93.3193V93.5608V93.8026V94.0448V94.2872V94.53V94.7731V95.0165V95.2602V95.5042V95.7485V95.9931V96.238V96.4832V96.7287V96.9744V97.2205V97.4668V97.7133V97.9601V98.2072V98.4546V98.7022V98.95V99.1981V99.4465V99.6951V99.9439V100.193V100.442V100.692V100.941V101.191V101.442V101.692V101.942V102.193V102.444V102.695V102.947V103.198V103.45V103.702V103.954V104.206V104.458V104.711V104.964V105.217V105.47V105.723V105.976V106.23V106.483V106.737V106.991V107.245V107.499V107.753V108.008V108.262V108.517V108.771V109.026V109.281V109.536V109.791V110.046V110.302V110.557V110.812V111.068V111.323V111.579V111.834V112.09V112.346V112.602V112.857V113.113V113.369V113.625V113.881V114.137V114.393V114.649V114.905V115.161V115.418V115.674V115.93V116.186V116.442V116.698V116.954V117.21V117.466V117.722V117.978V118.234V118.49V118.746V119.001V119.257V119.513V119.768V120.024V120.279V120.535V120.79V121.046V121.301V121.556V121.811V122.066V122.321V122.575V122.83V123.085V123.339V123.593V123.848V124.102V124.356V124.61V124.863V125.117V125.37V125.624V125.877V126.13V126.383V126.635V126.888V127.14V127.392V127.644V127.896V128.148V128.399V128.651V128.902V129.153V129.403V129.654V129.904V130.154V130.404V130.654V130.903V131.152V131.401V131.65V131.899V132.147V132.395V132.643V132.89V133.138V133.385V133.631V133.878V134.124V134.37V134.616V134.861V135.106V135.351V135.596V135.84V136.084V136.327V136.571V136.814V137.056V137.299V137.541V137.782V138.024V138.265V138.506V138.746V138.986V139.226V139.465V139.704V139.943V140.181V140.419V140.656V140.894V141.13V141.367V141.603V141.838V142.074V142.308V142.543V142.777V143.011V143.244V143.477V143.709V143.941V144.172V144.403V144.634V144.864V145.094V145.323V145.552V145.781V146.009V146.236V146.463V146.69V146.916V147.142V147.367V147.591V147.816V148.039V148.262V148.485V148.707V148.929V149.15V149.371V149.591V149.811V150.03V150.248V150.466V150.684V150.901V151.117V151.333V151.549V151.763V151.978V152.191V152.404V152.617V152.829V153.04V153.251V153.461V153.671V153.88V154.088V154.296V154.504V154.71V154.916V155.122V155.326V155.531V155.734V155.937V156.139V156.341V156.542V156.742V156.942V157.141V157.34V157.537V157.735V157.931V158.127V158.322V158.516V158.71V158.903V159.095V159.287V159.478V159.668V159.858V160.047V160.235V160.422V160.609V160.795V160.98V161.165V161.349V161.532V161.714V161.896V162.077V162.257V162.436V162.615V162.792V162.969V163.146V163.321V163.496V163.67V163.843V164.015V164.187V164.358V164.528V164.697V164.865V165.033V165.199V165.365V165.53V165.695V165.858V166.021V166.182V166.343V166.503V166.663V166.821V166.979V167.135V167.291V167.446V167.6V167.753V167.905V168.057V168.207V168.357V168.506V168.654V168.801V168.947V169.092V169.236V169.379V169.522V169.663V169.804V169.943V170.082V170.22V170.356V170.492V170.627V170.761V170.894V171.026V171.157V171.287V171.416V171.544V171.672V171.798V171.923V172.047V172.17V172.292V172.414V172.534V172.653V172.771V172.888V173.004V173.12V173.234V173.347V173.459V173.57V173.68V173.788V173.896V174.003V174.109V174.213V174.317V174.419V174.521V174.621V174.72V174.819V174.916V175.012V175.107V175.201V175.293V175.385V175.475V175.565V175.653V175.74V175.826V175.911V175.995V176.077V176.159V176.239V176.318V176.396V176.473V176.549V176.624V176.697V176.769V176.84V176.91V176.979V177.046V177.113V177.178V177.242V177.304V177.366V177.426V177.485V177.543V177.6V177.655V177.709V177.762V177.814V177.865V177.914V177.962V178.009V178.054V178.098V178.141V178.183V178.224V178.263V178.301V178.337V178.373V178.407V178.44V178.471V178.501V178.53V178.558V178.584V178.609V178.632V178.655V178.676V178.696V178.714V178.731V178.747V178.761V178.774V178.785V178.796V178.805V178.812V178.818V178.823V178.827V178.829C108.211 178.829 108.211 178.829 107.642 178.829ZM107.642 178.829H107.074C107.074 179.143 107.329 179.398 107.642 179.398C107.956 179.398 108.211 179.143 108.211 178.829H107.642ZM18.2881 18.3993C25.1861 10.1709 36.8633 3.57578 55.6533 3.80493C74.4235 4.03383 86.5106 10.2389 93.9042 18.0031C101.283 25.7521 103.949 35.015 103.949 41.3101C103.949 41.6126 103.712 41.862 103.41 41.8776L86.9302 42.73C86.6301 42.7455 86.3698 42.5248 86.3361 42.2261C85.2233 32.3497 80.2432 27.3774 74.6224 24.7804C69.3288 22.3345 63.4479 21.9849 59.5458 21.7529C59.2655 21.7362 58.9954 21.7202 58.7364 21.704C48.8516 21.0862 41.1806 22.5774 35.9631 26.0111C30.7787 29.423 27.9406 34.8031 27.8015 42.1732C27.685 48.3461 32.8801 53.0782 39.7903 56.5357C46.6532 59.9694 54.964 62.0167 60.5662 62.9112L60.5793 62.9134L60.5907 62.9156C83.9507 67.7016 95.8579 75.4223 101.52 84.5828C107.176 93.7349 106.501 104.178 105.079 114.128C105.035 114.439 104.747 114.655 104.437 114.61C104.126 114.566 103.91 114.278 103.954 113.967C105.374 104.028 105.977 93.9569 100.553 85.1803C95.1346 76.4138 83.604 68.7925 60.3747 64.0315C54.7066 63.1255 46.2796 61.0533 39.2818 57.5521C32.3264 54.072 26.5351 49.0489 26.6652 42.1518C26.8103 34.463 29.7968 28.7087 35.3383 25.0617C40.8468 21.4366 48.803 19.9444 58.8073 20.5697C59.0694 20.5861 59.3447 20.6023 59.6319 20.6193C63.5179 20.8489 69.6011 21.2083 75.0991 23.7486C80.9533 26.4535 86.123 31.6189 87.4014 41.5676L102.805 40.7709C102.657 34.7653 100.038 26.093 93.0811 18.7869C85.9272 11.2743 74.1473 5.16707 55.6395 4.94137C37.1516 4.71591 25.8142 11.1908 19.1591 19.1294C12.4832 27.0929 10.4751 36.5811 10.7531 42.4197C10.7542 42.4426 10.7539 42.4657 10.7522 42.4887C10.0241 52.3181 19.144 74.1316 60.5596 80.2421C60.566 80.2431 60.5724 80.2441 60.5788 80.2453C65.5101 81.1462 73.129 82.7936 79.4516 86.604C85.8017 90.431 90.8863 96.4725 90.5942 106.109C90.5847 106.423 90.3227 106.669 90.009 106.66C89.6953 106.65 89.4487 106.388 89.4582 106.075C89.7345 96.9588 84.9691 91.2562 78.8649 87.5774C72.737 83.8844 65.3026 82.264 60.384 81.3651C18.6595 75.2058 8.85282 53.0798 9.61625 42.4393C9.33548 36.342 11.4239 26.5875 18.2881 18.3993ZM124.69 80.8035C125.004 80.8035 125.258 81.0579 125.258 81.3717V178.829C125.258 179.143 125.004 179.398 124.69 179.398C124.376 179.398 124.122 179.143 124.122 178.829V81.3717C124.122 81.0579 124.376 80.8035 124.69 80.8035ZM127.259 122.175C127.321 121.867 127.62 121.668 127.928 121.73C155.196 127.23 164.064 144.5 164.751 152.642C165.524 161.808 164.271 173.5 157.377 182.971C150.462 192.47 137.955 199.626 116.456 199.855C94.9387 200.084 81.2295 192.494 72.9673 182.923C64.7245 173.374 61.9407 161.895 62.1817 154.376C62.1908 154.091 62.4101 153.857 62.694 153.829L80.026 152.124C80.1782 152.109 80.33 152.156 80.4472 152.254C80.5643 152.353 80.6368 152.494 80.6483 152.647C81.5433 164.505 87.1209 171.804 94.1334 176.159C101.174 180.531 109.696 181.955 116.45 181.955C128.294 181.955 135.881 178.994 140.538 174.649C145.193 170.307 147.003 164.504 147.137 158.643C147.244 153.912 144.104 149.754 139.98 146.509C135.871 143.274 130.912 141.049 127.667 140.168C127.364 140.086 127.185 139.773 127.267 139.471C127.349 139.168 127.662 138.989 127.964 139.071C131.349 139.99 136.448 142.282 140.683 145.616C144.904 148.938 148.393 153.398 148.273 158.669C148.135 164.742 146.252 170.873 141.314 175.48C136.378 180.085 128.473 183.091 116.45 183.091C109.566 183.091 100.813 181.645 93.5338 177.124C86.3421 172.658 80.6226 165.209 79.5626 153.311L63.3064 154.91C63.2099 162.173 65.9668 173.074 73.8276 182.18C81.8509 191.475 95.2288 198.944 116.444 198.719C137.679 198.493 149.805 191.442 156.458 182.302C163.131 173.135 164.379 161.755 163.618 152.737C162.979 145.156 154.534 128.256 127.703 122.844C127.396 122.782 127.197 122.483 127.259 122.175ZM84.9105 95.9023C84.9321 95.5892 84.6958 95.3179 84.3827 95.2963C84.0696 95.2747 83.7983 95.511 83.7767 95.8241C83.4899 99.9834 83.7052 104.202 86.532 108.061C89.3475 111.905 94.6779 115.291 104.364 118.004C104.666 118.089 104.979 117.913 105.064 117.61C105.149 117.308 104.972 116.995 104.67 116.91C95.0848 114.225 90.0444 110.933 87.4489 107.39C84.8649 103.862 84.6291 99.9828 84.9105 95.9023ZM71.7551 86.2382C72.0495 86.3472 72.1997 86.6741 72.0907 86.9684C69.2836 94.5475 68.3224 103.895 72.5653 112.554C76.8032 121.204 86.2959 129.295 104.665 134.24C104.968 134.322 105.147 134.634 105.066 134.937C104.984 135.24 104.672 135.419 104.369 135.338C85.801 130.339 75.9728 122.092 71.5447 113.055C67.1216 104.027 68.1494 94.3376 71.0249 86.5737C71.1339 86.2794 71.4608 86.1291 71.7551 86.2382ZM22.6857 95.5374C22.6744 95.3831 22.6006 95.2401 22.4814 95.1414C22.3622 95.0427 22.2079 94.9969 22.0542 95.0145L4.72224 97.0034C4.42494 97.0376 4.20505 97.2964 4.21942 97.5953C4.93656 112.512 10.5388 123.247 19.0856 130.568C27.6175 137.876 39.0343 141.74 51.3253 143.026C71.0492 145.09 85.36 137.202 90.0904 133.533C90.3384 133.341 90.3835 132.984 90.1912 132.736C89.9988 132.488 89.6419 132.443 89.3939 132.635C84.8426 136.165 70.8162 143.923 51.4436 141.895C39.2994 140.625 28.1278 136.817 19.8249 129.705C11.6376 122.692 6.19155 112.427 5.38235 98.0717L21.6015 96.2105C23.4261 115.714 44.4607 133.339 74.8644 123.11C75.1619 123.01 75.3219 122.688 75.2218 122.39C75.1217 122.093 74.7994 121.933 74.502 122.033C44.4079 132.158 24.0759 114.443 22.6857 95.5374ZM107.642 18.0114C107.329 18.0114 107.074 18.2658 107.074 18.5797V41.8784C107.074 42.1922 107.329 42.4466 107.642 42.4466C107.956 42.4466 108.211 42.1922 108.211 41.8784V19.1479H164.184C171.701 19.1479 182.658 19.7908 191.723 24.6911C196.245 27.1353 200.291 30.6361 203.21 35.6471C206.129 40.6594 207.941 47.216 207.941 55.8008C207.941 70.4812 204.343 79.5782 199.508 85.5258C194.666 91.4821 188.529 94.3498 183.292 96.4731C183.137 96.536 183.017 96.6641 182.965 96.8233C182.913 96.9824 182.934 97.1564 183.022 97.2988L218.002 153.826H198.879L174.895 115.451C174.889 115.442 174.883 115.432 174.876 115.423C173.953 114.126 173.103 112.904 172.304 111.757L172.304 111.757L172.303 111.756C170.54 109.222 169.027 107.05 167.532 105.218C165.341 102.536 163.144 100.531 160.154 99.0944C157.175 97.6633 153.45 96.818 148.233 96.3828C143.017 95.9477 136.271 95.9202 127.233 96.1475C126.919 96.1554 126.671 96.4162 126.679 96.7299C126.687 97.0436 126.948 97.2916 127.262 97.2837C136.294 97.0565 142.988 97.0857 148.139 97.5154C153.289 97.9451 156.859 98.7726 159.662 100.119C162.454 101.46 164.527 103.336 166.651 105.937C168.119 107.734 169.592 109.85 171.34 112.362C172.14 113.512 172.999 114.745 173.94 116.068L198.082 154.695C198.186 154.861 198.368 154.962 198.564 154.962H219.022C219.228 154.962 219.418 154.851 219.518 154.671C219.618 154.491 219.613 154.27 219.505 154.095L184.342 97.2718C189.489 95.1519 195.555 92.1904 200.39 86.2427C205.429 80.0445 209.077 70.6729 209.077 55.8008C209.077 47.0536 207.23 40.2916 204.192 35.0751C201.153 29.8575 196.941 26.2194 192.264 23.6913C182.932 18.6471 171.727 18.0114 164.184 18.0114H107.642ZM124.122 33.3545C124.122 33.0406 124.376 32.7862 124.69 32.7862H165.037C169.317 32.7862 175.858 33.1815 181.401 36.1494C184.182 37.6386 186.718 39.7784 188.585 42.8398C190.451 45.9008 191.629 49.852 191.745 54.9355C191.979 65.214 187.625 72.1992 182.003 76.5992C176.405 80.9803 169.559 82.7932 164.753 82.7932H127.247C126.934 82.7932 126.679 82.5388 126.679 82.2249C126.679 81.9111 126.934 81.6567 127.247 81.6567H164.753C169.323 81.6567 175.918 79.9179 181.303 75.7041C186.663 71.5091 190.834 64.856 190.609 54.9613C190.497 50.0434 189.36 46.2946 187.614 43.4315C185.869 40.5688 183.496 38.5602 180.865 37.1513C175.582 34.3229 169.281 33.9227 165.037 33.9227H125.258V41.8784C125.258 42.1922 125.004 42.4466 124.69 42.4466C124.376 42.4466 124.122 42.1922 124.122 41.8784V33.3545ZM100.975 80.4996C105.372 79.2833 117.517 77.2973 128.522 80.217C128.826 80.2975 129.137 80.1168 129.217 79.8135C129.298 79.5101 129.117 79.199 128.814 79.1185C117.543 76.1282 105.177 78.1579 100.672 79.4042C100.369 79.4879 100.192 79.8009 100.276 80.1034C100.359 80.4059 100.672 80.5832 100.975 80.4996ZM116.752 64.6428C104.513 64.2512 93.3194 67.3181 88.0198 70.1337C87.7427 70.281 87.3986 70.1757 87.2514 69.8985C87.1041 69.6214 87.2094 69.2773 87.4866 69.1301C92.984 66.2093 104.379 63.1098 116.788 63.5069C129.209 63.9043 142.74 67.8097 152.397 79.0126C152.602 79.2503 152.575 79.6092 152.338 79.8141C152.1 80.019 151.741 79.9924 151.536 79.7547C142.156 68.8727 128.979 65.0341 116.752 64.6428ZM67.2958 44.1514C66.982 44.1514 66.7275 44.4058 66.7275 44.7197V61.7675C66.7275 62.0814 66.982 62.3358 67.2958 62.3358H107.526C107.84 62.3358 108.094 62.0814 108.094 61.7675C108.094 61.4537 107.84 61.1993 107.526 61.1993H67.8641V45.2879H165.037V61.1993H124.808C124.494 61.1993 124.24 61.4537 124.24 61.7675C124.24 62.0814 124.494 62.3358 124.808 62.3358H165.605C165.919 62.3358 166.173 62.0814 166.173 61.7675V44.7197C166.173 44.4058 165.919 44.1514 165.605 44.1514H67.2958ZM143.906 98.9984C144.215 98.9406 144.512 99.1437 144.57 99.4522L145.326 103.486L159.298 102.111C159.611 102.08 159.889 102.309 159.92 102.621C159.95 102.933 159.722 103.211 159.41 103.242L144.919 104.669C144.626 104.697 144.359 104.497 144.305 104.208L143.453 99.6616C143.395 99.3532 143.598 99.0562 143.906 98.9984Z" stroke="#424242" stroke-linecap="round" stroke-linejoin="round"/>
</svg>
