<svg width="21" height="26" viewBox="0 0 21 26" fill="none" xmlns="http://www.w3.org/2000/svg">
<path d="M11.3043 3.8647V7.91304H18.0925C19.3381 7.91304 20.3478 8.92423 20.3478 10.1672V23.7458C20.3478 24.9908 19.3388 26 18.0925 26H2.25532C1.00974 26 0 24.9888 0 23.7458V10.1672C0 8.92226 1.00905 7.91304 2.25532 7.91304H9.04348V3.86103L7.7667 5.13782C7.3293 5.57521 6.61993 5.57498 6.17539 5.13044C5.73393 4.68898 5.73654 3.97062 6.16802 3.53914L9.38012 0.327044C9.5976 0.109557 9.88233 0.000267936 10.1683 0L10.1769 0.00337475C10.464 0.0039872 10.7495 0.112499 10.964 0.327044L14.1761 3.53914C14.6135 3.97653 14.6133 4.6859 14.1688 5.13044C13.7273 5.57191 13.009 5.5693 12.5775 5.13782L11.3043 3.8647ZM9.04348 10.1739H2.26087V23.7391H18.087V10.1739H11.3043V14.6973C11.3043 15.3207 10.8026 15.8261 10.1739 15.8261C9.54959 15.8261 9.04348 15.3202 9.04348 14.6973V10.1739ZM5.65217 7.91304V10.1739H14.6957V7.91304H5.65217ZM9.04348 7.91304H11.3043V10.1739H9.04348V7.91304Z" fill="white"/>
</svg>
