<svg width="24" height="24" viewBox="0 0 24 24" fill="none" xmlns="http://www.w3.org/2000/svg">
<path d="M5.58154 12C5.58154 10.8109 5.90915 9.69704 6.47831 8.74327V4.69759H2.43262C0.826918 6.78296 -0.043457 9.32448 -0.043457 12C-0.043457 14.6755 0.826918 17.2171 2.43262 19.3024H6.47831V15.2567C5.90915 14.303 5.58154 13.1891 5.58154 12Z" fill="#424242"/>
<path d="M11.9565 18.375L9.14404 21.1875L11.9565 24C14.6321 24 17.1736 23.1296 19.259 21.5239V17.4825H15.2176C14.2555 18.0538 13.1369 18.375 11.9565 18.375Z" fill="#424242"/>
<path d="M6.4783 15.2567L2.43262 19.3024C2.75052 19.7153 3.0967 20.1107 3.47127 20.4853C5.73777 22.7518 8.75123 24 11.9565 24V18.375C9.63041 18.375 7.59168 17.1225 6.4783 15.2567Z" fill="#424242"/>
<path d="M23.9565 12C23.9565 11.2699 23.8904 10.5385 23.76 9.82609L23.6545 9.24957H11.9565V14.8746H17.6496C17.0968 15.9743 16.2467 16.8715 15.2175 17.4826L19.2589 21.524C19.6718 21.2061 20.0672 20.8599 20.4418 20.4853C22.7083 18.2188 23.9565 15.2053 23.9565 12Z" fill="#424242"/>
<path d="M16.4644 7.49217L16.9615 7.98933L20.939 4.01189L20.4419 3.51473C18.1754 1.24823 15.1619 0 11.9565 0L9.14404 2.8125L11.9565 5.625C13.6593 5.625 15.2602 6.28809 16.4644 7.49217Z" fill="#424242"/>
<path d="M11.9566 5.625V0C8.75127 0 5.73782 1.24823 3.47127 3.51469C3.0967 3.88927 2.75052 4.28466 2.43262 4.69758L6.4783 8.74327C7.59173 6.8775 9.63046 5.625 11.9566 5.625Z" fill="#424242"/>
</svg>
