<svg width="25" height="24" viewBox="0 0 25 24" fill="none" xmlns="http://www.w3.org/2000/svg">
<path d="M23.4796 2.7178L16.0164 1.02516C15.688 0.949374 15.3596 1.05043 15.1069 1.25253C14.8543 1.45464 14.7027 1.78306 14.7027 2.08622V2.69254H9.28163C8.67532 2.69254 8.19531 3.17254 8.19531 3.77886V5.41368C8.19531 6.02 8.67532 6.5 9.28163 6.5C9.88795 6.5 10.368 6.02 10.368 5.41368V4.89045H14.6775V18.6337H10.368V18.0863C10.368 17.48 9.88795 17 9.28163 17C8.67532 17 8.19531 17.48 8.19531 18.0863L8.19531 19.72C8.19531 20.3263 8.67532 20.8063 9.28163 20.8063H14.7027V21.4127C14.7027 21.7411 14.8543 22.0442 15.1069 22.2463C15.309 22.3979 15.5617 22.499 15.789 22.499C15.8648 22.499 15.9406 22.499 16.0164 22.4737L23.4796 20.8063C23.9849 20.7053 24.3638 20.2505 24.3638 19.7453V3.77886C24.3638 3.2736 23.9849 2.81886 23.4796 2.7178Z" fill="#fff"/>
<path d="M12.3636 11.7695C12.3636 11.5241 12.2501 11.2787 12.0685 11.0779L9.47993 8.53446C9.09392 8.15518 8.48085 8.15518 8.09484 8.53446C7.70883 8.91375 7.70883 9.51614 8.09484 9.89542L9.0258 10.7878H2.34002C1.79507 10.7878 1.36365 11.2118 1.36365 11.7472C1.36365 12.2827 1.79507 12.7066 2.34002 12.7066H9.0031L8.09484 13.599C7.70883 13.9783 7.70883 14.5807 8.09484 14.96C8.27649 15.1384 8.54897 15.25 8.79874 15.25C9.04851 15.25 9.29828 15.1608 9.50264 14.96L12.0912 12.4165C12.2501 12.2604 12.3636 12.0149 12.3636 11.7695Z" fill="#fff"/>
</svg>
