<svg width="25" height="24" viewBox="0 0 25 24" fill="none" xmlns="http://www.w3.org/2000/svg">
<g clip-path="url(#clip0)">
<rect x="3.36365" y="7" width="2" height="8" rx="1" fill="#fff"/>
<rect x="8.36365" y="10" width="2" height="8" rx="1" transform="rotate(90 8.36365 10)" fill="#fff"/>
</g>
<path d="M24.2943 21.3708C24.2636 20.2666 23.9876 16.126 21.9939 14.8071C20.3684 13.7029 16.8718 13.6109 15.829 13.6109C14.7861 13.6109 11.2896 13.7029 9.66401 14.8071C7.60902 16.218 7.39432 20.6347 7.36365 21.5241C7.36365 21.8002 7.45566 22.0456 7.63969 22.2603C7.82372 22.4443 8.09976 22.567 8.34514 22.567H23.2822C23.8342 22.567 24.2943 22.1069 24.2943 21.5548C24.2943 21.4628 24.2943 21.4015 24.2943 21.3708Z" fill="#fff"/>
<path d="M15.8293 12.016C18.6582 12.016 20.9514 9.72275 20.9514 6.89387C20.9514 4.06499 18.6582 1.77173 15.8293 1.77173C13.0004 1.77173 10.7072 4.06499 10.7072 6.89387C10.7072 9.72275 13.0004 12.016 15.8293 12.016Z" fill="#ffff"/>
<defs>
<clipPath id="clip0">
<rect width="24" height="24" fill="white" transform="translate(0.363647)"/>
</clipPath>
</defs>
</svg>
