<svg width="24" height="20" viewBox="0 0 24 20" fill="none" xmlns="http://www.w3.org/2000/svg">
<path d="M22.6098 8.26044H21.7405V5.2173C21.7405 4.25674 20.9615 3.47802 19.9999 3.47802H2.60878C2.12824 3.47802 1.73953 3.08879 1.73953 2.60852C1.73953 2.1285 2.12824 1.73927 2.60878 1.73927H19.1317C19.6123 1.73927 19.9999 1.34978 19.9999 0.869506C19.9999 0.38923 19.6123 0 19.1317 0H2.60878C1.16795 0 0 1.16769 0 2.60852V17.3917C0 18.8325 1.16795 19.9999 2.60878 19.9999H19.9999C20.9615 19.9999 21.7405 19.2215 21.7405 18.2609V15.218H22.6098C23.0898 15.218 23.479 14.8283 23.479 14.3478V9.13046C23.479 8.65045 23.0898 8.26044 22.6098 8.26044ZM19.5669 13.5469C18.5672 13.5469 17.76 12.7368 17.76 11.7382C17.76 10.7414 18.5672 9.93214 19.5669 9.93214C20.564 9.93214 21.3727 10.7414 21.3727 11.7382C21.3727 12.7366 20.564 13.5469 19.5669 13.5469Z" fill="white"/>
</svg>
