<svg width="18" height="22" viewBox="0 0 18 22" fill="none" xmlns="http://www.w3.org/2000/svg">
<path d="M17.567 20.3708C17.5363 19.2666 17.2603 15.126 15.2667 13.8071C13.6411 12.7029 10.1445 12.6109 9.10169 12.6109C8.05885 12.6109 4.5623 12.7029 2.93671 13.8071C0.881725 15.218 0.667024 19.6347 0.636353 20.5241C0.636353 20.8002 0.728367 21.0456 0.912396 21.2603C1.09643 21.4443 1.37247 21.567 1.61784 21.567H16.5549C17.1069 21.567 17.567 21.1069 17.567 20.5548C17.567 20.4628 17.567 20.4015 17.567 20.3708Z" fill="#828282"/>
<path d="M9.102 11.016C11.9309 11.016 14.2241 8.72275 14.2241 5.89387C14.2241 3.06499 11.9309 0.771729 9.102 0.771729C6.27312 0.771729 3.97986 3.06499 3.97986 5.89387C3.97986 8.72275 6.27312 11.016 9.102 11.016Z" fill="#fff"/>
</svg>
