<svg width="25" height="24" viewBox="0 0 25 24" fill="none" xmlns="http://www.w3.org/2000/svg">
<path fill-rule="evenodd" clip-rule="evenodd" d="M21.1653 8.91501L23.86 9.87198C24.1118 9.97272 24.2881 10.1994 24.3636 10.4764V13.4481C24.3636 13.7251 24.1874 13.9517 23.9355 14.0525L21.2661 15.0094C21.0898 15.085 20.9639 15.2109 20.8883 15.3872C20.8631 15.4376 20.8379 15.5131 20.8128 15.5887C20.7372 15.765 20.7372 15.9412 20.8128 16.1175L22.0216 18.6863C22.1475 18.9381 22.0971 19.2151 21.8957 19.4166L19.8306 21.4816C19.6291 21.6831 19.3521 21.7335 19.1003 21.6076L16.5567 20.3987C16.3804 20.3232 16.2042 20.3232 16.0279 20.3987C15.9523 20.4491 15.8768 20.4743 15.8012 20.4995C15.6249 20.575 15.4738 20.7009 15.4235 20.8772L14.4665 23.5467C14.3657 23.7985 14.1391 23.9748 13.8621 23.9748H10.9408C10.6638 23.9748 10.4371 23.7985 10.3364 23.5467L9.37939 20.9024C9.30384 20.7261 9.17792 20.6002 9.00163 20.5247C8.96386 20.5121 8.92608 20.4932 8.88831 20.4743C8.85053 20.4554 8.81276 20.4365 8.77498 20.4239C8.59869 20.3484 8.42241 20.3484 8.24612 20.4239L5.67739 21.6327C5.42556 21.7587 5.14854 21.7083 4.94707 21.5068L2.88201 19.4418C2.68054 19.2403 2.63017 18.9633 2.75609 18.7114L3.93972 16.1679C4.01527 15.9916 4.01527 15.8153 3.93972 15.639C3.92474 15.5791 3.90085 15.5281 3.87865 15.4807C3.86353 15.4484 3.84919 15.4178 3.83899 15.3872C3.76344 15.2109 3.63752 15.0598 3.46123 15.0094L0.791769 14.0525C0.539933 13.9517 0.363647 13.7251 0.363647 13.4481V10.5268C0.363647 10.2497 0.539933 10.0231 0.791769 9.92235L3.41087 9.04092C3.58715 8.96537 3.71307 8.83945 3.78862 8.66317C3.8036 8.60324 3.8275 8.55223 3.8497 8.50483C3.86482 8.47255 3.87915 8.44194 3.88936 8.41133C3.96491 8.23505 3.96491 8.05876 3.88936 7.88248L2.68054 5.31375C2.55462 5.06191 2.60499 4.78489 2.80646 4.58342L4.87152 2.51836C5.07299 2.31689 5.35001 2.26653 5.60184 2.39244L8.14539 3.57608C8.32167 3.65163 8.49796 3.65163 8.67425 3.57608C8.71202 3.56348 8.7498 3.5446 8.78757 3.52571C8.82535 3.50682 8.86312 3.48793 8.9009 3.47534C9.07718 3.39979 9.22829 3.27387 9.27865 3.09759L10.2356 0.428122C10.3364 0.176285 10.563 0 10.84 0H13.7613C14.0384 0 14.265 0.176285 14.3657 0.428122L15.2975 3.04722C15.3731 3.2235 15.499 3.34942 15.6753 3.42497C15.7508 3.47534 15.8264 3.50052 15.9019 3.52571C16.0782 3.60126 16.2545 3.60126 16.4308 3.52571L18.9995 2.31689C19.2514 2.19098 19.5284 2.24134 19.7299 2.44281L21.7949 4.50787C21.9964 4.70934 22.0468 4.98636 21.9208 5.23819L20.712 7.80693C20.6365 7.98321 20.6365 8.1595 20.712 8.33578C20.7372 8.38615 20.7624 8.4617 20.7876 8.53725C20.8631 8.71354 20.989 8.86464 21.1653 8.91501ZM12.3636 18C15.6774 18 18.3636 15.3137 18.3636 12C18.3636 8.68629 15.6774 6 12.3636 6C9.04994 6 6.36365 8.68629 6.36365 12C6.36365 15.3137 9.04994 18 12.3636 18Z" fill="#fff"/>
<circle cx="12.3636" cy="12" r="3" fill="#fff"/>
</svg>
