<svg width="25" height="23" viewBox="0 0 25 23" fill="none" xmlns="http://www.w3.org/2000/svg">
<path fill-rule="evenodd" clip-rule="evenodd" d="M12.0205 8.63232C12.2677 8.63232 12.4681 8.83271 12.4681 9.07989V20.0773C12.4681 20.0773 12.4681 20.0773 12.0205 20.0773C11.5729 20.0773 11.5729 20.0773 11.5729 20.0773V9.07989C11.5729 8.83271 11.7733 8.63232 12.0205 8.63232ZM13.9387 8.6642C14.1859 8.6642 14.3862 8.86458 14.3862 9.11177V20.0773C14.3862 20.3245 14.1859 20.5249 13.9387 20.5249C13.6915 20.5249 13.4911 20.3245 13.4911 20.0773V9.11177C13.4911 8.86458 13.6915 8.6642 13.9387 8.6642ZM12.0205 20.5249C11.7733 20.5249 11.5729 20.3245 11.5729 20.0773H12.0205H12.4681C12.4681 20.3245 12.2677 20.5249 12.0205 20.5249Z" fill="black"/>
<path fill-rule="evenodd" clip-rule="evenodd" d="M13.8516 13.627C13.9005 13.3847 14.1365 13.2279 14.3788 13.2767C17.5944 13.9253 18.7352 15.9933 18.8284 17.0986C18.9196 18.1802 18.7769 19.601 17.9266 20.7692C17.0603 21.9593 15.5244 22.8 13.0163 22.8267C10.4932 22.8535 8.83891 21.959 7.82861 20.7886C6.83362 19.6359 6.49206 18.2486 6.52203 17.3137C6.52923 17.089 6.70189 16.9046 6.92556 16.8826L8.87568 16.6908C8.99557 16.679 9.11515 16.716 9.20739 16.7935C9.29962 16.871 9.35673 16.9824 9.3658 17.1025C9.45691 18.3097 10.0136 19.0229 10.7029 19.451C11.4145 19.8929 12.2955 20.0454 13.0116 20.0454C14.2838 20.0454 15.0301 19.7277 15.4601 19.3265C15.888 18.9273 16.0674 18.385 16.0807 17.7974C16.0887 17.4473 15.8529 17.0816 15.4217 16.7422C15.0022 16.412 14.4913 16.1839 14.1731 16.0975C13.9345 16.0328 13.7936 15.7869 13.8584 15.5484C13.9231 15.3098 14.169 15.1689 14.4076 15.2337C14.8353 15.3498 15.4561 15.63 15.9754 16.0388C16.4831 16.4384 16.9933 17.0425 16.9756 17.8177C16.9585 18.5728 16.7223 19.3732 16.0708 19.981C15.4215 20.5868 14.4247 20.9405 13.0116 20.9405C12.1931 20.9405 11.1303 20.7701 10.2307 20.2114C9.40527 19.6988 8.73999 18.8714 8.52834 17.6244L7.43047 17.7324C7.49876 18.4461 7.80607 19.3926 8.50622 20.2037C9.3283 21.1561 10.7217 21.9559 13.0068 21.9316C15.3069 21.9071 16.5427 21.1494 17.2029 20.2424C17.8791 19.3134 18.0178 18.1382 17.9364 17.1738C17.8804 16.5101 17.0732 14.7333 14.2019 14.1542C13.9595 14.1053 13.8027 13.8693 13.8516 13.627Z" fill="black"/>
<path fill-rule="evenodd" clip-rule="evenodd" d="M9.42977 10.2959C9.67637 10.3129 9.86249 10.5266 9.84549 10.7732C9.81566 11.2057 9.84908 11.5276 10.0579 11.8126C10.2757 12.11 10.7449 12.4484 11.7895 12.7411C12.0276 12.8078 12.1665 13.0548 12.0998 13.2928C12.0331 13.5308 11.7861 13.6697 11.5481 13.603C10.4244 13.2883 9.72675 12.8754 9.33572 12.3416C8.93569 11.7954 8.91836 11.2062 8.95247 10.7116C8.96948 10.465 9.18317 10.2789 9.42977 10.2959Z" fill="black"/>
<path fill-rule="evenodd" clip-rule="evenodd" d="M8.11587 9.29959C8.34767 9.38544 8.46598 9.64295 8.38013 9.87475C8.0874 10.6651 8.00169 11.6013 8.41829 12.4516C8.83094 13.2938 9.78579 14.1516 11.7852 14.6899C12.0239 14.7542 12.1653 14.9998 12.101 15.2385C12.0368 15.4772 11.7912 15.6186 11.5525 15.5543C9.39593 14.9737 8.17686 13.9933 7.61445 12.8454C7.05598 11.7056 7.19406 10.4998 7.54071 9.56385C7.62656 9.33205 7.88407 9.21374 8.11587 9.29959Z" fill="black"/>
<path fill-rule="evenodd" clip-rule="evenodd" d="M2.68314 10.3656C2.77702 10.4433 2.83513 10.556 2.84407 10.6775C2.97988 12.5246 4.99108 14.3925 8.1693 13.3232C8.30383 13.2779 8.45185 13.2992 8.56823 13.3804L10.2626 14.5633C10.3793 14.6447 10.4503 14.7768 10.4538 14.919C10.4574 15.0613 10.3931 15.1968 10.2807 15.284C9.68799 15.7436 7.98178 16.6751 5.64396 16.4304C4.21145 16.2805 2.84411 15.827 1.80684 14.9385C0.757795 14.04 0.085814 12.7296 0.000524329 10.9556C-0.0107939 10.7202 0.162399 10.5163 0.396553 10.4895L2.34668 10.2657C2.46776 10.2518 2.58927 10.2879 2.68314 10.3656ZM0.927839 11.3295C1.0775 12.658 1.62194 13.6015 2.38915 14.2587C3.24606 14.9926 4.42028 15.4023 5.73713 15.5401C7.27527 15.7011 8.49099 15.2803 9.19662 14.9108L8.23739 14.2412C4.91206 15.2497 2.45973 13.4507 2.01395 11.2049L0.927839 11.3295Z" fill="black"/>
<path fill-rule="evenodd" clip-rule="evenodd" d="M1.67269 1.77993C2.53078 0.756329 3.95937 -0.0263473 6.17555 0.000679241C8.37604 0.0275145 9.83972 0.758693 10.7525 1.71725C11.6539 2.66378 11.9885 3.8021 11.9885 4.60422C11.9885 4.84242 11.8019 5.03889 11.5641 5.0512L9.70983 5.1471C9.47348 5.15933 9.26846 4.98543 9.24196 4.75024C9.13274 3.78092 8.66308 3.33231 8.14429 3.09261C7.61727 2.84911 7.02324 2.81318 6.57722 2.7862C6.54881 2.78448 6.52099 2.7828 6.49384 2.7811C5.42195 2.71411 4.65513 2.8816 4.1663 3.2033C3.70354 3.50784 3.43427 3.98688 3.42065 4.70857C3.41216 5.15865 3.79542 5.59286 4.55769 5.97426C5.28259 6.33696 6.17609 6.55877 6.78414 6.65586C6.79058 6.65689 6.79701 6.65805 6.8034 6.65937C9.47318 7.20634 10.939 8.10822 11.6579 9.2714C12.3727 10.4279 12.2724 11.7284 12.1119 12.8517C12.0769 13.0964 11.8502 13.2664 11.6055 13.2314C11.3608 13.1965 11.1908 12.9698 11.2257 12.7251C11.385 11.6105 11.4284 10.6027 10.8965 9.74203C10.3692 8.88898 9.19978 8.06549 6.63313 7.53822C5.97308 7.432 4.9882 7.19059 4.15715 6.77479C3.3593 6.37559 2.50642 5.71219 2.52567 4.69169C2.54403 3.71901 2.93012 2.94525 3.6742 2.45556C4.39222 1.98302 5.38371 1.81483 6.54967 1.8877C6.57959 1.88957 6.61168 1.89143 6.64576 1.89341C7.07847 1.91849 7.83178 1.96215 8.51974 2.28002C9.21534 2.60141 9.83007 3.19447 10.0622 4.23254L11.055 4.18119C10.9601 3.62975 10.6797 2.93877 10.1043 2.33455C9.38025 1.57423 8.15852 0.920069 6.16463 0.895753C4.18644 0.871629 3.02551 1.55954 2.35867 2.355C1.67549 3.16995 1.4749 4.14042 1.50207 4.71081C1.50293 4.72893 1.50269 4.74708 1.50135 4.76517C1.43939 5.60162 2.24126 7.93569 6.7789 8.60518C6.78395 8.60592 6.78898 8.60676 6.794 8.60767C7.3532 8.70983 8.2708 8.90441 9.04657 9.37194C9.84408 9.85257 10.5239 10.6467 10.4857 11.9068C10.4783 12.1539 10.2719 12.3481 10.0248 12.3406C9.77775 12.3331 9.58352 12.1267 9.59101 11.8797C9.61677 11.0298 9.18834 10.5025 8.58453 10.1386C7.96178 9.76331 7.18918 9.59011 6.64054 9.48959C1.85395 8.78082 0.516847 6.19617 0.606791 4.72663C0.577204 3.95362 0.840603 2.7725 1.67269 1.77993Z" fill="black"/>
<path fill-rule="evenodd" clip-rule="evenodd" d="M11.5729 2.04669C11.5729 1.79951 11.7733 1.59912 12.0205 1.59912H18.3824C19.24 1.59912 20.5844 1.66823 21.7242 2.28435C22.3028 2.59712 22.8328 3.05281 23.2154 3.70961C23.5974 4.36546 23.8172 5.19563 23.8172 6.23467C23.8172 7.97692 23.3713 9.13204 22.7195 9.92041C22.2361 10.5051 21.662 10.8591 21.1493 11.1033L24.9309 17.089C25.018 17.2268 25.0232 17.4012 24.9445 17.544C24.8657 17.6869 24.7156 17.7756 24.5525 17.7756H22.2507C22.0964 17.7756 21.9529 17.6961 21.8711 17.5652L19.1609 13.2288C19.0499 13.0728 18.9517 12.9316 18.862 12.8027C18.6711 12.5283 18.5184 12.309 18.3628 12.1185C18.146 11.8531 17.9548 11.6858 17.7075 11.567C17.4517 11.4441 17.1023 11.357 16.5451 11.3105C15.9875 11.264 15.2519 11.2602 14.2376 11.2857C13.9905 11.2919 13.7852 11.0966 13.779 10.8495C13.7727 10.6024 13.968 10.397 14.2151 10.3908C15.2341 10.3652 16.0106 10.3677 16.6195 10.4185C17.2289 10.4693 17.7003 10.5705 18.095 10.7601C18.4983 10.9538 18.7874 11.2233 19.0561 11.5523C19.2341 11.7702 19.4178 12.0341 19.6213 12.3264C19.7094 12.453 19.8013 12.5848 19.8979 12.7206C19.9031 12.7279 19.9081 12.7354 19.9128 12.743L22.4987 16.8804H23.7403L20.114 11.1406C20.0432 11.0285 20.0257 10.8908 20.0663 10.7645C20.1069 10.6383 20.2013 10.5366 20.3242 10.4868C20.9002 10.2533 21.532 9.95185 22.0296 9.35C22.5207 8.75611 22.922 7.81756 22.922 6.23467C22.922 5.32358 22.7302 4.65519 22.4419 4.16014C22.1541 3.66605 21.755 3.31851 21.2986 3.07182C20.3684 2.56901 19.2191 2.49426 18.3824 2.49426H12.4681V4.66817C12.4681 4.91536 12.2677 5.11574 12.0205 5.11574C11.7733 5.11574 11.5729 4.91536 11.5729 4.66817V2.04669Z" fill="black"/>
<path fill-rule="evenodd" clip-rule="evenodd" d="M13.491 3.70911C13.491 3.46192 13.6914 3.26154 13.9386 3.26154H18.4782C18.9719 3.26154 19.789 3.30437 20.5006 3.68538C20.8642 3.88007 21.2044 4.16512 21.4553 4.57665C21.706 4.98783 21.8526 5.50072 21.8669 6.1286C21.8961 7.41467 21.3446 8.31272 20.6236 8.87695C19.9216 9.42639 19.0666 9.6554 18.4463 9.6554H14.2263C13.9791 9.6554 13.7788 9.45501 13.7788 9.20783C13.7788 8.96064 13.9791 8.76026 14.2263 8.76026H18.4463C18.881 8.76026 19.5383 8.58964 20.072 8.17202C20.5867 7.76917 20.9943 7.13269 20.972 6.14894C20.9607 5.65151 20.8467 5.29803 20.691 5.04264C20.5355 4.78761 20.3234 4.60592 20.078 4.47452C19.5716 4.20336 18.9437 4.15668 18.4782 4.15668H14.3862V4.66818C14.3862 4.91537 14.1858 5.11575 13.9386 5.11575C13.6914 5.11575 13.491 4.91537 13.491 4.66818V3.70911Z" fill="black"/>
<path fill-rule="evenodd" clip-rule="evenodd" d="M14.2714 9.35267C13.1229 9.04798 11.8306 9.25668 11.3724 9.3834C11.1342 9.4493 10.8877 9.30959 10.8218 9.07135C10.7559 8.83311 10.8956 8.58655 11.1338 8.52066C11.6774 8.37031 13.1429 8.12718 14.5009 8.48746C14.7398 8.55084 14.8821 8.79591 14.8187 9.03483C14.7553 9.27375 14.5103 9.41605 14.2714 9.35267Z" fill="black"/>
<path fill-rule="evenodd" clip-rule="evenodd" d="M13.0332 7.61299C11.7137 7.57077 10.5221 7.90485 9.99264 8.18616C9.77435 8.30213 9.50338 8.21919 9.3874 8.0009C9.27143 7.78261 9.35437 7.51164 9.57266 7.39566C10.258 7.03153 11.608 6.67178 13.0618 6.71831C14.5249 6.76513 16.1668 7.22707 17.3467 8.59592C17.5081 8.78315 17.4872 9.06576 17.2999 9.22715C17.1127 9.38853 16.8301 9.36759 16.6687 9.18036C15.7067 8.0643 14.3435 7.65492 13.0332 7.61299Z" fill="black"/>
<path fill-rule="evenodd" clip-rule="evenodd" d="M7.03326 4.98785C7.03326 4.74067 7.23365 4.54028 7.48083 4.54028H18.5422C18.7894 4.54028 18.9898 4.74067 18.9898 4.98785V6.90601C18.9898 7.1532 18.7894 7.35358 18.5422 7.35358H13.9519C13.7047 7.35358 13.5043 7.1532 13.5043 6.90601C13.5043 6.65882 13.7047 6.45844 13.9519 6.45844H18.0946V5.43542H7.9284V6.45844H12.0074C12.2546 6.45844 12.455 6.65882 12.455 6.90601C12.455 7.1532 12.2546 7.35358 12.0074 7.35358H7.48083C7.23365 7.35358 7.03326 7.1532 7.03326 6.90601V4.98785Z" fill="black"/>
<path fill-rule="evenodd" clip-rule="evenodd" d="M16.0301 10.718C16.273 10.6725 16.5069 10.8325 16.5525 11.0754L16.572 11.1795L17.9182 11.0327C18.164 11.0059 18.3849 11.1833 18.4117 11.4291C18.4385 11.6748 18.2611 11.8957 18.0153 11.9225L16.257 12.1144C16.0245 12.1397 15.8117 11.9818 15.7686 11.7519L15.6727 11.2404C15.6271 10.9974 15.7871 10.7636 16.0301 10.718Z" fill="black"/>
<path d="M12.0205 20.0773V9.11176L13.9386 9.11176V20.0773H12.0205Z" fill="white"/>
<path fill-rule="evenodd" clip-rule="evenodd" d="M12.0205 9.04785L13.9386 9.04785C13.9556 9.04785 13.9719 9.05459 13.9839 9.06658C13.9958 9.07857 14.0026 9.09483 14.0026 9.11179V20.0774C14.0026 20.1127 13.974 20.1413 13.9386 20.1413H12.0205C11.9852 20.1413 11.9565 20.1127 11.9565 20.0774V9.11179C11.9565 9.07648 11.9852 9.04785 12.0205 9.04785ZM12.0844 9.17573V20.0134H13.8747V9.17573L12.0844 9.17573Z" fill="white"/>
<path d="M16.528 17.8075C16.5536 16.6822 15.0361 15.8681 14.2902 15.6656V13.7155C17.3337 14.3293 18.3077 16.2517 18.3823 17.1362C18.5548 19.1822 17.8196 22.328 13.0114 22.3791C8.20324 22.4303 6.91594 18.9904 6.96922 17.328L8.91935 17.1362C9.12395 19.8472 11.4769 20.4929 13.0114 20.4929C15.6968 20.4929 16.4975 19.1502 16.528 17.8075Z" fill="white"/>
<path fill-rule="evenodd" clip-rule="evenodd" d="M14.2497 13.666C14.2646 13.6539 14.2841 13.649 14.3029 13.6528C17.3709 14.2716 18.3688 16.2148 18.446 17.1308C18.533 18.1622 18.392 19.4777 17.6163 20.5434C16.8384 21.6122 15.4311 22.4174 13.0121 22.4431C10.591 22.4689 9.04854 21.6149 8.11891 20.538C7.19146 19.4635 6.87824 18.172 6.90535 17.326C6.90638 17.2939 6.93105 17.2675 6.963 17.2644L8.91313 17.0726C8.93025 17.0709 8.94733 17.0762 8.96051 17.0872C8.97369 17.0983 8.98185 17.1142 8.98314 17.1314C9.08384 18.4657 9.71141 19.2869 10.5004 19.7769C11.2926 20.2689 12.2515 20.429 13.0115 20.429C14.3441 20.429 15.1977 20.0959 15.7217 19.607C16.2454 19.1184 16.4492 18.4655 16.4642 17.8061C16.4763 17.2738 16.1229 16.806 15.6589 16.4408C15.1966 16.0769 14.6386 15.8264 14.2735 15.7273C14.2456 15.7198 14.2263 15.6945 14.2263 15.6656V13.7155C14.2263 13.6963 14.2349 13.6782 14.2497 13.666ZM14.3542 13.794V15.6172C14.7341 15.7283 15.2808 15.9803 15.738 16.3403C16.2129 16.7141 16.6055 17.216 16.592 17.809C16.5765 18.4923 16.3646 19.1821 15.809 19.7005C15.2536 20.2187 14.3642 20.5569 13.0115 20.5569C12.2369 20.5569 11.252 20.3942 10.433 19.8855C9.62379 19.383 8.98025 18.5448 8.86099 17.2062L7.0319 17.3861C7.02104 18.2033 7.33124 19.4298 8.21571 20.4544C9.11845 21.5002 10.6237 22.3406 13.0108 22.3152C15.4 22.2898 16.7644 21.4965 17.513 20.4681C18.2638 19.4366 18.4042 18.1562 18.3186 17.1416C18.2473 16.2959 17.3126 14.4193 14.3542 13.794Z" fill="white"/>
<path d="M11.6506 15.1311C7.57333 14.0003 7.32516 11.4343 7.96031 9.71936C8.66225 9.98072 8.98814 10.1938 9.39893 10.7417C9.33546 11.662 9.561 12.5817 11.6851 13.1893C11.7127 13.1972 11.7327 13.2225 11.7327 13.2512L11.7327 15.0701C11.7327 15.1121 11.6912 15.1423 11.6506 15.1311Z" fill="white"/>
<path d="M5.69051 15.9853C7.88999 16.2154 9.54813 15.3026 10.0703 14.8977C9.33039 14.5083 8.95563 14.2529 8.37593 13.7148C4.95521 14.8657 2.55751 12.8842 2.39767 10.7103L0.44754 10.9341C0.607387 14.2589 2.94115 15.6975 5.69051 15.9853Z" fill="white"/>
<path fill-rule="evenodd" clip-rule="evenodd" d="M2.43848 10.6611C2.45189 10.6722 2.46019 10.6883 2.46147 10.7057C2.61776 12.8312 4.96779 14.794 8.35557 13.6542C8.37778 13.6468 8.40229 13.652 8.41946 13.668C8.99449 14.2017 9.36449 14.454 10.1001 14.8411C10.1193 14.8512 10.1321 14.8704 10.134 14.8921C10.1359 14.9138 10.1267 14.9349 10.1095 14.9482C9.57756 15.3608 7.90342 16.2812 5.68389 16.0489C4.30095 15.9042 3.01637 15.4694 2.0564 14.6472C1.09474 13.8235 0.464401 12.6156 0.383711 10.9372C0.382094 10.9036 0.406836 10.8745 0.440287 10.8706L2.39041 10.6468C2.40771 10.6449 2.42507 10.65 2.43848 10.6611ZM0.51456 10.9908C0.605609 12.606 1.21838 13.761 2.13959 14.5501C3.07379 15.3503 4.33078 15.7787 5.6972 15.9217C7.77353 16.139 9.3622 15.3276 9.95091 14.9068C9.27635 14.5471 8.90537 14.2905 8.3603 13.7875C4.96003 14.9121 2.54544 12.9692 2.3395 10.7814L0.51456 10.9908Z" fill="white"/>
<path d="M6.71358 7.09777C11.9565 8.17194 11.9885 10.6137 11.6688 12.8516C10.8432 12.6181 10.4826 12.4564 10.0384 11.9884C10.1023 9.87845 7.82185 9.25037 6.71358 9.0479C2.03327 8.35736 0.969759 5.88294 1.05501 4.73204C0.991072 3.38933 1.97573 0.397006 6.1701 0.448157C10.3645 0.499308 11.5409 3.21883 11.5409 4.60416L9.68672 4.70007C9.43097 2.43025 7.38493 2.38829 6.52176 2.33434C4.28391 2.19448 3.00514 3.0057 2.97317 4.70007C2.94542 6.17066 5.44546 6.8953 6.71358 7.09777Z" fill="white"/>
<path fill-rule="evenodd" clip-rule="evenodd" d="M1.96663 2.02636C2.74276 1.10054 4.05664 0.358475 6.17082 0.384258C8.28276 0.410013 9.64276 1.10818 10.4747 1.98178C11.3049 2.85367 11.6048 3.89589 11.6048 4.6042C11.6048 4.63823 11.5782 4.66629 11.5442 4.66805L9.68997 4.76396C9.6562 4.76571 9.62691 4.74086 9.62313 4.70727C9.49792 3.59601 8.93758 3.03654 8.30515 2.74433C7.70953 2.46913 7.04783 2.4298 6.60878 2.4037C6.57724 2.40182 6.54685 2.40001 6.51771 2.39819C5.40551 2.32868 4.5424 2.49647 3.95535 2.88281C3.37203 3.26671 3.05269 3.87205 3.03704 4.70131C3.02394 5.39586 3.60846 5.9283 4.38598 6.31732C5.15815 6.70367 6.09326 6.93402 6.7236 7.03466C6.72408 7.03474 6.72457 7.03483 6.72505 7.03491C6.72549 7.03499 6.72592 7.03508 6.72635 7.03517C9.35518 7.57375 10.6949 8.45848 11.3318 9.5051C11.9679 10.5505 11.892 11.741 11.7321 12.8607C11.7295 12.8789 11.7191 12.8952 11.7036 12.9052C11.6882 12.9153 11.6691 12.9182 11.6514 12.9132C11.238 12.7962 10.9362 12.6961 10.6813 12.5648C10.4248 12.4328 10.218 12.2706 9.99195 12.0325C9.98021 12.0201 9.9739 12.0036 9.97442 11.9865C10.0055 10.9603 9.46872 10.2946 8.78116 9.85682C8.09155 9.41777 7.25484 9.21189 6.70309 9.11102C2.00842 8.41801 0.905005 5.92848 0.990904 4.73125C0.959313 4.04521 1.19429 2.94766 1.96663 2.02636ZM2.06463 2.10851C1.31349 3.00453 1.08754 4.0721 1.11882 4.72904C1.11894 4.73163 1.11891 4.73422 1.11872 4.7368C1.03679 5.84278 2.06293 8.29715 6.72285 8.98468C6.72357 8.98478 6.72429 8.9849 6.72501 8.98503C7.28154 9.08671 8.13858 9.29612 8.84984 9.74895C9.55768 10.1996 10.1256 10.895 10.1029 11.9635C10.3138 12.1828 10.5052 12.3304 10.7398 12.4511C10.9685 12.5689 11.2403 12.6621 11.6157 12.77C11.7678 11.6748 11.82 10.5534 11.2225 9.57158C10.6127 8.56946 9.31528 7.69633 6.70205 7.16072C6.06429 7.05878 5.11612 6.82563 4.32876 6.43168C3.54616 6.04011 2.89454 5.47494 2.90919 4.6989C2.92551 3.83379 3.26154 3.18634 3.88505 2.77599C4.50484 2.3681 5.40005 2.20021 6.52569 2.27056C6.55518 2.27241 6.58615 2.27424 6.61847 2.27615C7.05571 2.30198 7.74017 2.34242 8.35878 2.62825C9.01747 2.93259 9.59915 3.51378 9.743 4.63317L11.4762 4.54352C11.4595 3.8678 11.1649 2.89202 10.382 2.06997C9.57712 1.22469 8.25169 0.537521 6.16926 0.512126C4.08907 0.486758 2.81344 1.21528 2.06463 2.10851Z" fill="white"/>
<path d="M12.0205 2.04608V4.66756H13.9386V3.70849H18.4783C19.4374 3.70848 21.3683 3.88751 21.4195 6.13815C21.471 8.40797 19.5013 9.2072 18.4463 9.2072H14.2903V10.8376C18.3568 10.7353 18.1906 11.0934 19.5333 12.9796L22.2507 17.3274H24.5524L20.5563 10.8696C21.7391 10.3901 23.3696 9.5592 23.3696 6.23406C23.3696 2.3338 20.0767 2.04608 18.3824 2.04608H12.0205Z" fill="white"/>
<path fill-rule="evenodd" clip-rule="evenodd" d="M11.9565 2.04599C11.9565 2.01068 11.9852 1.98206 12.0205 1.98206H18.3824C19.2311 1.98206 20.4918 2.05358 21.5418 2.62114C22.068 2.90559 22.5419 3.31493 22.8839 3.902C23.2257 4.48893 23.4335 5.24977 23.4335 6.23397C23.4335 7.90733 23.023 8.96178 22.4561 9.65918C21.9121 10.3284 21.2296 10.6616 20.6504 10.9001L24.6068 17.2937C24.619 17.3134 24.6196 17.3382 24.6083 17.3584C24.597 17.3787 24.5756 17.3913 24.5524 17.3913H22.2507C22.2286 17.3913 22.2081 17.3799 22.1964 17.3612L19.4801 13.015C19.357 12.8421 19.2472 12.6829 19.1459 12.5362C18.9694 12.2803 18.8189 12.0622 18.6694 11.8745C18.4361 11.5817 18.2109 11.3709 17.905 11.2202C17.5978 11.069 17.2044 10.9759 16.6309 10.9275C16.0573 10.8792 15.3082 10.8759 14.2919 10.9015C14.2747 10.9019 14.258 10.8954 14.2457 10.8833C14.2333 10.8713 14.2264 10.8548 14.2264 10.8376V9.20712C14.2264 9.1718 14.255 9.14318 14.2903 9.14318H18.4463C18.9605 9.14318 19.7026 8.94754 20.3084 8.47342C20.9116 8.00141 21.3808 7.25283 21.3555 6.13952C21.343 5.58618 21.215 5.16438 21.0186 4.84223C20.8222 4.52012 20.5552 4.29413 20.2592 4.13561C19.6648 3.81737 18.9558 3.77234 18.4783 3.77234H14.0026V4.66748C14.0026 4.70279 13.974 4.73142 13.9386 4.73142H12.0205C11.9852 4.73142 11.9565 4.70279 11.9565 4.66748V2.04599ZM12.0844 2.10993V4.60354H13.8747V3.7084C13.8747 3.67309 13.9033 3.64446 13.9386 3.64446H18.4783C18.9598 3.64446 19.6959 3.68894 20.3195 4.02287C20.6325 4.19044 20.9178 4.4312 21.1278 4.77566C21.3378 5.12006 21.4704 5.56463 21.4834 6.13661C21.5097 7.29312 21.0198 8.07906 20.3873 8.57413C19.7574 9.06708 18.9871 9.27106 18.4463 9.27106H14.3542V10.772C15.3382 10.7482 16.0732 10.7522 16.6416 10.8001C17.2226 10.8491 17.634 10.9442 17.9615 11.1055C18.2901 11.2673 18.5292 11.4933 18.7695 11.7949C18.9215 11.9857 19.0762 12.21 19.255 12.469C19.3561 12.6156 19.465 12.7733 19.5854 12.9424C19.5861 12.9435 19.5868 12.9445 19.5875 12.9456L22.2861 17.2634H24.4377L20.5019 10.9032C20.492 10.8871 20.4897 10.8676 20.4955 10.8497C20.5014 10.8318 20.5148 10.8173 20.5323 10.8103C21.1216 10.5714 21.8121 10.2487 22.3569 9.57852C22.9009 8.90931 23.3056 7.88576 23.3056 6.23397C23.3056 5.26805 23.1018 4.53032 22.7734 3.96636C22.4449 3.40254 21.9897 3.00865 21.481 2.73364C20.4609 2.18227 19.2281 2.10993 18.3824 2.10993H12.0844Z" fill="white"/>
<path d="M17.0077 8.8242C14.8657 6.3393 11.0614 7.11351 9.84656 7.75894C10.5073 8.11861 10.831 8.37091 11.3171 8.9201C11.818 8.78157 13.2289 8.49172 14.4821 8.8242H17.0077Z" fill="white"/>
<path fill-rule="evenodd" clip-rule="evenodd" d="M9.98367 7.76145C10.5692 8.08841 10.8883 8.34311 11.3387 8.84798C11.8725 8.70538 13.2536 8.43486 14.4904 8.76023H16.8654C15.8179 7.61698 14.3974 7.21661 13.0778 7.18158C11.7938 7.1475 10.614 7.45976 9.98367 7.76145ZM13.0812 7.05375C14.4631 7.09043 15.9696 7.52193 17.0561 8.78243C17.0725 8.80136 17.0763 8.82808 17.0658 8.85081C17.0554 8.87354 17.0327 8.88811 17.0077 8.88811H14.4821C14.4766 8.88811 14.4711 8.88739 14.4657 8.88597C13.2293 8.55792 11.8318 8.84407 11.3342 8.9817C11.3107 8.98821 11.2855 8.98074 11.2693 8.96245C10.7884 8.41916 10.4706 8.17141 9.81602 7.81507C9.79535 7.80382 9.78254 7.78212 9.78265 7.75859C9.78277 7.73505 9.79581 7.71349 9.81659 7.70245C10.4347 7.37405 11.7006 7.01711 13.0812 7.05375Z" fill="white"/>
<path d="M18.5422 6.77746H13.9519H12.0074H7.4808V4.98718H18.5422V6.77746Z" fill="white"/>
<path fill-rule="evenodd" clip-rule="evenodd" d="M7.41687 4.98722C7.41687 4.95191 7.4455 4.92328 7.48081 4.92328H18.5422C18.5775 4.92328 18.6061 4.95191 18.6061 4.98722V6.7775C18.6061 6.81281 18.5775 6.84144 18.5422 6.84144H7.48081C7.4455 6.84144 7.41687 6.81281 7.41687 6.7775V4.98722ZM7.54475 5.05116V6.71356H18.4782V5.05116H7.54475Z" fill="white"/>
<path d="M16.2084 11.6695L17.8388 11.509C17.1854 11.2402 16.8077 11.1622 16.1125 11.158L16.2084 11.6695Z" fill="white"/>
<path fill-rule="evenodd" clip-rule="evenodd" d="M16.0634 11.117C16.0757 11.1023 16.0938 11.0939 16.1129 11.094C16.8165 11.0983 17.2024 11.178 17.8632 11.4498C17.8903 11.461 17.9064 11.4892 17.9021 11.5183C17.8978 11.5473 17.8743 11.5697 17.8451 11.5726L16.2147 11.7331C16.1817 11.7363 16.1517 11.7138 16.1456 11.6812L16.0496 11.1697C16.0461 11.151 16.0512 11.1316 16.0634 11.117ZM16.1897 11.2227L16.2604 11.6001L17.5686 11.4713C17.0862 11.2915 16.7388 11.2308 16.1897 11.2227Z" fill="white"/>
</svg>
