<svg width="23" height="24" viewBox="0 0 23 24" fill="none" xmlns="http://www.w3.org/2000/svg">
<g clip-path="url(#clip0)">
<path fill-rule="evenodd" clip-rule="evenodd" d="M5.6812 0.000624869C3.64242 -0.0242382 2.32819 0.695786 1.53878 1.63745C0.773305 2.55057 0.53099 3.63714 0.558208 4.34827C0.475464 5.70018 1.70554 8.07793 6.10897 8.72997C6.33964 8.77223 6.61334 8.82846 6.89724 8.91001C6.60845 9.75402 6.51306 10.8134 7.00487 11.8172C7.08956 11.99 7.19043 12.1587 7.30861 12.3224C4.50454 13.1587 2.73838 11.4816 2.61641 9.82282C2.60819 9.711 2.55472 9.60737 2.46836 9.53587C2.382 9.46437 2.27022 9.43117 2.15883 9.44395L0.364809 9.64982C0.149399 9.67454 -0.00992984 9.86208 0.000482357 10.0787C0.0789448 11.7107 0.697135 12.9161 1.6622 13.7427C2.61645 14.5601 3.87433 14.9773 5.19217 15.1152C7.34285 15.3403 8.91248 14.4834 9.45773 14.0605C9.49741 14.0298 9.52992 13.9932 9.55499 13.9529C9.88049 14.0848 10.2374 14.2041 10.6277 14.3092C10.6308 14.3101 10.634 14.3109 10.6371 14.3116C10.6402 14.3124 10.6434 14.3131 10.6465 14.3138V14.3212V14.346V14.3709V14.3956V14.4204V14.4451V14.4697V14.4944V14.5189V14.5435V14.568V14.5925V14.6169V14.6413V14.6656V14.6899V14.7142V14.7384V14.7626V14.7867V14.8108V14.8349V14.8589V14.8829V14.9068V14.9307V14.9545V14.9783V15.002V15.0257V15.0494V15.073V15.0965V15.12V15.1435V15.1669V15.1902V15.2135V15.2368V15.26V15.2831V15.3062V15.3293V15.3523V15.3752V15.3981V15.421V15.4438V15.4665V15.4892V15.5118V15.5344V15.5569V15.5793V15.6018V15.6241V15.6464V15.6686V15.6908V15.7129V15.735V15.757V15.7789V15.8008V15.8226V15.8444V15.8661V15.8877V15.9093V15.9308V15.9523V15.9736V15.995V16.0162V16.0374V16.0586V16.0796V16.1006V16.1216V16.1425V16.1633V16.184V16.2047V16.2253V16.2458V16.2663V16.2867V16.307V16.3273V16.3475V16.3676V16.3877V16.4076V16.4276V16.4474V16.4672V16.4869V16.5065V16.526V16.5455V16.5649V16.5842V16.6035V16.6227V16.6418V16.6608V16.6797V16.6986V16.7174V16.7361V16.7548V16.7733V16.7918V16.8102V16.8285V16.8468V16.865V16.883V16.901V16.919V16.9368V16.9546V16.9722V16.9898V17.0073V17.0248V17.0421V17.0594V17.0765V17.0936V17.1106V17.1276V17.1444V17.1611V17.1778V17.1944V17.2108V17.2272V17.2435V17.2597V17.2759V17.2919V17.3079V17.3237V17.3395V17.3551V17.3707V17.3862V17.4016V17.4169V17.4321V17.4472V17.4623V17.4772V17.492V17.5068V17.5214V17.536V17.5504V17.5648V17.579V17.5932V17.6072V17.6212V17.6351V17.6488V17.6625V17.676V17.6895V17.7029V17.7161V17.7293V17.7424V17.7553V17.7682V17.7809V17.7936V17.8061V17.8186V17.8309V17.8431V17.8552V17.8673V17.8792V17.891V17.9027V17.9143V17.9258V17.9371V17.9484V17.9596V17.9706V17.9816V17.9924V18.0031V18.0137V18.0242V18.0346V18.0449V18.0551V18.0651V18.075V18.0849V18.0946V18.1042V18.1137V18.123V18.1323V18.1414V18.1504V18.1593V18.1681V18.1768V18.1853V18.1938V18.2021V18.2103V18.2184V18.2263V18.2342V18.2419V18.2495V18.25C10.3684 18.1655 10.0959 18.0491 9.84613 17.894C9.21193 17.5001 8.69984 16.844 8.61603 15.7335C8.60769 15.623 8.55515 15.5205 8.4703 15.4492C8.38544 15.3779 8.27544 15.3439 8.16515 15.3547L6.37112 15.5312C6.16536 15.5514 6.00652 15.7211 5.9999 15.9277C5.97233 16.7878 6.28654 18.0641 7.20189 19.1245C8.13131 20.2012 9.6532 21.0242 11.9743 20.9995C14.2817 20.9749 15.6946 20.2015 16.4916 19.1066C17.2738 18.0319 17.4051 16.7249 17.3212 15.7299C17.2355 14.7139 16.1876 12.8135 13.2346 12.2153V10.379C13.6905 10.3686 14.0829 10.3651 14.4236 10.3701L14.5063 10.8112C14.5459 11.0227 14.7417 11.168 14.9556 11.1446L16.5732 10.9682C16.6181 10.9633 16.6605 10.9513 16.6994 10.9336C16.7632 10.9964 16.8267 11.0674 16.8929 11.1484C17.036 11.3237 17.1764 11.5255 17.3521 11.7778L17.3521 11.7779L17.3525 11.7785C17.4349 11.8969 17.5251 12.0266 17.627 12.1698L20.1204 16.1592C20.1956 16.2795 20.3276 16.3527 20.4695 16.3527H22.5871C22.7371 16.3527 22.8752 16.2711 22.9477 16.1397C23.0201 16.0082 23.0153 15.8479 22.9351 15.721L19.4563 10.2145C19.928 9.98981 20.4561 9.66414 20.9008 9.12628C21.5005 8.40102 21.9106 7.33837 21.9106 5.73558C21.9106 4.77972 21.7084 4.016 21.357 3.41265C21.005 2.80842 20.5175 2.38921 19.9852 2.10148C18.9366 1.53468 17.6999 1.4711 16.9109 1.4711H11.0582C10.8308 1.4711 10.6465 1.65544 10.6465 1.88284V2.6705C10.4683 2.29938 10.2212 1.92567 9.89179 1.57979C9.05206 0.697961 7.70554 0.025312 5.6812 0.000624869ZM15.2891 9.58451C14.7607 9.54043 14.0952 9.53586 13.2346 9.55528V8.88247H16.9697C17.5403 8.88247 18.3269 8.6718 18.9728 8.16634C19.636 7.64727 20.1434 6.82112 20.1165 5.638C20.1034 5.06037 19.9685 4.58854 19.7379 4.21028C19.507 3.83169 19.1941 3.56945 18.8596 3.39035C18.2049 3.03983 17.4532 3.00043 16.9991 3.00043H12.8229C12.5955 3.00043 12.4111 3.18478 12.4111 3.41218V4.17684H11.47V2.29459H16.9109C17.6806 2.29459 18.7379 2.36336 19.5936 2.82591C20.0135 3.05286 20.3807 3.37258 20.6454 3.82712C20.9107 4.28253 21.0871 4.89742 21.0871 5.73558C21.0871 7.19177 20.7179 8.05519 20.2662 8.60154C19.8084 9.15521 19.2271 9.43249 18.6973 9.6473C18.5842 9.69313 18.4973 9.78672 18.46 9.90285C18.4226 10.019 18.4387 10.1457 18.5039 10.2488L21.8399 15.5292H20.6977L18.3188 11.7229C18.3144 11.7159 18.3099 11.7091 18.3051 11.7024C18.2162 11.5775 18.1317 11.4562 18.0507 11.3398L18.0506 11.3397L18.0506 11.3397C17.8634 11.0708 17.6944 10.828 17.5307 10.6275C17.2835 10.3249 17.0175 10.0769 16.6465 9.89876C16.2833 9.7243 15.8497 9.63127 15.2891 9.58451ZM13.2346 3.82392V4.17684H17.0579C17.2853 4.17684 17.4697 4.36119 17.4697 4.58858V6.3532C17.4697 6.5806 17.2853 6.76494 17.0579 6.76494H14.4828C15.0176 7.03085 15.5222 7.40204 15.9581 7.9078C15.9973 7.9533 16.0248 8.00492 16.0409 8.05899H16.9697C17.3696 8.05899 17.9743 7.90203 18.4653 7.51784C18.9388 7.14724 19.3138 6.56171 19.2932 5.65671C19.2828 5.19909 19.178 4.87391 19.0347 4.63897C18.8917 4.40435 18.6966 4.2372 18.4708 4.11632C18.0049 3.86686 17.4273 3.82392 16.9991 3.82392H13.2346ZM7.49234 2.84505C7.93372 3.04899 8.33644 3.41729 8.47398 4.17684H6.882C6.6546 4.17684 6.47025 4.36119 6.47025 4.58858V6.17102C6.4007 6.15584 6.33021 6.14093 6.25879 6.12629C6.25589 6.1257 6.25299 6.12514 6.25008 6.12461C6.24834 6.12429 6.24659 6.12398 6.24485 6.12369L6.243 6.12338L6.24107 6.12307C5.68169 6.03375 4.85972 5.82969 4.19284 5.49603C3.49159 5.14517 3.13901 4.74571 3.14683 4.33166C3.15935 3.66774 3.40707 3.22705 3.83279 2.94688C4.28248 2.65093 4.98792 2.49685 5.97401 2.55848C5.99899 2.56004 6.02458 2.56159 6.05072 2.56317C6.46103 2.58799 7.00751 2.62104 7.49234 2.84505ZM8.70255 6.88189C8.61576 6.84208 8.52633 6.80309 8.43419 6.76494H8.88192C8.85584 6.77781 8.83064 6.79071 8.80635 6.80362C8.76676 6.82466 8.73201 6.85123 8.70255 6.88189ZM11.0462 5.94145C11.2138 5.94145 11.358 6.04156 11.4222 6.18523C11.6169 6.17606 11.8155 6.17407 12.0162 6.18049C12.1591 6.18506 12.3039 6.19394 12.4498 6.20767C12.5086 6.05209 12.6589 5.94145 12.8351 5.94145H16.6462V5.00033H7.29374V5.94145H11.0462ZM9.5738 7.3657C10.1435 7.15863 11.0299 6.97284 11.9899 7.00356C13.03 7.03684 14.1064 7.32182 14.9506 8.05899H13.6192C13.5735 7.9397 13.4731 7.84332 13.3402 7.80806C12.0909 7.47663 10.7427 7.70029 10.2426 7.83861C10.2225 7.84418 10.2031 7.85116 10.1846 7.85941C10.0071 7.68624 9.80439 7.5215 9.5738 7.3657ZM11.47 8.47491C11.7598 8.45443 12.0822 8.45109 12.4111 8.48076V18.4258C12.2723 18.4356 12.1254 18.4408 11.97 18.4408C11.8107 18.4408 11.6426 18.4326 11.47 18.4144V18.4115V18.4075V18.4033V18.399V18.3945V18.39V18.3852V18.3804V18.3754V18.3703V18.3651V18.3597V18.3543V18.3487V18.3429V18.3371V18.3311V18.3249V18.3187V18.3123V18.3058V18.2992V18.2925V18.2856V18.2786V18.2715V18.2643V18.2569V18.2495V18.2419V18.2342V18.2263V18.2184V18.2103V18.2021V18.1938V18.1853V18.1768V18.1681V18.1593V18.1504V18.1414V18.1323V18.123V18.1137V18.1042V18.0946V18.0849V18.075V18.0651V18.0551V18.0449V18.0346V18.0242V18.0137V18.0031V17.9924V17.9816V17.9706V17.9596V17.9484V17.9371V17.9258V17.9143V17.9027V17.891V17.8792V17.8673V17.8552V17.8431V17.8309V17.8186V17.8061V17.7936V17.7809V17.7682V17.7553V17.7424V17.7293V17.7161V17.7029V17.6895V17.676V17.6625V17.6488V17.6351V17.6212V17.6072V17.5932V17.579V17.5648V17.5504V17.536V17.5214V17.5068V17.492V17.4772V17.4623V17.4472V17.4321V17.4169V17.4016V17.3862V17.3707V17.3551V17.3395V17.3237V17.3079V17.2919V17.2759V17.2597V17.2435V17.2272V17.2108V17.1944V17.1778V17.1611V17.1444V17.1276V17.1106V17.0936V17.0765V17.0594V17.0421V17.0248V17.0073V16.9898V16.9722V16.9546V16.9368V16.919V16.901V16.883V16.865V16.8468V16.8285V16.8102V16.7918V16.7733V16.7548V16.7361V16.7174V16.6986V16.6797V16.6608V16.6418V16.6227V16.6035V16.5842V16.5649V16.5455V16.526V16.5065V16.4869V16.4672V16.4474V16.4276V16.4076V16.3877V16.3676V16.3475V16.3273V16.307V16.2867V16.2663V16.2458V16.2253V16.2047V16.184V16.1633V16.1425V16.1216V16.1006V16.0796V16.0586V16.0374V16.0162V15.995V15.9736V15.9523V15.9308V15.9093V15.8877V15.8661V15.8444V15.8226V15.8008V15.7789V15.757V15.735V15.7129V15.6908V15.6686V15.6464V15.6241V15.6018V15.5793V15.5569V15.5344V15.5118V15.4892V15.4665V15.4438V15.421V15.3981V15.3752V15.3523V15.3293V15.3062V15.2831V15.26V15.2368V15.2135V15.1902V15.1669V15.1435V15.12V15.0965V15.073V15.0494V15.0257V15.002V14.9783V14.9545V14.9307V14.9068V14.8829V14.8589V14.8349V14.8108V14.7867V14.7626V14.7384V14.7142V14.6899V14.6656V14.6413V14.6169V14.5925V14.568V14.5435V14.5189V14.4944V14.4697V14.4451V14.4204V14.3956V14.3709V14.346V14.3212V14.2963V14.2714V14.2464V14.2215V14.1964V14.1714V14.1463V14.1212V14.096V14.0708V14.0456V14.0204V13.9951V13.9698V13.9444V13.9191V13.8937V13.8682V13.8428V13.8173V13.7918V13.7662V13.7407V13.7151V13.6895V13.6638V13.6381V13.6124V13.5867V13.561V13.5352V13.5094V13.4836V13.4577V13.4319V13.406V13.3801V13.3541V13.3282V13.3022V13.2762V13.2502V13.2242V13.1981V13.1721V13.146V13.1199V13.0938V13.0676V13.0415V13.0153V12.9891V12.9629V12.9367V12.9104V12.8842V12.8579V12.8317V12.8054V12.7791V12.7528V12.7264V12.7001V12.6738V12.6474V12.621V12.5946V12.5683V12.5419V12.5154V12.489V12.4626V12.4362V12.4097V12.3833V12.3568V12.3304V12.3039V12.2774V12.251V12.2245V12.198V12.1715V12.145V12.1185V12.092V12.0655V12.039V12.0125V11.986V11.9595V11.933V11.9065V11.88V11.8535V11.827V11.8005V11.774V11.7475V11.721V11.6945V11.668V11.6415V11.615V11.5885V11.5621V11.5356V11.5091V11.4827V11.4562V11.4298V11.4033V11.3769V11.3505V11.3241V11.2977V11.2713V11.2449V11.2185V11.1922V11.1658V11.1395V11.1132V11.0868V11.0605V11.0342V11.008V10.9817V10.9555V10.9292V10.903V10.8768V10.8506V10.8244V10.7983V10.7721V10.746V10.7199V10.6938V10.6677V10.6417V10.6156V10.5896V10.5636V10.5376V10.5117V10.4857V10.4598V10.4339V10.4081V10.3822V10.3564V10.3306V10.3048V10.2791V10.2533V10.2276V10.2019V10.1763V10.1507V10.1251V10.0995V10.0739V10.0484V10.0229V9.99744V9.97201V9.9466V9.92122V9.89587V9.87055V9.84526V9.82V9.79478V9.76958V9.74442V9.71929V9.69419V9.66913V9.6441V9.6191V9.59414V9.56921V9.54432V9.51946V9.49464V9.46986V9.44511V9.4204V9.39573V9.37109V9.34649V9.32194V9.29742V9.27294V9.2485V9.2241V9.19974V9.17542V9.15114V9.12691V9.10271V9.07856V9.05445V9.03039V9.00637V8.98239V8.95846V8.93457V8.91073V8.88694V8.86318V8.83948V8.81582V8.79221V8.76865V8.74513V8.72167V8.69825V8.67488V8.65156V8.62829V8.60507V8.58191V8.55879V8.53572V8.51271V8.48975V8.47491ZM10.3472 11.5614C10.4762 10.5936 10.4904 9.7165 10.0242 8.96219C9.53918 8.17743 8.46334 7.41986 6.10215 6.9348C5.49494 6.83708 4.58889 6.615 3.82437 6.23248C3.09039 5.86524 2.30577 5.25494 2.32349 4.31613C2.34037 3.42131 2.69556 2.70949 3.38008 2.25899C4.04062 1.82428 4.95274 1.66956 6.02537 1.7366C6.05284 1.73831 6.08231 1.74002 6.1136 1.74184L6.11372 1.74184L6.11377 1.74185C6.51184 1.76492 7.20485 1.80508 7.83774 2.09751C8.47766 2.39317 9.04318 2.93876 9.2567 3.89373L10.17 3.84649C10.0828 3.3392 9.82476 2.70353 9.29544 2.14767C8.62937 1.44821 7.50543 0.846419 5.67116 0.82405C3.85131 0.801856 2.78332 1.4347 2.16985 2.16648C1.54136 2.9162 1.35683 3.80898 1.38182 4.33372C1.38261 4.35039 1.38239 4.36708 1.38116 4.38372C1.32416 5.15322 2.06184 7.30045 6.23625 7.91635C6.23904 7.91676 6.24184 7.9172 6.24462 7.91767C6.24647 7.91798 6.24831 7.91831 6.25015 7.91864C6.76458 8.01262 7.60873 8.19163 8.3224 8.62173C9.05607 9.06389 9.68149 9.79447 9.64637 10.9537C9.64388 11.0357 9.61757 11.1114 9.57426 11.1743C9.75557 11.3039 10.0044 11.4353 10.3472 11.5614ZM8.31355 9.64024C8.19056 9.52245 8.05005 9.41907 7.89734 9.32703C7.82293 9.28219 7.74619 9.24048 7.66788 9.20165C7.43287 9.90297 7.38154 10.7143 7.74437 11.4548C8.11029 12.2017 8.93969 12.9619 10.6465 13.4593V13.4577V13.4319V13.406V13.3801V13.3541V13.3282V13.3022V13.2762V13.2502V13.2242V13.1981V13.1721V13.146V13.1199V13.0938V13.0676V13.0415V13.0153V12.9891V12.9629V12.9367V12.9104V12.8842V12.8579V12.8317V12.8054V12.7791V12.7528V12.7264V12.7001V12.6738V12.6474V12.621V12.5946V12.5683V12.5419V12.5198C10.6389 12.5181 10.6313 12.5162 10.6237 12.5141C9.58994 12.2245 8.94814 11.8447 8.58841 11.3536C8.22041 10.8512 8.20446 10.3091 8.23584 9.85409C8.24137 9.77393 8.26949 9.70072 8.31355 9.64024ZM7.77796 13.0372C7.82411 13.0217 7.8657 12.9988 7.90184 12.9703C8.14095 13.1803 8.41817 13.3775 8.73677 13.5592C8.16374 13.9186 6.92071 14.4681 5.27788 14.2962C4.06644 14.1694 2.98622 13.7925 2.1979 13.1173C1.49211 12.5128 0.99125 11.6448 0.853568 10.4226L1.85274 10.308C2.27172 12.4188 4.61749 14.1006 7.77796 13.0372ZM13.2346 18.2937C13.6807 18.1731 13.9984 17.9886 14.2225 17.7795C14.6161 17.4122 14.7812 16.9133 14.7934 16.3727C14.8008 16.0507 14.5839 15.7143 14.1872 15.402C13.8789 15.1593 13.517 14.9766 13.2346 14.8724V18.2937ZM13.2346 14.0094C13.2411 14.0108 13.2477 14.0125 13.2542 14.0142C13.6477 14.121 14.2188 14.3789 14.6966 14.7549C15.1636 15.1226 15.6329 15.6782 15.6167 16.3914C15.6009 17.0861 15.3836 17.8224 14.7843 18.3816C14.187 18.9389 13.27 19.2643 11.97 19.2643C11.217 19.2643 10.2393 19.1075 9.41168 18.5935C8.65234 18.122 8.04032 17.3607 7.84561 16.2136L6.83562 16.3129C6.89845 16.9695 7.18116 17.8403 7.82526 18.5864C8.58154 19.4626 9.86342 20.1984 11.9656 20.176C14.0815 20.1535 15.2184 19.4564 15.8258 18.622C16.4479 17.7674 16.5754 16.6863 16.5006 15.7991C16.4502 15.2018 15.7385 13.6245 13.2346 13.0575V14.0094Z" fill="black"/>
<path fill-rule="evenodd" clip-rule="evenodd" d="M5.67681 0.353383C3.73186 0.329664 2.52316 1.01233 1.80916 1.86404C1.09864 2.71159 0.882474 3.72128 0.911537 4.3524C0.832514 5.4538 1.8476 7.74404 6.16647 8.38159C6.6756 8.47463 7.44513 8.64236 8.07943 9.02462C8.71127 9.40541 9.20453 9.99569 9.17593 10.9393C9.17495 10.9717 9.20048 10.9989 9.23295 10.9998C9.26542 11.0008 9.29254 10.9753 9.29352 10.9428C9.32375 9.94535 8.79745 9.32 8.14015 8.92387C7.4857 8.52946 6.69708 8.35894 6.18664 8.26568C6.18598 8.26556 6.18531 8.26545 6.18465 8.26535C1.89775 7.63286 0.953751 5.37496 1.02912 4.35751C1.02929 4.35514 1.02932 4.35275 1.02921 4.35037C1.00043 3.74602 1.2083 2.76391 1.89931 1.93961C2.58818 1.11789 3.7617 0.447678 5.67537 0.471015C7.59111 0.494378 8.81044 1.12654 9.55093 1.90416C10.2711 2.6604 10.5421 3.55807 10.5575 4.1797L8.96304 4.26218C8.8307 3.23239 8.29559 2.69772 7.68963 2.41775C7.12053 2.1548 6.49086 2.1176 6.08863 2.09383C6.0589 2.09207 6.03041 2.09039 6.00327 2.08869C4.96773 2.02397 4.14419 2.17842 3.57401 2.55366C3.00041 2.93116 2.69128 3.52678 2.67626 4.32265C2.66279 5.03656 3.26225 5.5565 3.9822 5.91672C4.70654 6.27913 5.57881 6.49362 6.16552 6.5874C8.56997 7.08021 9.76349 7.86908 10.3243 8.77651C10.8858 9.68496 10.8234 10.7274 10.6764 11.7562C10.6718 11.7884 10.6942 11.8182 10.7263 11.8228C10.7585 11.8274 10.7883 11.805 10.7929 11.7729C10.94 10.7429 11.0099 9.66199 10.4244 8.71466C9.83836 7.76645 8.60586 6.96729 6.18787 6.4719L6.1867 6.47167L6.18534 6.47144C5.60545 6.37885 4.7452 6.16693 4.03484 5.81151C3.31956 5.45363 2.78183 4.96381 2.79388 4.32487C2.80828 3.56199 3.10205 3.0051 3.63869 2.65193C4.17874 2.29651 4.97276 2.14216 5.99594 2.20611C6.02274 2.20778 6.0507 2.20944 6.07971 2.21117C6.48362 2.23518 7.09235 2.27137 7.64029 2.52454C8.2221 2.79336 8.73758 3.30804 8.85277 4.33034C8.85625 4.36125 8.88319 4.3841 8.91425 4.3825L10.62 4.29427C10.6513 4.29265 10.6758 4.26683 10.6758 4.23553C10.6758 3.58392 10.3999 2.62512 9.63613 1.82303C8.87082 1.01936 7.61969 0.377077 5.67681 0.353383ZM11.117 8.35295C11.117 8.32047 11.0906 8.29413 11.0582 8.29413C11.0257 8.29413 10.9993 8.32047 10.9993 8.35295V8.37559V8.39829V8.42104V8.44384V8.4667V8.48961V8.51257V8.53558V8.55865V8.58177V8.60494V8.62815V8.65142V8.67474V8.69811V8.72153V8.745V8.76851V8.79207V8.81568V8.83934V8.86305V8.8868V8.91059V8.93443V8.95832V8.98226V9.00623V9.03025V9.05432V9.07842V9.10258V9.12677V9.151V9.17528V9.1996V9.22396V9.24836V9.2728V9.29728V9.3218V9.34636V9.37095V9.39559V9.42026V9.44497V9.46972V9.4945V9.51932V9.54418V9.56907V9.594V9.61896V9.64396V9.66899V9.69405V9.71915V9.74428V9.76944V9.79464V9.81987V9.84512V9.87041V9.89573V9.92108V9.94646V9.97187V9.9973V10.0228V10.0483V10.0738V10.0993V10.1249V10.1505V10.1761V10.2018V10.2275V10.2532V10.2789V10.3047V10.3305V10.3563V10.3821V10.4079V10.4338V10.4597V10.4856V10.5115V10.5375V10.5635V10.5895V10.6155V10.6415V10.6676V10.6936V10.7197V10.7458V10.772V10.7981V10.8243V10.8505V10.8766V10.9029V10.9291V10.9553V10.9816V11.0078V11.0341V11.0604V11.0867V11.113V11.1393V11.1657V11.192V11.2184V11.2448V11.2712V11.2976V11.324V11.3504V11.3768V11.4032V11.4296V11.4561V11.4825V11.509V11.5355V11.5619V11.5884V11.6149V11.6414V11.6678V11.6943V11.7208V11.7473V11.7738V11.8003V11.8268V11.8533V11.8798V11.9063V11.9328V11.9594V11.9859V12.0124V12.0389V12.0654V12.0919V12.1184V12.1449V12.1714V12.1979V12.2243V12.2508V12.2773V12.3038V12.3302V12.3567V12.3831V12.4096V12.436V12.4625V12.4889V12.5153V12.5417V12.5681V12.5945V12.6209V12.6473V12.6736V12.7V12.7263V12.7526V12.7789V12.8052V12.8315V12.8578V12.8841V12.9103V12.9365V12.9628V12.989V13.0152V13.0413V13.0675V13.0936V13.1197V13.1458V13.1719V13.198V13.224V13.2501V13.2761V13.3021V13.3281V13.354V13.3799V13.4058V13.4317V13.4576V13.4834V13.5093V13.535V13.5608V13.5866V13.6123V13.638V13.6637V13.6893V13.7149V13.7405V13.7661V13.7916V13.8172V13.8426V13.8681V13.8935V13.9189V13.9443V13.9696V13.995V14.0202V14.0455V14.0707V14.0959V14.121V14.1462V14.1712V14.1963V14.2213V14.2463V14.2713V14.2962V14.3211V14.3459V14.3707V14.3955V14.4202V14.4449V14.4696V14.4942V14.5188V14.5434V14.5679V14.5923V14.6168V14.6411V14.6655V14.6898V14.7141V14.7383V14.7625V14.7866V14.8107V14.8348V14.8588V14.8827V14.9067V14.9305V14.9544V14.9781V15.0019V15.0256V15.0492V15.0728V15.0964V15.1199V15.1433V15.1667V15.1901V15.2134V15.2366V15.2598V15.283V15.3061V15.3292V15.3522V15.3751V15.398V15.4208V15.4436V15.4664V15.489V15.5117V15.5342V15.5568V15.5792V15.6016V15.624V15.6462V15.6685V15.6907V15.7128V15.7348V15.7568V15.7788V15.8007V15.8225V15.8442V15.8659V15.8876V15.9091V15.9307V15.9521V15.9735V15.9948V16.0161V16.0373V16.0584V16.0795V16.1005V16.1214V16.1423V16.1631V16.1839V16.2045V16.2251V16.2457V16.2662V16.2866V16.3069V16.3271V16.3473V16.3675V16.3875V16.4075V16.4274V16.4473V16.467V16.4867V16.5063V16.5259V16.5454V16.5648V16.5841V16.6033V16.6225V16.6416V16.6606V16.6796V16.6985V16.7173V16.736V16.7546V16.7732V16.7917V16.8101V16.8284V16.8466V16.8648V16.8829V16.9009V16.9188V16.9367V16.9544V16.9721V16.9897V17.0072V17.0246V17.042V17.0592V17.0764V17.0935V17.1105V17.1274V17.1442V17.161V17.1776V17.1942V17.2107V17.2271V17.2434V17.2596V17.2757V17.2918V17.3077V17.3236V17.3393V17.355V17.3706V17.3861V17.4015V17.4168V17.432V17.4471V17.4621V17.4771V17.4919V17.5066V17.5213V17.5358V17.5503V17.5646V17.5789V17.593V17.6071V17.6211V17.6349V17.6487V17.6623V17.6759V17.6894V17.7027V17.716V17.7292V17.7422V17.7552V17.768V17.7808V17.7934V17.806V17.8184V17.8308V17.843V17.8551V17.8671V17.879V17.8908V17.9025V17.9141V17.9256V17.937V17.9483V17.9594V17.9705V17.9814V17.9923V18.003V18.0136V18.0241V18.0345V18.0448V18.0549V18.065V18.0749V18.0847V18.0944V18.104V18.1135V18.1229V18.1321V18.1413V18.1503V18.1592V18.168V18.1767V18.1852V18.1936V18.202V18.2101V18.2182V18.2262V18.234V18.2417V18.2493V18.2568V18.2642V18.2714V18.2785V18.2855V18.2924V18.2991V18.3057V18.3122V18.3186V18.3248V18.3309V18.3369V18.3428V18.3485V18.3541V18.3596V18.365V18.3702V18.3753V18.3803V18.3851V18.3898V18.3944V18.3988V18.4032V18.4074V18.4114V18.4153V18.4191V18.4228V18.4263V18.4297V18.433V18.4361V18.4391V18.4419V18.4447V18.4472V18.4497V18.452V18.4542V18.4562V18.4581V18.4599V18.4615V18.463V18.4643V18.4655V18.4666V18.4675V18.4683V18.4689V18.4694V18.4698V18.47C10.9993 18.47 10.9993 18.4701 11.0582 18.4701H10.9993C10.9993 18.5026 11.0257 18.5289 11.0582 18.5289C11.0906 18.5289 11.117 18.5026 11.117 18.4701H11.0582C11.117 18.4701 11.117 18.47 11.117 18.47V18.4698V18.4694V18.4689V18.4683V18.4675V18.4666V18.4655V18.4643V18.463V18.4615V18.4599V18.4581V18.4562V18.4542V18.452V18.4497V18.4472V18.4447V18.4419V18.4391V18.4361V18.433V18.4297V18.4263V18.4228V18.4191V18.4153V18.4114V18.4074V18.4032V18.3988V18.3944V18.3898V18.3851V18.3803V18.3753V18.3702V18.365V18.3596V18.3541V18.3485V18.3428V18.3369V18.3309V18.3248V18.3186V18.3122V18.3057V18.2991V18.2924V18.2855V18.2785V18.2714V18.2642V18.2568V18.2493V18.2417V18.234V18.2262V18.2182V18.2101V18.202V18.1936V18.1852V18.1767V18.168V18.1592V18.1503V18.1413V18.1321V18.1229V18.1135V18.104V18.0944V18.0847V18.0749V18.065V18.0549V18.0448V18.0345V18.0241V18.0136V18.003V17.9923V17.9814V17.9705V17.9594V17.9483V17.937V17.9256V17.9141V17.9025V17.8908V17.879V17.8671V17.8551V17.843V17.8308V17.8184V17.806V17.7934V17.7808V17.768V17.7552V17.7422V17.7292V17.716V17.7027V17.6894V17.6759V17.6623V17.6487V17.6349V17.6211V17.6071V17.593V17.5789V17.5646V17.5503V17.5358V17.5213V17.5066V17.4919V17.4771V17.4621V17.4471V17.432V17.4168V17.4015V17.3861V17.3706V17.355V17.3393V17.3236V17.3077V17.2918V17.2757V17.2596V17.2434V17.2271V17.2107V17.1942V17.1776V17.161V17.1442V17.1274V17.1105V17.0935V17.0764V17.0592V17.042V17.0246V17.0072V16.9897V16.9721V16.9544V16.9367V16.9188V16.9009V16.8829V16.8648V16.8466V16.8284V16.8101V16.7917V16.7732V16.7546V16.736V16.7173V16.6985V16.6796V16.6606V16.6416V16.6225V16.6033V16.5841V16.5648V16.5454V16.5259V16.5063V16.4867V16.467V16.4473V16.4274V16.4075V16.3875V16.3675V16.3473V16.3271V16.3069V16.2866V16.2662V16.2457V16.2251V16.2045V16.1839V16.1631V16.1423V16.1214V16.1005V16.0795V16.0584V16.0373V16.0161V15.9948V15.9735V15.9521V15.9307V15.9091V15.8876V15.8659V15.8442V15.8225V15.8007V15.7788V15.7568V15.7348V15.7128V15.6907V15.6685V15.6462V15.624V15.6016V15.5792V15.5568V15.5342V15.5117V15.489V15.4664V15.4436V15.4208V15.398V15.3751V15.3522V15.3292V15.3061V15.283V15.2598V15.2366V15.2134V15.1901V15.1667V15.1433V15.1199V15.0964V15.0728V15.0492V15.0256V15.0019V14.9781V14.9544V14.9305V14.9067V14.8827V14.8588V14.8348V14.8107V14.7866V14.7625V14.7383V14.7141V14.6898V14.6655V14.6411V14.6168V14.5923V14.5679V14.5434V14.5188V14.4942V14.4696V14.4449V14.4202V14.3955V14.3707V14.3459V14.3211V14.2962V14.2713V14.2463V14.2213V14.1963V14.1712V14.1462V14.121V14.0959V14.0707V14.0455V14.0202V13.995V13.9696V13.9443V13.9189V13.8935V13.8681V13.8426V13.8172V13.7916V13.7661V13.7405V13.7149V13.6893V13.6637V13.638V13.6123V13.5866V13.5608V13.535V13.5093V13.4834V13.4576V13.4317V13.4058V13.3799V13.354V13.3281V13.3021V13.2761V13.2501V13.224V13.198V13.1719V13.1458V13.1197V13.0936V13.0675V13.0413V13.0152V12.989V12.9628V12.9365V12.9103V12.8841V12.8578V12.8315V12.8052V12.7789V12.7526V12.7263V12.7V12.6736V12.6473V12.6209V12.5945V12.5681V12.5417V12.5153V12.4889V12.4625V12.436V12.4096V12.3831V12.3567V12.3302V12.3038V12.2773V12.2508V12.2243V12.1979V12.1714V12.1449V12.1184V12.0919V12.0654V12.0389V12.0124V11.9859V11.9594V11.9328V11.9063V11.8798V11.8533V11.8268V11.8003V11.7738V11.7473V11.7208V11.6943V11.6678V11.6414V11.6149V11.5884V11.5619V11.5355V11.509V11.4825V11.4561V11.4296V11.4032V11.3768V11.3504V11.324V11.2976V11.2712V11.2448V11.2184V11.192V11.1657V11.1393V11.113V11.0867V11.0604V11.0341V11.0078V10.9816V10.9553V10.9291V10.9029V10.8766V10.8505V10.8243V10.7981V10.772V10.7458V10.7197V10.6936V10.6676V10.6415V10.6155V10.5895V10.5635V10.5375V10.5115V10.4856V10.4597V10.4338V10.4079V10.3821V10.3563V10.3305V10.3047V10.2789V10.2532V10.2275V10.2018V10.1761V10.1505V10.1249V10.0993V10.0738V10.0483V10.0228V9.9973V9.97187V9.94646V9.92108V9.89573V9.87041V9.84512V9.81987V9.79464V9.76944V9.74428V9.71915V9.69405V9.66899V9.64396V9.61896V9.594V9.56907V9.54418V9.51932V9.4945V9.46972V9.44497V9.42026V9.39559V9.37095V9.34636V9.3218V9.29728V9.2728V9.24836V9.22396V9.1996V9.17528V9.151V9.12677V9.10258V9.07842V9.05432V9.03025V9.00623V8.98226V8.95832V8.93443V8.91059V8.8868V8.86305V8.83934V8.81568V8.79207V8.76851V8.745V8.72153V8.69811V8.67474V8.65142V8.62815V8.60494V8.58177V8.55865V8.53558V8.51257V8.48961V8.4667V8.44384V8.42104V8.39829V8.37559V8.35295ZM12.8816 8.38228C12.8816 8.34979 12.8553 8.32346 12.8228 8.32346C12.7903 8.32346 12.764 8.34979 12.764 8.38228V18.4701C12.764 18.5026 12.7903 18.5289 12.8228 18.5289C12.8553 18.5289 12.8816 18.5026 12.8816 18.4701V8.38228ZM13.1579 12.5598C13.1261 12.5534 13.095 12.574 13.0886 12.6058C13.0822 12.6376 13.1028 12.6687 13.1347 12.6751C15.9119 13.2352 16.786 14.9846 16.8522 15.7693C16.9309 16.7027 16.8018 17.8806 16.111 18.8295C15.4224 19.7756 14.1672 20.5054 11.9692 20.5288C9.77324 20.5521 8.3885 19.779 7.55802 18.8169C6.74435 17.8743 6.45898 16.746 6.46897 15.9942L8.15165 15.8287C8.26136 17.0602 8.85338 17.8313 9.59779 18.2936C10.3513 18.7615 11.2573 18.9112 11.9699 18.9112C13.2144 18.9112 14.0326 18.6 14.5435 18.1234C15.0546 17.6465 15.2495 17.0119 15.2638 16.3833C15.2762 15.8377 14.915 15.376 14.4782 15.0321C14.0398 14.687 13.512 14.4498 13.1617 14.3547C13.1303 14.3462 13.098 14.3647 13.0895 14.396C13.081 14.4274 13.0995 14.4597 13.1309 14.4682C13.4668 14.5594 13.9801 14.7898 14.4054 15.1246C14.8322 15.4605 15.1573 15.8909 15.1462 16.3806C15.1324 16.9872 14.945 17.5879 14.4632 18.0374C13.9811 18.4871 13.1958 18.7936 11.9699 18.7936C11.2708 18.7936 10.3886 18.6462 9.65985 18.1936C8.93399 17.7429 8.35666 16.9874 8.26402 15.7599C8.26283 15.7441 8.25532 15.7295 8.2432 15.7193C8.23108 15.7091 8.21536 15.7042 8.19961 15.7058L6.40559 15.8822C6.37619 15.8851 6.3535 15.9094 6.35255 15.9389C6.32761 16.7172 6.61576 17.9054 7.46897 18.8938C8.32418 19.8845 9.74321 20.6701 11.9705 20.6464C14.1958 20.6227 15.4904 19.882 16.2062 18.8988C16.9198 17.9184 17.0494 16.7082 16.9694 15.7594C16.8983 14.9167 15.9804 13.129 13.1579 12.5598ZM8.65057 9.8236C8.68298 9.82584 8.70744 9.85392 8.7052 9.88633C8.67608 10.3087 8.70048 10.7102 8.96795 11.0754C9.23661 11.4422 9.75834 11.7829 10.7505 12.0608C10.7818 12.0696 10.8001 12.102 10.7913 12.1333C10.7825 12.1646 10.7501 12.1829 10.7188 12.1741C9.71622 11.8932 9.16447 11.5428 8.87304 11.1449C8.58044 10.7454 8.55815 10.3088 8.58784 9.87824C8.59008 9.84583 8.61816 9.82137 8.65057 9.8236ZM7.37823 8.96159C7.38951 8.93112 7.37396 8.89728 7.3435 8.886C7.31303 8.87472 7.27919 8.89026 7.26791 8.92073C6.97026 9.72437 6.86389 10.7273 7.32171 11.6617C7.78006 12.5972 8.79737 13.4508 10.7194 13.9683C10.7507 13.9767 10.783 13.9581 10.7915 13.9268C10.7999 13.8954 10.7813 13.8631 10.7499 13.8547C8.84861 13.3428 7.86602 12.5053 7.42736 11.61C6.98817 10.7136 7.08767 9.7461 7.37823 8.96159ZM2.2432 9.80757C2.25554 9.81778 2.26318 9.83259 2.26435 9.84856C2.40824 11.8055 4.5128 13.6391 7.62782 12.5911C7.65861 12.5807 7.69197 12.5973 7.70233 12.6281C7.71269 12.6589 7.69612 12.6922 7.66534 12.7026C4.51826 13.7614 2.34098 11.9371 2.15213 9.91823L0.473288 10.1109C0.557048 11.5967 1.12077 12.6593 1.96823 13.3852C2.82766 14.1213 3.98402 14.5155 5.24106 14.6471C7.2463 14.8569 8.69817 14.0539 9.16927 13.6885C9.19494 13.6686 9.23189 13.6733 9.2518 13.699C9.27171 13.7246 9.26704 13.7616 9.24137 13.7815C8.75173 14.1612 7.27042 14.9777 5.22882 14.7641C3.95658 14.6309 2.77483 14.231 1.8917 13.4746C1.00703 12.7168 0.427144 11.6056 0.352913 10.0616C0.351426 10.0306 0.374187 10.0038 0.40496 10.0003L2.19898 9.79444C2.2149 9.79261 2.23086 9.79735 2.2432 9.80757ZM10.9993 1.88271C10.9993 1.85022 11.0257 1.82389 11.0582 1.82389H16.9108C17.6915 1.82389 18.8514 1.88969 19.8173 2.41181C20.3014 2.67349 20.7374 3.05007 21.0519 3.59014C21.3664 4.13009 21.5576 4.83002 21.5576 5.73544C21.5576 7.27485 21.18 8.24489 20.6584 8.88647C20.158 9.50211 19.5301 9.80865 18.9973 10.0281L22.637 15.9098C22.6482 15.928 22.6487 15.9508 22.6384 15.9694C22.628 15.9881 22.6083 15.9996 22.587 15.9996H20.4694C20.4492 15.9996 20.4303 15.9892 20.4196 15.972L17.9206 11.9737C17.8231 11.8367 17.7343 11.7091 17.6515 11.5901C17.4705 11.3301 17.3181 11.111 17.1661 10.925C16.9462 10.6558 16.7317 10.4616 16.4427 10.3228C16.1526 10.1834 15.7831 10.0978 15.2499 10.0533C14.7167 10.0088 14.0239 10.0058 13.0889 10.0293C13.0565 10.0301 13.0295 10.0045 13.0287 9.97199C13.0278 9.93952 13.0535 9.91253 13.086 9.91171C14.0215 9.88818 14.7198 9.89103 15.2597 9.93607C15.7997 9.98111 16.1853 10.0686 16.4936 10.2167C16.8031 10.3654 17.0305 10.573 17.2573 10.8506C17.4121 11.0402 17.5686 11.2651 17.7512 11.5273L17.7512 11.5274L17.7513 11.5275C17.8339 11.6462 17.9219 11.7726 18.0175 11.9069C18.0182 11.9078 18.0188 11.9088 18.0194 11.9098L20.502 15.882H22.4814L18.8607 10.0309C18.8516 10.0161 18.8494 9.99813 18.8548 9.98166C18.8602 9.96519 18.8725 9.95192 18.8886 9.94541C19.4307 9.72563 20.066 9.4288 20.5672 8.81226C21.0676 8.19663 21.44 7.25501 21.44 5.73544C21.44 4.84684 21.2525 4.16817 20.9503 3.64935C20.6482 3.13066 20.2294 2.7683 19.7614 2.5153C18.823 2.00807 17.6888 1.94153 16.9108 1.94153H11.117V4.29434C11.117 4.32683 11.0906 4.35316 11.0582 4.35316C11.0257 4.35316 10.9993 4.32683 10.9993 4.29434V1.88271ZM12.8228 3.35322C12.7903 3.35322 12.764 3.37955 12.764 3.41204V4.29434C12.764 4.32683 12.7903 4.35316 12.8228 4.35316C12.8553 4.35316 12.8816 4.32683 12.8816 4.29434V3.47086H16.999C17.4383 3.47086 18.0906 3.51228 18.6374 3.80505C18.9097 3.95088 19.1553 4.15879 19.336 4.4551C19.5167 4.75147 19.6344 5.1395 19.646 5.64855C19.6692 6.67275 19.2375 7.3614 18.6827 7.79563C18.1254 8.2318 17.4427 8.41177 16.9696 8.41177H13.0875C13.055 8.41177 13.0286 8.43811 13.0286 8.47059C13.0286 8.50308 13.055 8.52941 13.0875 8.52941H16.9696C17.4671 8.52941 18.1757 8.34176 18.7552 7.88827C19.3371 7.43284 19.7878 6.70981 19.7636 5.64588C19.7516 5.11968 19.6296 4.7107 19.4364 4.39386C19.2432 4.07698 18.9808 3.85549 18.6929 3.70134C18.1191 3.39414 17.442 3.35322 16.999 3.35322H12.8228ZM13.2194 8.26275C12.0803 7.96054 10.8231 8.16611 10.368 8.292C10.3367 8.30066 10.3043 8.2823 10.2956 8.25099C10.287 8.21968 10.3053 8.18728 10.3366 8.17862C10.803 8.04962 12.083 7.83953 13.2496 8.14905C13.281 8.15738 13.2997 8.18958 13.2914 8.22098C13.283 8.25238 13.2508 8.27108 13.2194 8.26275ZM9.02705 7.21904C9.5756 6.9276 10.7342 6.61014 12.0011 6.65068C13.2667 6.69118 14.6307 7.08851 15.6016 8.2149C15.6228 8.2395 15.66 8.24225 15.6846 8.22104C15.7092 8.19983 15.7119 8.16269 15.6907 8.13809C14.6911 6.97848 13.2906 6.57424 12.0048 6.53309C10.7204 6.49199 9.54089 6.81283 8.97185 7.11515C8.94316 7.13039 8.93226 7.166 8.9475 7.19469C8.96275 7.22338 8.99836 7.23428 9.02705 7.21904ZM6.82309 4.58845C6.82309 4.55596 6.84943 4.52963 6.88191 4.52963H17.0578C17.0903 4.52963 17.1167 4.55596 17.1167 4.58845V6.35306C17.1167 6.38554 17.0903 6.41188 17.0578 6.41188H12.835C12.8025 6.41188 12.7762 6.38554 12.7762 6.35306C12.7762 6.32057 12.8025 6.29424 12.835 6.29424H16.999V4.64727H6.94073V6.29424H11.0461C11.0786 6.29424 11.1049 6.32057 11.1049 6.35306C11.1049 6.38554 11.0786 6.41188 11.0461 6.41188H6.88191C6.84943 6.41188 6.82309 6.38554 6.82309 6.35306V4.58845ZM14.8805 10.2538C14.8745 10.2218 14.8438 10.2008 14.8118 10.2068C14.7799 10.2128 14.7589 10.2435 14.7649 10.2755L14.8531 10.746C14.8587 10.776 14.8863 10.7967 14.9167 10.7937L16.4166 10.6461C16.4489 10.6429 16.4725 10.6141 16.4694 10.5818C16.4662 10.5494 16.4374 10.5258 16.4051 10.529L14.9588 10.6714L14.8805 10.2538Z" fill="white"/>
<path d="M11.0582 18.4701C10.9993 18.4701 10.9993 18.47 10.9993 18.47V18.4698V18.4694V18.4689V18.4683V18.4675V18.4666V18.4655V18.4643V18.463V18.4615V18.4599V18.4581V18.4562V18.4542V18.452V18.4497V18.4472V18.4447V18.4419V18.4391V18.4361V18.433V18.4297V18.4263V18.4228V18.4191V18.4153V18.4114V18.4074V18.4032V18.3988V18.3944V18.3898V18.3851V18.3803V18.3753V18.3702V18.365V18.3596V18.3541V18.3485V18.3428V18.3369V18.3309V18.3248V18.3186V18.3122V18.3057V18.2991V18.2924V18.2855V18.2785V18.2714V18.2642V18.2568V18.2493V18.2417V18.234V18.2262V18.2182V18.2101V18.202V18.1936V18.1852V18.1767V18.168V18.1592V18.1503V18.1413V18.1321V18.1229V18.1135V18.104V18.0944V18.0847V18.0749V18.065V18.0549V18.0448V18.0345V18.0241V18.0136V18.003V17.9923V17.9814V17.9705V17.9594V17.9483V17.937V17.9256V17.9141V17.9025V17.8908V17.879V17.8671V17.8551V17.843V17.8308V17.8184V17.806V17.7934V17.7808V17.768V17.7552V17.7422V17.7292V17.716V17.7027V17.6894V17.6759V17.6623V17.6487V17.6349V17.6211V17.6071V17.593V17.5789V17.5646V17.5503V17.5358V17.5213V17.5066V17.4919V17.4771V17.4621V17.4471V17.432V17.4168V17.4015V17.3861V17.3706V17.355V17.3393V17.3236V17.3077V17.2918V17.2757V17.2596V17.2434V17.2271V17.2107V17.1942V17.1776V17.161V17.1442V17.1274V17.1105V17.0935V17.0764V17.0592V17.042V17.0246V17.0072V16.9897V16.9721V16.9544V16.9367V16.9188V16.9009V16.8829V16.8648V16.8466V16.8284V16.8101V16.7917V16.7732V16.7546V16.736V16.7173V16.6985V16.6796V16.6606V16.6416V16.6225V16.6033V16.5841V16.5648V16.5454V16.5259V16.5063V16.4867V16.467V16.4473V16.4274V16.4075V16.3875V16.3675V16.3473V16.3271V16.3069V16.2866V16.2662V16.2457V16.2251V16.2045V16.1839V16.1631V16.1423V16.1214V16.1005V16.0795V16.0584V16.0373V16.0161V15.9948V15.9735V15.9521V15.9307V15.9091V15.8876V15.8659V15.8442V15.8225V15.8007V15.7788V15.7568V15.7348V15.7128V15.6907V15.6685V15.6463V15.624V15.6016V15.5792V15.5568V15.5342V15.5117V15.489V15.4664V15.4436V15.4208V15.398V15.3751V15.3522V15.3292V15.3061V15.283V15.2598V15.2366V15.2134V15.1901V15.1667V15.1433V15.1199V15.0964V15.0728V15.0492V15.0256V15.0019V14.9781V14.9544V14.9305V14.9067V14.8827V14.8588V14.8348V14.8107V14.7866V14.7625V14.7383V14.7141V14.6898V14.6655V14.6411V14.6168V14.5923V14.5679V14.5434V14.5188V14.4942V14.4696V14.4449V14.4202V14.3955V14.3707V14.3459V14.3211V14.2962V14.2713V14.2463V14.2213V14.1963V14.1712V14.1462V14.121V14.0959V14.0707V14.0455V14.0202V13.995V13.9696V13.9443V13.9189V13.8935V13.8681V13.8426V13.8172V13.7916V13.7661V13.7405V13.7149V13.6893V13.6637V13.638V13.6123V13.5866V13.5608V13.535V13.5093V13.4834V13.4576V13.4317V13.4058V13.3799V13.354V13.3281V13.3021V13.2761V13.2501V13.224V13.198V13.1719V13.1458V13.1197V13.0936V13.0675V13.0413V13.0152V12.989V12.9628V12.9365V12.9103V12.8841V12.8578V12.8315V12.8052V12.7789V12.7526V12.7263V12.7V12.6736V12.6473V12.6209V12.5945V12.5681V12.5417V12.5153V12.4889V12.4625V12.436V12.4096V12.3831V12.3567V12.3302V12.3038V12.2773V12.2508V12.2243V12.1979V12.1714V12.1449V12.1184V12.0919V12.0654V12.0389V12.0124V11.9859V11.9594V11.9328V11.9063V11.8798V11.8533V11.8268V11.8003V11.7738V11.7473V11.7208V11.6943V11.6678V11.6414V11.6149V11.5884V11.5619V11.5355V11.509V11.4825V11.4561V11.4296V11.4032V11.3768V11.3504V11.324V11.2976V11.2712V11.2448V11.2184V11.192V11.1657V11.1394V11.113V11.0867V11.0604V11.0341V11.0078V10.9816V10.9553V10.9291V10.9029V10.8766V10.8505V10.8243V10.7981V10.772V10.7458V10.7197V10.6936V10.6676V10.6415V10.6155V10.5895V10.5635V10.5375V10.5115V10.4856V10.4597V10.4338V10.4079V10.3821V10.3563V10.3304V10.3047V10.2789V10.2532V10.2275V10.2018V10.1761V10.1505V10.1249V10.0993V10.0738V10.0483V10.0228V9.9973V9.97187V9.94646V9.92108V9.89573V9.87041V9.84512V9.81987V9.79464V9.76944V9.74428V9.71915V9.69405V9.66899V9.64396V9.61896V9.594V9.56907V9.54418V9.51932V9.4945V9.46972V9.44497V9.42026V9.39559V9.37095V9.34636V9.3218V9.29728V9.2728V9.24836V9.22396V9.1996V9.17528V9.151V9.12677V9.10258V9.07842V9.05432V9.03025V9.00623V8.98226V8.95832V8.93444V8.91059V8.8868V8.86305V8.83934V8.81568V8.79207V8.76851V8.745V8.72153V8.69811V8.67474V8.65142V8.62815V8.60494V8.58177V8.55865V8.53558V8.51257V8.48961V8.4667V8.44384V8.42104V8.39829V8.37559V8.35295C10.9993 8.32047 11.0257 8.29413 11.0582 8.29413C11.0906 8.29413 11.117 8.32047 11.117 8.35295V8.37559V8.39829V8.42104V8.44384V8.4667V8.48961V8.51257V8.53558V8.55865V8.58177V8.60494V8.62815V8.65142V8.67474V8.69811V8.72153V8.745V8.76851V8.79207V8.81568V8.83934V8.86305V8.8868V8.91059V8.93444V8.95832V8.98226V9.00623V9.03025V9.05432V9.07842V9.10258V9.12677V9.151V9.17528V9.1996V9.22396V9.24836V9.2728V9.29728V9.3218V9.34636V9.37095V9.39559V9.42026V9.44497V9.46972V9.4945V9.51932V9.54418V9.56907V9.594V9.61896V9.64396V9.66899V9.69405V9.71915V9.74428V9.76944V9.79464V9.81987V9.84512V9.87041V9.89573V9.92108V9.94646V9.97187V9.9973V10.0228V10.0483V10.0738V10.0993V10.1249V10.1505V10.1761V10.2018V10.2275V10.2532V10.2789V10.3047V10.3304V10.3563V10.3821V10.4079V10.4338V10.4597V10.4856V10.5115V10.5375V10.5635V10.5895V10.6155V10.6415V10.6676V10.6936V10.7197V10.7458V10.772V10.7981V10.8243V10.8505V10.8766V10.9029V10.9291V10.9553V10.9816V11.0078V11.0341V11.0604V11.0867V11.113V11.1394V11.1657V11.192V11.2184V11.2448V11.2712V11.2976V11.324V11.3504V11.3768V11.4032V11.4296V11.4561V11.4825V11.509V11.5355V11.5619V11.5884V11.6149V11.6414V11.6678V11.6943V11.7208V11.7473V11.7738V11.8003V11.8268V11.8533V11.8798V11.9063V11.9328V11.9594V11.9859V12.0124V12.0389V12.0654V12.0919V12.1184V12.1449V12.1714V12.1979V12.2243V12.2508V12.2773V12.3038V12.3302V12.3567V12.3831V12.4096V12.436V12.4625V12.4889V12.5153V12.5417V12.5681V12.5945V12.6209V12.6473V12.6736V12.7V12.7263V12.7526V12.7789V12.8052V12.8315V12.8578V12.8841V12.9103V12.9365V12.9628V12.989V13.0152V13.0413V13.0675V13.0936V13.1197V13.1458V13.1719V13.198V13.224V13.2501V13.2761V13.3021V13.3281V13.354V13.3799V13.4058V13.4317V13.4576V13.4834V13.5093V13.535V13.5608V13.5866V13.6123V13.638V13.6637V13.6893V13.7149V13.7405V13.7661V13.7916V13.8172V13.8426V13.8681V13.8935V13.9189V13.9443V13.9696V13.995V14.0202V14.0455V14.0707V14.0959V14.121V14.1462V14.1712V14.1963V14.2213V14.2463V14.2713V14.2962V14.3211V14.3459V14.3707V14.3955V14.4202V14.4449V14.4696V14.4942V14.5188V14.5434V14.5679V14.5923V14.6168V14.6411V14.6655V14.6898V14.7141V14.7383V14.7625V14.7866V14.8107V14.8348V14.8588V14.8827V14.9067V14.9305V14.9544V14.9781V15.0019V15.0256V15.0492V15.0728V15.0964V15.1199V15.1433V15.1667V15.1901V15.2134V15.2366V15.2598V15.283V15.3061V15.3292V15.3522V15.3751V15.398V15.4208V15.4436V15.4664V15.489V15.5117V15.5342V15.5568V15.5792V15.6016V15.624V15.6463V15.6685V15.6907V15.7128V15.7348V15.7568V15.7788V15.8007V15.8225V15.8442V15.8659V15.8876V15.9091V15.9307V15.9521V15.9735V15.9948V16.0161V16.0373V16.0584V16.0795V16.1005V16.1214V16.1423V16.1631V16.1839V16.2045V16.2251V16.2457V16.2662V16.2866V16.3069V16.3271V16.3473V16.3675V16.3875V16.4075V16.4274V16.4473V16.467V16.4867V16.5063V16.5259V16.5454V16.5648V16.5841V16.6033V16.6225V16.6416V16.6606V16.6796V16.6985V16.7173V16.736V16.7546V16.7732V16.7917V16.8101V16.8284V16.8466V16.8648V16.8829V16.9009V16.9188V16.9367V16.9544V16.9721V16.9897V17.0072V17.0246V17.042V17.0592V17.0764V17.0935V17.1105V17.1274V17.1442V17.161V17.1776V17.1942V17.2107V17.2271V17.2434V17.2596V17.2757V17.2918V17.3077V17.3236V17.3393V17.355V17.3706V17.3861V17.4015V17.4168V17.432V17.4471V17.4621V17.4771V17.4919V17.5066V17.5213V17.5358V17.5503V17.5646V17.5789V17.593V17.6071V17.6211V17.6349V17.6487V17.6623V17.6759V17.6894V17.7027V17.716V17.7292V17.7422V17.7552V17.768V17.7808V17.7934V17.806V17.8184V17.8308V17.843V17.8551V17.8671V17.879V17.8908V17.9025V17.9141V17.9256V17.937V17.9483V17.9594V17.9705V17.9814V17.9923V18.003V18.0136V18.0241V18.0345V18.0448V18.0549V18.065V18.0749V18.0847V18.0944V18.104V18.1135V18.1229V18.1321V18.1413V18.1503V18.1592V18.168V18.1767V18.1852V18.1936V18.202V18.2101V18.2182V18.2262V18.234V18.2417V18.2493V18.2568V18.2642V18.2714V18.2785V18.2855V18.2924V18.2991V18.3057V18.3122V18.3186V18.3248V18.3309V18.3369V18.3428V18.3485V18.3541V18.3596V18.365V18.3702V18.3753V18.3803V18.3851V18.3898V18.3944V18.3988V18.4032V18.4074V18.4114V18.4153V18.4191V18.4228V18.4263V18.4297V18.433V18.4361V18.4391V18.4419V18.4447V18.4472V18.4497V18.452V18.4542V18.4562V18.4581V18.4599V18.4615V18.463V18.4643V18.4655V18.4666V18.4675V18.4683V18.4689V18.4694V18.4698V18.47C11.117 18.47 11.117 18.4701 11.0582 18.4701ZM11.0582 18.4701H10.9993C10.9993 18.5025 11.0257 18.5289 11.0582 18.5289C11.0906 18.5289 11.117 18.5025 11.117 18.4701H11.0582ZM1.80916 1.86404C2.52316 1.01233 3.73186 0.329664 5.67681 0.353383C7.61969 0.377077 8.87082 1.01936 9.63613 1.82303C10.3999 2.62512 10.6758 3.58392 10.6758 4.23553C10.6758 4.26683 10.6513 4.29265 10.62 4.29427L8.91425 4.3825C8.88319 4.3841 8.85625 4.36125 8.85276 4.33034C8.73758 3.30804 8.2221 2.79336 7.64029 2.52454C7.09235 2.27137 6.48362 2.23518 6.07971 2.21117C6.0507 2.20944 6.02274 2.20778 5.99594 2.20611C4.97276 2.14216 4.17874 2.29651 3.63869 2.65193C3.10205 3.0051 2.80828 3.56199 2.79388 4.32486C2.78183 4.96381 3.31956 5.45363 4.03484 5.81151C4.74521 6.16693 5.60546 6.37885 6.18534 6.47144L6.1867 6.47167L6.18787 6.4719C8.60586 6.96729 9.83836 7.76645 10.4244 8.71466C11.0099 9.66199 10.94 10.7429 10.7929 11.7729C10.7883 11.805 10.7585 11.8274 10.7263 11.8228C10.6942 11.8182 10.6718 11.7884 10.6764 11.7562C10.8234 10.7274 10.8858 9.68496 10.3243 8.77651C9.76349 7.86908 8.56997 7.08021 6.16552 6.5874C5.57881 6.49362 4.70654 6.27913 3.9822 5.91672C3.26225 5.5565 2.66279 5.03656 2.67626 4.32265C2.69128 3.52678 3.00041 2.93116 3.57401 2.55366C4.14419 2.17842 4.96773 2.02397 6.00327 2.08869C6.03041 2.09039 6.0589 2.09207 6.08863 2.09383C6.49086 2.1176 7.12053 2.1548 7.68963 2.41775C8.29559 2.69772 8.8307 3.23239 8.96304 4.26218L10.5575 4.1797C10.5421 3.55807 10.2711 2.6604 9.55094 1.90416C8.81044 1.12654 7.59111 0.494378 5.67537 0.471015C3.7617 0.447678 2.58818 1.11789 1.89931 1.93961C1.2083 2.76391 1.00043 3.74602 1.02921 4.35037C1.02932 4.35275 1.02929 4.35514 1.02912 4.35751C0.953751 5.37496 1.89775 7.63286 6.18465 8.26535C6.18531 8.26545 6.18598 8.26556 6.18664 8.26568C6.69708 8.35894 7.4857 8.52946 8.14015 8.92387C8.79745 9.32 9.32375 9.94535 9.29352 10.9428C9.29254 10.9753 9.26542 11.0008 9.23295 10.9998C9.20048 10.9989 9.17495 10.9717 9.17593 10.9393C9.20453 9.99569 8.71127 9.40541 8.07943 9.02462C7.44513 8.64236 6.6756 8.47463 6.16647 8.38159C1.8476 7.74404 0.832514 5.4538 0.911537 4.3524C0.882474 3.72128 1.09864 2.71159 1.80916 1.86404ZM12.8228 8.32346C12.8553 8.32346 12.8816 8.34979 12.8816 8.38228V18.4701C12.8816 18.5025 12.8553 18.5289 12.8228 18.5289C12.7903 18.5289 12.764 18.5025 12.764 18.4701V8.38228C12.764 8.34979 12.7903 8.32346 12.8228 8.32346ZM13.0886 12.6058C13.095 12.574 13.1261 12.5534 13.1579 12.5598C15.9804 13.129 16.8983 14.9167 16.9694 15.7594C17.0494 16.7082 16.9198 17.9184 16.2062 18.8988C15.4905 19.882 14.1958 20.6227 11.9705 20.6464C9.74321 20.6701 8.32418 19.8845 7.46897 18.8938C6.61576 17.9054 6.32761 16.7172 6.35255 15.9389C6.3535 15.9094 6.37619 15.8851 6.40559 15.8822L8.19961 15.7058C8.21537 15.7042 8.23108 15.7091 8.2432 15.7193C8.25532 15.7295 8.26283 15.7441 8.26402 15.7599C8.35666 16.9874 8.93399 17.7429 9.65985 18.1936C10.3886 18.6462 11.2708 18.7936 11.9699 18.7936C13.1958 18.7936 13.9811 18.4871 14.4632 18.0374C14.945 17.5879 15.1324 16.9872 15.1462 16.3806C15.1573 15.8909 14.8322 15.4605 14.4054 15.1246C13.9801 14.7898 13.4668 14.5594 13.1309 14.4682C13.0995 14.4597 13.081 14.4274 13.0895 14.396C13.098 14.3647 13.1303 14.3462 13.1617 14.3547C13.512 14.4498 14.0398 14.687 14.4782 15.0321C14.915 15.376 15.2762 15.8377 15.2638 16.3833C15.2495 17.0119 15.0546 17.6465 14.5435 18.1234C14.0326 18.6 13.2144 18.9112 11.9699 18.9112C11.2573 18.9112 10.3513 18.7615 9.59779 18.2936C8.85338 17.8313 8.26136 17.0602 8.15165 15.8287L6.46897 15.9942C6.45898 16.746 6.74435 17.8743 7.55802 18.8169C8.3885 19.779 9.77324 20.5521 11.9692 20.5288C14.1672 20.5054 15.4224 19.7756 16.111 18.8295C16.8018 17.8806 16.9309 16.7027 16.8522 15.7693C16.786 14.9846 15.9119 13.2352 13.1347 12.6751C13.1028 12.6687 13.0822 12.6376 13.0886 12.6058ZM8.7052 9.88633C8.70744 9.85392 8.68298 9.82584 8.65057 9.8236C8.61816 9.82137 8.59008 9.84583 8.58784 9.87824C8.55815 10.3088 8.58044 10.7454 8.87305 11.1449C9.16447 11.5428 9.71622 11.8932 10.7188 12.1741C10.7501 12.1829 10.7825 12.1646 10.7913 12.1333C10.8001 12.102 10.7818 12.0696 10.7505 12.0608C9.75834 11.7829 9.23661 11.4422 8.96795 11.0754C8.70048 10.7102 8.67608 10.3087 8.7052 9.88633ZM7.3435 8.886C7.37396 8.89728 7.38951 8.93112 7.37823 8.96159C7.08767 9.7461 6.98817 10.7136 7.42736 11.61C7.86602 12.5053 8.84861 13.3428 10.7499 13.8547C10.7813 13.8631 10.7999 13.8954 10.7915 13.9268C10.783 13.9581 10.7507 13.9767 10.7194 13.9683C8.79737 13.4508 7.78006 12.5972 7.32171 11.6617C6.86389 10.7273 6.97026 9.72437 7.26791 8.92073C7.27919 8.89026 7.31303 8.87472 7.3435 8.886ZM2.26435 9.84856C2.26318 9.83259 2.25554 9.81778 2.2432 9.80757C2.23086 9.79735 2.2149 9.79261 2.19898 9.79444L0.40496 10.0003C0.374187 10.0038 0.351426 10.0306 0.352913 10.0616C0.427144 11.6056 1.00703 12.7168 1.8917 13.4746C2.77483 14.231 3.95658 14.6309 5.22882 14.7641C7.27042 14.9777 8.75173 14.1612 9.24137 13.7815C9.26704 13.7616 9.27171 13.7246 9.2518 13.699C9.23189 13.6733 9.19494 13.6686 9.16927 13.6885C8.69817 14.0539 7.2463 14.8569 5.24106 14.6471C3.98402 14.5155 2.82766 14.1213 1.96823 13.3852C1.12077 12.6593 0.557048 11.5967 0.473288 10.1109L2.15213 9.91823C2.34098 11.9371 4.51826 13.7614 7.66534 12.7026C7.69612 12.6922 7.71269 12.6589 7.70233 12.6281C7.69197 12.5973 7.65861 12.5807 7.62782 12.5911C4.5128 13.6391 2.40824 11.8055 2.26435 9.84856ZM11.0582 1.82389C11.0257 1.82389 10.9993 1.85022 10.9993 1.88271V4.29434C10.9993 4.32683 11.0257 4.35316 11.0582 4.35316C11.0906 4.35316 11.117 4.32683 11.117 4.29434V1.94153H16.9108C17.6888 1.94153 18.823 2.00807 19.7614 2.5153C20.2294 2.7683 20.6482 3.13066 20.9503 3.64935C21.2525 4.16817 21.44 4.84684 21.44 5.73544C21.44 7.25501 21.0676 8.19663 20.5672 8.81226C20.066 9.4288 19.4307 9.72563 18.8886 9.94541C18.8725 9.95192 18.8602 9.96519 18.8548 9.98166C18.8494 9.99813 18.8516 10.0161 18.8607 10.0309L22.4814 15.882H20.502L18.0194 11.9098C18.0188 11.9088 18.0182 11.9078 18.0175 11.9069C17.9219 11.7726 17.8339 11.6462 17.7513 11.5275L17.7512 11.5274L17.7512 11.5273C17.5686 11.2651 17.4121 11.0402 17.2573 10.8506C17.0305 10.573 16.8031 10.3654 16.4936 10.2167C16.1853 10.0686 15.7997 9.98111 15.2597 9.93607C14.7198 9.89103 14.0215 9.88818 13.086 9.91171C13.0535 9.91253 13.0278 9.93952 13.0287 9.97199C13.0295 10.0045 13.0565 10.0301 13.0889 10.0293C14.0239 10.0058 14.7167 10.0088 15.2499 10.0533C15.7831 10.0978 16.1526 10.1834 16.4427 10.3228C16.7317 10.4616 16.9462 10.6558 17.1661 10.925C17.3181 11.111 17.4705 11.3301 17.6515 11.5901C17.7343 11.7091 17.8231 11.8367 17.9206 11.9737L20.4196 15.972C20.4303 15.9892 20.4491 15.9996 20.4694 15.9996H22.587C22.6083 15.9996 22.628 15.9881 22.6384 15.9694C22.6487 15.9508 22.6482 15.928 22.637 15.9098L18.9973 10.0281C19.5301 9.80865 20.158 9.50211 20.6584 8.88647C21.18 8.24489 21.5576 7.27485 21.5576 5.73544C21.5576 4.83002 21.3664 4.13009 21.0519 3.59014C20.7374 3.05007 20.3014 2.67349 19.8173 2.41181C18.8514 1.88969 17.6915 1.82389 16.9108 1.82389H11.0582ZM12.764 3.41204C12.764 3.37955 12.7903 3.35322 12.8228 3.35322H16.999C17.442 3.35322 18.1191 3.39414 18.6929 3.70134C18.9808 3.85549 19.2432 4.07698 19.4364 4.39386C19.6296 4.7107 19.7516 5.11968 19.7636 5.64588C19.7878 6.70981 19.3371 7.43284 18.7552 7.88827C18.1757 8.34176 17.4671 8.52941 16.9696 8.52941H13.0875C13.055 8.52941 13.0286 8.50308 13.0286 8.47059C13.0286 8.43811 13.055 8.41177 13.0875 8.41177H16.9696C17.4427 8.41177 18.1254 8.2318 18.6827 7.79563C19.2375 7.3614 19.6692 6.67275 19.646 5.64855C19.6344 5.1395 19.5167 4.75147 19.336 4.4551C19.1553 4.15879 18.9097 3.95088 18.6374 3.80505C18.0906 3.51228 17.4383 3.47086 16.999 3.47086H12.8816V4.29434C12.8816 4.32683 12.8553 4.35316 12.8228 4.35316C12.7903 4.35316 12.764 4.32683 12.764 4.29434V3.41204ZM10.368 8.292C10.8231 8.16611 12.0803 7.96054 13.2194 8.26275C13.2508 8.27108 13.283 8.25238 13.2914 8.22098C13.2997 8.18958 13.281 8.15738 13.2496 8.14905C12.083 7.83953 10.803 8.04962 10.3366 8.17862C10.3053 8.18728 10.287 8.21968 10.2956 8.25099C10.3043 8.2823 10.3367 8.30066 10.368 8.292ZM12.0011 6.65068C10.7342 6.61014 9.5756 6.9276 9.02705 7.21904C8.99836 7.23428 8.96275 7.22338 8.9475 7.19469C8.93226 7.166 8.94316 7.13039 8.97185 7.11515C9.54089 6.81283 10.7204 6.49199 12.0048 6.53309C13.2906 6.57424 14.6911 6.97848 15.6907 8.13809C15.7119 8.16269 15.7092 8.19983 15.6846 8.22104C15.66 8.24225 15.6228 8.2395 15.6016 8.2149C14.6307 7.08851 13.2667 6.69118 12.0011 6.65068ZM6.88191 4.52963C6.84943 4.52963 6.82309 4.55596 6.82309 4.58845V6.35306C6.82309 6.38554 6.84943 6.41188 6.88191 6.41188H11.0461C11.0786 6.41188 11.1049 6.38554 11.1049 6.35306C11.1049 6.32057 11.0786 6.29424 11.0461 6.29424H6.94073V4.64727H16.999V6.29424H12.835C12.8025 6.29424 12.7762 6.32057 12.7762 6.35306C12.7762 6.38554 12.8025 6.41188 12.835 6.41188H17.0578C17.0903 6.41188 17.1167 6.38554 17.1167 6.35306V4.58845C17.1167 4.55596 17.0903 4.52963 17.0578 4.52963H6.88191ZM14.8118 10.2068C14.8438 10.2008 14.8745 10.2218 14.8805 10.2538L14.9588 10.6714L16.4051 10.529C16.4374 10.5258 16.4662 10.5494 16.4694 10.5818C16.4725 10.6141 16.4489 10.6429 16.4166 10.6461L14.9167 10.7937C14.8863 10.7967 14.8587 10.776 14.8531 10.746L14.7649 10.2755C14.7589 10.2435 14.7799 10.2128 14.8118 10.2068Z" stroke="white" stroke-width="0.2" stroke-linecap="round" stroke-linejoin="round"/>
</g>
<defs>
<clipPath id="clip0">
<rect width="22.3636" height="24" fill="white"/>
</clipPath>
</defs>
</svg>
