<svg width="149" height="136" viewBox="0 0 149 136" fill="none" xmlns="http://www.w3.org/2000/svg">
<path fill-rule="evenodd" clip-rule="evenodd" d="M35.7999 0.519859C22.8649 0.362116 14.8264 4.90218 10.078 10.5665C5.35266 16.2032 3.91502 22.9181 4.1083 27.1155C3.58276 34.4403 10.3336 49.6717 39.0564 53.9117C42.4423 54.5305 47.5601 55.6459 51.7785 58.1882C55.9807 60.7206 59.2611 64.6463 59.0709 70.9216C59.0644 71.1376 59.2341 71.3179 59.4501 71.3245C59.666 71.331 59.8464 71.1613 59.8529 70.9453C60.054 64.3115 56.5538 60.1526 52.1824 57.5181C47.83 54.8951 42.5852 53.761 39.1905 53.1408C39.1861 53.14 39.1817 53.1393 39.1773 53.1387C10.6671 48.9322 4.38905 33.916 4.89027 27.1494C4.89144 27.1336 4.89165 27.1178 4.8909 27.1019C4.69951 23.0827 6.08191 16.5511 10.6775 11.0691C15.2588 5.6042 23.0634 1.14697 35.7903 1.30217C48.531 1.45755 56.6402 5.66174 61.5649 10.8333C66.3542 15.8628 68.157 21.8328 68.259 25.9669L57.655 26.5154C56.775 19.6668 53.2162 16.111 49.1862 14.249C45.4014 12.5002 41.2138 12.2528 38.5387 12.0948C38.341 12.0831 38.1515 12.0719 37.971 12.0606C31.0842 11.6302 25.6072 12.6573 21.8152 15.1529C18.0004 17.6634 15.9445 21.6246 15.8447 26.9176C15.7551 31.6655 19.7418 35.1233 24.5298 37.519C29.3471 39.9292 35.1481 41.3557 39.0501 41.9794C55.0409 45.2568 62.9785 50.5032 66.7084 56.5381C70.4426 62.5798 70.0274 69.5128 69.0499 76.3548C69.0194 76.5686 69.168 76.7668 69.3819 76.7973C69.5957 76.8279 69.7939 76.6793 69.8244 76.4654C70.8029 69.6158 71.2679 62.427 67.3739 56.1267C63.4764 49.8207 55.2796 44.5058 39.1987 41.2112L39.1909 41.2097L39.1819 41.2081C35.3253 40.5924 29.6042 39.183 24.8799 36.8193C20.123 34.4392 16.5467 31.1817 16.6269 26.9323C16.7226 21.8588 18.6764 18.1552 22.2453 15.8064C25.8369 13.4427 31.1176 12.4162 37.9222 12.8414C38.1005 12.8526 38.2864 12.8636 38.4794 12.8751C41.1656 13.0348 45.214 13.2755 48.858 14.9592C52.7274 16.747 56.1556 20.1699 56.9217 26.9687C56.9448 27.1743 57.124 27.3263 57.3306 27.3156L68.675 26.7288C68.8829 26.7181 69.046 26.5464 69.046 26.3382C69.046 22.0046 67.2111 15.6281 62.1314 10.2938C57.0418 4.94895 48.7211 0.677435 35.7999 0.519859ZM71.9799 53.7212C71.9799 53.5052 71.8048 53.33 71.5887 53.33C71.3727 53.33 71.1975 53.5052 71.1975 53.7212V53.8718V54.0227V54.174V54.3257V54.4777V54.6301V54.7828V54.9358V55.0892V55.243V55.397V55.5515V55.7062V55.8613V56.0167V56.1725V56.3285V56.4849V56.6416V56.7986V56.956V57.1136V57.2716V57.4298V57.5884V57.7473V57.9064V58.0659V58.2256V58.3857V58.546V58.7066V58.8675V59.0287V59.1901V59.3519V59.5139V59.6762V59.8387V60.0015V60.1646V60.3279V60.4915V60.6553V60.8194V60.9837V61.1483V61.3132V61.4782V61.6435V61.8091V61.9749V62.1409V62.3071V62.4736V62.6403V62.8072V62.9743V63.1417V63.3092V63.477V63.645V63.8131V63.9815V64.1501V64.3189V64.4879V64.657V64.8264V64.9959V65.1657V65.3356V65.5057V65.676V65.8464V66.017V66.1878V66.3588V66.5299V66.7012V66.8726V67.0442V67.216V67.3879V67.5599V67.7321V67.9045V68.077V68.2496V68.4223V68.5952V68.7683V68.9414V69.1147V69.2881V69.4616V69.6352V69.809V69.9829V70.1568V70.3309V70.5051V70.6794V70.8538V71.0283V71.2029V71.3776V71.5523V71.7272V71.9021V72.0771V72.2523V72.4274V72.6027V72.778V72.9534V73.1289V73.3044V73.48V73.6556V73.8313V74.0071V74.1829V74.3587V74.5346V74.7106V74.8865V75.0626V75.2386V75.4147V75.5908V75.767V75.9432V76.1193V76.2956V76.4718V76.648V76.8243V77.0006V77.1769V77.3531V77.5294V77.7057V77.882V78.0583V78.2345V78.4108V78.5871V78.7633V78.9395V79.1157V79.2919V79.468V79.6441V79.8202V79.9962V80.1722V80.3482V80.5241V80.7V80.8759V81.0517V81.2274V81.4031V81.5787V81.7543V81.9298V82.1052V82.2806V82.4559V82.6311V82.8063V82.9814V83.1564V83.3313V83.5061V83.6809V83.8555V84.0301V84.2045V84.3789V84.5532V84.7273V84.9014V85.0753V85.2492V85.4229V85.5965V85.77V85.9434V86.1166V86.2897V86.4627V86.6356V86.8083V86.9809V87.1533V87.3256V87.4978V87.6698V87.8416V88.0133V88.1849V88.3563V88.5275V88.6986V88.8695V89.0403V89.2108V89.3812V89.5515V89.7215V89.8914V90.0611V90.2306V90.3999V90.569V90.7379V90.9066V91.0752V91.2435V91.4116V91.5796V91.7473V91.9148V92.082V92.2491V92.416V92.5826V92.749V92.9152V93.0811V93.2468V93.4123V93.5776V93.7426V93.9073V94.0718V94.2361V94.4001V94.5639V94.7274V94.8907V95.0537V95.2164V95.3789V95.5411V95.703V95.8646V96.026V96.1871V96.3479V96.5085V96.6687V96.8287V96.9884V97.1477V97.3068V97.4656V97.6241V97.7822V97.9401V98.0977V98.2549V98.4118V98.5685V98.7248V98.8807V99.0364V99.1917V99.3467V99.5014V99.6557V99.8097V99.9633V100.117V100.27V100.422V100.574V100.726V100.878V101.029V101.18V101.33V101.481V101.63V101.78V101.929V102.077V102.226V102.373V102.521V102.668V102.815V102.961V103.107V103.252V103.398V103.542V103.687V103.83V103.974V104.117V104.26V104.402V104.544V104.685V104.826V104.967V105.107V105.247V105.386V105.525V105.663V105.801V105.938V106.075V106.212V106.348V106.484V106.619V106.754V106.888V107.022V107.155V107.288V107.421V107.553V107.684V107.815V107.946V108.076V108.205V108.334V108.463V108.591V108.718V108.845V108.972V109.098V109.223V109.348V109.473V109.597V109.72V109.843V109.966V110.087V110.209V110.33V110.45V110.57V110.689V110.807V110.926V111.043V111.16V111.277V111.393V111.508V111.623V111.737V111.85V111.964V112.076V112.188V112.299V112.41V112.52V112.63V112.739V112.847V112.955V113.062V113.169V113.275V113.381V113.485V113.59V113.693V113.796V113.899V114V114.102V114.202V114.302V114.401V114.5V114.598V114.695V114.792V114.888V114.984V115.078V115.173V115.266V115.359V115.451V115.543V115.634V115.724V115.813V115.902V115.99V116.078V116.165V116.251V116.336V116.421V116.505V116.589V116.672V116.754V116.835V116.916V116.996V117.075V117.153V117.231V117.308V117.385V117.46V117.535V117.609V117.683V117.756V117.828V117.899V117.97V118.039V118.108V118.177V118.244V118.311V118.377V118.443V118.507V118.571V118.634V118.696V118.758V118.819V118.879V118.938V118.996V119.054V119.111V119.167V119.222V119.277V119.331V119.383V119.436V119.487V119.537V119.587V119.636V119.684V119.731V119.778V119.823V119.868V119.912V119.955V119.998V120.039V120.08V120.12V120.159V120.197V120.234V120.271V120.306V120.341V120.375V120.408V120.44V120.472V120.502V120.532V120.56V120.588V120.615V120.641V120.667V120.691V120.714V120.737V120.759V120.779V120.799V120.818V120.836V120.854V120.87V120.885V120.9V120.913V120.926V120.938V120.948V120.958V120.967V120.975V120.982V120.988V120.994V120.998V121.001V121.003V121.005C71.1975 121.005 71.1975 121.005 71.5887 121.005H71.1975C71.1975 121.221 71.3727 121.397 71.5887 121.397C71.8048 121.397 71.9799 121.221 71.9799 121.005H71.5887C71.9799 121.005 71.9799 121.005 71.9799 121.005V121.003V121.001V120.998V120.994V120.988V120.982V120.975V120.967V120.958V120.948V120.938V120.926V120.913V120.9V120.885V120.87V120.854V120.836V120.818V120.799V120.779V120.759V120.737V120.714V120.691V120.667V120.641V120.615V120.588V120.56V120.532V120.502V120.472V120.44V120.408V120.375V120.341V120.306V120.271V120.234V120.197V120.159V120.12V120.08V120.039V119.998V119.955V119.912V119.868V119.823V119.778V119.731V119.684V119.636V119.587V119.537V119.487V119.436V119.383V119.331V119.277V119.222V119.167V119.111V119.054V118.996V118.938V118.879V118.819V118.758V118.696V118.634V118.571V118.507V118.443V118.377V118.311V118.244V118.177V118.108V118.039V117.97V117.899V117.828V117.756V117.683V117.609V117.535V117.46V117.385V117.308V117.231V117.153V117.075V116.996V116.916V116.835V116.754V116.672V116.589V116.505V116.421V116.336V116.251V116.165V116.078V115.99V115.902V115.813V115.724V115.634V115.543V115.451V115.359V115.266V115.173V115.078V114.984V114.888V114.792V114.695V114.598V114.5V114.401V114.302V114.202V114.102V114V113.899V113.796V113.693V113.59V113.485V113.381V113.275V113.169V113.062V112.955V112.847V112.739V112.63V112.52V112.41V112.299V112.188V112.076V111.964V111.85V111.737V111.623V111.508V111.393V111.277V111.16V111.043V110.926V110.807V110.689V110.57V110.45V110.33V110.209V110.087V109.966V109.843V109.72V109.597V109.473V109.348V109.223V109.098V108.972V108.845V108.718V108.591V108.463V108.334V108.205V108.076V107.946V107.815V107.684V107.553V107.421V107.288V107.155V107.022V106.888V106.754V106.619V106.484V106.348V106.212V106.075V105.938V105.801V105.663V105.525V105.386V105.247V105.107V104.967V104.826V104.685V104.544V104.402V104.26V104.117V103.974V103.83V103.687V103.542V103.398V103.252V103.107V102.961V102.815V102.668V102.521V102.373V102.226V102.077V101.929V101.78V101.63V101.481V101.33V101.18V101.029V100.878V100.726V100.574V100.422V100.27V100.117V99.9633V99.8097V99.6557V99.5014V99.3467V99.1917V99.0364V98.8807V98.7248V98.5685V98.4118V98.2549V98.0977V97.9401V97.7822V97.6241V97.4656V97.3068V97.1477V96.9884V96.8287V96.6687V96.5085V96.3479V96.1871V96.026V95.8646V95.703V95.5411V95.3789V95.2164V95.0537V94.8907V94.7274V94.5639V94.4001V94.2361V94.0718V93.9073V93.7426V93.5776V93.4123V93.2468V93.0811V92.9152V92.749V92.5826V92.416V92.2491V92.082V91.9148V91.7473V91.5796V91.4116V91.2435V91.0752V90.9066V90.7379V90.569V90.3999V90.2306V90.0611V89.8914V89.7215V89.5515V89.3812V89.2108V89.0403V88.8695V88.6986V88.5275V88.3563V88.1849V88.0133V87.8416V87.6698V87.4978V87.3256V87.1533V86.9809V86.8083V86.6356V86.4627V86.2897V86.1166V85.9434V85.77V85.5965V85.4229V85.2492V85.0753V84.9014V84.7273V84.5532V84.3789V84.2045V84.0301V83.8555V83.6809V83.5061V83.3313V83.1564V82.9814V82.8063V82.6311V82.4559V82.2806V82.1052V81.9298V81.7543V81.5787V81.4031V81.2274V81.0517V80.8759V80.7V80.5241V80.3482V80.1722V79.9962V79.8202V79.6441V79.468V79.2919V79.1157V78.9395V78.7633V78.5871V78.4108V78.2345V78.0583V77.882V77.7057V77.5294V77.3531V77.1769V77.0006V76.8243V76.648V76.4718V76.2956V76.1193V75.9432V75.767V75.5908V75.4147V75.2386V75.0626V74.8865V74.7106V74.5346V74.3587V74.1829V74.0071V73.8313V73.6556V73.48V73.3044V73.1289V72.9534V72.778V72.6027V72.4274V72.2523V72.0771V71.9021V71.7272V71.5523V71.3776V71.2029V71.0283V70.8538V70.6794V70.5051V70.3309V70.1568V69.9829V69.809V69.6352V69.4616V69.2881V69.1147V68.9414V68.7683V68.5952V68.4223V68.2496V68.077V67.9045V67.7321V67.5599V67.3879V67.216V67.0442V66.8726V66.7012V66.5299V66.3588V66.1878V66.017V65.8464V65.676V65.5057V65.3356V65.1657V64.9959V64.8264V64.657V64.4879V64.3189V64.1501V63.9815V63.8131V63.645V63.477V63.3092V63.1417V62.9743V62.8072V62.6403V62.4736V62.3071V62.1409V61.9749V61.8091V61.6435V61.4782V61.3132V61.1483V60.9837V60.8194V60.6553V60.4915V60.3279V60.1646V60.0015V59.8387V59.6762V59.5139V59.3519V59.1901V59.0287V58.8675V58.7066V58.546V58.3857V58.2256V58.0659V57.9064V57.7473V57.5884V57.4298V57.2716V57.1136V56.956V56.7986V56.6416V56.4849V56.3285V56.1725V56.0167V55.8613V55.7062V55.5515V55.397V55.243V55.0892V54.9358V54.7828V54.6301V54.4777V54.3257V54.174V54.0227V53.8718V53.7212ZM83.7155 53.9163C83.7155 53.7002 83.5404 53.5251 83.3243 53.5251C83.1083 53.5251 82.9331 53.7002 82.9331 53.9163V121.005C82.9331 121.221 83.1083 121.397 83.3243 121.397C83.5404 121.397 83.7155 121.221 83.7155 121.005V53.9163ZM85.5532 81.6988C85.3414 81.6561 85.1351 81.7932 85.0924 82.0049C85.0497 82.2167 85.1867 82.423 85.3985 82.4657C103.869 86.1908 109.682 97.8252 110.122 103.044C110.646 109.251 109.787 117.085 105.193 123.396C100.613 129.688 92.2656 134.541 77.6479 134.697C63.0433 134.852 53.834 129.71 48.3109 123.312C42.8996 117.043 41.0017 109.539 41.0682 104.54L52.2589 103.439C52.9885 111.629 56.9258 116.757 61.8765 119.832C66.8876 122.944 72.9131 123.939 77.6521 123.939C85.9286 123.939 91.3702 121.87 94.7678 118.7C98.1673 115.528 99.4634 111.308 99.5585 107.127C99.6409 103.499 97.2391 100.428 94.3337 98.1412C91.4181 95.8461 87.9081 94.2683 85.5783 93.636C85.3698 93.5794 85.1549 93.7025 85.0983 93.911C85.0417 94.1195 85.1649 94.3344 85.3734 94.391C87.6074 94.9974 91.0214 96.5295 93.8498 98.7559C96.6883 100.99 98.8503 103.853 98.7763 107.109C98.6846 111.144 97.4381 115.138 94.234 118.128C91.0281 121.119 85.8054 123.157 77.6521 123.157C73.0026 123.157 67.136 122.177 62.2892 119.167C57.4619 116.169 53.6223 111.145 53.0062 102.981C52.9983 102.876 52.9484 102.779 52.8678 102.711C52.7871 102.644 52.6826 102.611 52.5778 102.621L40.6466 103.795C40.4511 103.814 40.3002 103.975 40.2939 104.172C40.128 109.348 42.0444 117.25 47.7187 123.823C53.4063 130.412 62.8436 135.637 77.6563 135.479C92.4558 135.322 101.066 130.396 105.826 123.857C110.571 117.337 111.434 109.288 110.902 102.978C110.429 97.3735 104.324 85.4845 85.5532 81.6988ZM55.577 63.5018C55.7925 63.5167 55.9552 63.7035 55.9403 63.919C55.7466 66.728 55.9089 69.3983 57.6877 71.827C59.4744 74.2663 62.9442 76.532 69.5427 78.3805C69.7508 78.4388 69.8722 78.6547 69.8139 78.8627C69.7556 79.0708 69.5397 79.1922 69.3317 79.1339C62.6641 77.2661 58.9947 74.9353 57.0565 72.2893C55.1105 69.6325 54.9623 66.7284 55.1598 63.8652C55.1747 63.6496 55.3614 63.487 55.577 63.5018ZM47.1152 57.769C47.1902 57.5664 47.0868 57.3413 46.8842 57.2663C46.6816 57.1912 46.4566 57.2946 46.3815 57.4972C44.402 62.8419 43.6946 69.5121 46.7394 75.7265C49.7876 81.9479 56.5533 87.6248 69.3355 91.0661C69.5441 91.1223 69.7588 90.9987 69.8149 90.7901C69.8711 90.5815 69.7475 90.3668 69.5389 90.3107C56.894 86.9063 50.3593 81.3365 47.442 75.3822C44.5211 69.4209 45.1828 62.9864 47.1152 57.769ZM12.9646 63.3952C13.0466 63.4631 13.0974 63.5616 13.1052 63.6678C14.0622 76.6825 28.0586 88.8772 48.7751 81.9071C48.9799 81.8382 49.2018 81.9484 49.2706 82.1531C49.3395 82.3579 49.2294 82.5798 49.0246 82.6486C28.0949 89.6904 13.6149 77.5575 12.3589 64.1311L1.19371 65.4124C1.75076 75.2942 5.49978 82.3609 11.1359 87.1884C16.8515 92.0841 24.542 94.7055 32.9019 95.5804C46.2379 96.976 55.8936 91.6354 59.0266 89.2057C59.1973 89.0733 59.4431 89.1044 59.5755 89.2751C59.7079 89.4458 59.6768 89.6916 59.5061 89.824C56.2497 92.3493 46.3982 97.7794 32.8205 96.3585C24.3594 95.473 16.5002 92.8133 10.6269 87.7827C4.74336 82.7431 0.886833 75.3529 0.393158 65.0844C0.383266 64.8787 0.53464 64.7005 0.739296 64.677L12.6705 63.3079C12.7763 63.2957 12.8825 63.3273 12.9646 63.3952ZM71.1975 10.6907C71.1975 10.4746 71.3727 10.2995 71.5887 10.2995H110.512C115.704 10.2995 123.418 10.7371 129.842 14.2095C133.061 15.9498 135.961 18.4542 138.053 22.046C140.144 25.637 141.416 30.2919 141.416 36.3134C141.416 46.5513 138.904 53.0026 135.436 57.2694C132.107 61.3637 127.932 63.4024 124.388 64.8618L148.594 103.978C148.669 104.099 148.672 104.251 148.603 104.375C148.534 104.499 148.403 104.576 148.261 104.576H134.179C134.044 104.576 133.918 104.506 133.847 104.392L117.228 77.8009C116.579 76.8901 115.989 76.0414 115.438 75.2497C114.234 73.5208 113.22 72.0639 112.21 70.827C110.747 69.0364 109.321 67.7449 107.399 66.8217C105.469 65.8949 103.012 65.3252 99.4662 65.0295C95.9202 64.7337 91.3123 64.7135 85.0945 64.8699C84.8785 64.8754 84.699 64.7047 84.6936 64.4887C84.6882 64.2727 84.8589 64.0932 85.0748 64.0878C91.2968 63.9313 95.9404 63.9503 99.5312 64.2498C103.122 64.5494 105.687 65.1313 107.738 66.1164C109.796 67.1051 111.308 68.4859 112.816 70.3321C113.846 71.5927 114.887 73.0883 116.101 74.8325L116.101 74.8332L116.101 74.8334C116.651 75.6231 117.236 76.4638 117.872 77.3568C117.876 77.3632 117.881 77.3697 117.885 77.3763L134.395 103.793H147.559L123.48 64.8803C123.419 64.7823 123.405 64.6625 123.44 64.553C123.476 64.4434 123.558 64.3552 123.665 64.3119C127.271 62.8503 131.495 60.8762 134.829 56.7759C138.157 52.6816 140.633 46.4193 140.633 36.3134C140.633 30.4037 139.386 25.8902 137.377 22.4398C135.367 18.9902 132.582 16.5803 129.47 14.8978C123.229 11.5244 115.686 11.0819 110.512 11.0819H71.9799V26.7293C71.9799 26.9454 71.8048 27.1205 71.5887 27.1205C71.3727 27.1205 71.1975 26.9454 71.1975 26.7293V10.6907ZM83.3243 20.4703C83.1083 20.4703 82.9331 20.6455 82.9331 20.8615V26.7293C82.9331 26.9454 83.1083 27.1205 83.3243 27.1205C83.5404 27.1205 83.7155 26.9454 83.7155 26.7293V21.2527H111.099C114.02 21.2527 118.358 21.5282 121.994 23.4753C123.806 24.4451 125.439 25.8278 126.641 27.7985C127.842 29.7695 128.625 32.3501 128.702 35.7355C128.857 42.547 125.986 47.1269 122.296 50.0147C118.589 52.9155 114.049 54.1124 110.903 54.1124H85.0847C84.8686 54.1124 84.6935 54.2876 84.6935 54.5036C84.6935 54.7197 84.8686 54.8948 85.0847 54.8948H110.903C114.211 54.8948 118.924 53.6468 122.778 50.6309C126.648 47.602 129.645 42.7934 129.484 35.7177C129.405 32.2183 128.593 29.4983 127.309 27.3912C126.024 25.2837 124.278 23.8107 122.364 22.7855C118.548 20.7425 114.045 20.4703 111.099 20.4703H83.3243ZM85.9623 53.1214C78.3866 51.1115 70.0257 52.4786 66.9988 53.3159C66.7905 53.3735 66.5751 53.2514 66.5175 53.0431C66.4599 52.8349 66.582 52.6194 66.7902 52.5618C69.8918 51.7039 78.4041 50.3067 86.163 52.3651C86.3718 52.4205 86.4961 52.6347 86.4408 52.8436C86.3853 53.0524 86.1712 53.1768 85.9623 53.1214ZM58.0807 46.1801C61.7289 44.2419 69.4345 42.1306 77.8597 42.4002C86.2767 42.6695 95.3479 45.312 101.805 52.8031C101.946 52.9667 102.193 52.985 102.357 52.844C102.52 52.7029 102.539 52.4559 102.398 52.2923C95.75 44.5803 86.4353 41.8918 77.8847 41.6182C69.3421 41.3449 61.498 43.4786 57.7136 45.4892C57.5229 45.5906 57.4504 45.8274 57.5517 46.0182C57.6531 46.209 57.8899 46.2815 58.0807 46.1801ZM43.4233 28.6853C43.4233 28.4692 43.5984 28.2941 43.8145 28.2941H111.49C111.706 28.2941 111.881 28.4692 111.881 28.6853V40.4209C111.881 40.6369 111.706 40.8121 111.49 40.8121H83.4055C83.1895 40.8121 83.0143 40.6369 83.0143 40.4209C83.0143 40.2048 83.1895 40.0297 83.4055 40.0297H111.099V29.0765H44.2056V40.0297H71.5087C71.7247 40.0297 71.8999 40.2048 71.8999 40.4209C71.8999 40.6369 71.7247 40.8121 71.5087 40.8121H43.8145C43.5984 40.8121 43.4233 40.6369 43.4233 40.4209V28.6853ZM97.0092 66.3627C96.9694 66.1504 96.7649 66.0105 96.5526 66.0503C96.3403 66.0901 96.2004 66.2945 96.2402 66.5069L96.827 69.6364C96.8644 69.8358 97.0479 69.9735 97.2498 69.9536L107.225 68.9717C107.44 68.9505 107.597 68.7591 107.576 68.5441C107.555 68.3291 107.363 68.1719 107.148 68.1931L97.5299 69.1399L97.0092 66.3627Z" fill="white"/>
</svg>
