<svg width="27" height="28" viewBox="0 0 27 28" fill="none" xmlns="http://www.w3.org/2000/svg">
<path d="M0 20.5116V27.6744C0.000249109 27.7606 0.0346313 27.8433 0.0956357 27.9043C0.15664 27.9653 0.239308 27.9997 0.325581 27.9999H3.58139V20.186H0.325581C0.239308 20.1863 0.15664 20.2206 0.0956357 20.2816C0.0346313 20.3426 0.000249109 20.4253 0 20.5116ZM1.95349 21.4883C2.14667 21.4883 2.33551 21.5456 2.49614 21.6529C2.65676 21.7603 2.78195 21.9128 2.85588 22.0913C2.92981 22.2698 2.94915 22.4662 2.91146 22.6556C2.87377 22.8451 2.78075 23.0191 2.64415 23.1557C2.50755 23.2923 2.33351 23.3854 2.14404 23.423C1.95457 23.4607 1.75818 23.4414 1.5797 23.3675C1.40123 23.2935 1.24868 23.1683 1.14135 23.0077C1.03403 22.8471 0.976743 22.6583 0.976743 22.4651C0.977499 22.2063 1.08065 21.9583 1.26366 21.7752C1.44667 21.5922 1.69467 21.4891 1.95349 21.4883ZM25.633 24.6302L17.6693 27.7134C17.1828 27.9041 16.6648 28.0013 16.1423 27.9999H4.23255V20.0948L4.46046 19.9125C5.42092 19.1447 6.64403 18.7839 7.86743 18.9075C9.09084 19.031 10.2171 19.6291 11.0046 20.5734L11.2228 20.8372H17.093C17.5679 20.8372 18.0234 21.0258 18.3592 21.3616C18.695 21.6975 18.8837 22.1529 18.8837 22.6279C18.8837 23.1028 18.695 23.5583 18.3592 23.8941C18.0234 24.2299 17.5679 24.4186 17.093 24.4186H11.0698C10.9834 24.4186 10.9006 24.4529 10.8395 24.5139C10.7785 24.575 10.7442 24.6578 10.7442 24.7441C10.7442 24.8305 10.7785 24.9133 10.8395 24.9744C10.9006 25.0354 10.9834 25.0697 11.0698 25.0697H17.093C17.6647 25.0688 18.2181 24.8678 18.657 24.5014C19.096 24.135 19.3927 23.6265 19.4958 23.0641L24.5423 21.4948C24.9536 21.3673 25.3984 21.4046 25.7828 21.5987C26.1672 21.7929 26.4612 22.1287 26.6027 22.5355C26.7442 22.9422 26.7221 23.388 26.5412 23.7788C26.3603 24.1696 26.0347 24.4749 25.633 24.6302Z" fill="white"/>
<path fill-rule="evenodd" clip-rule="evenodd" d="M16.2791 19.2093C19.8753 19.2093 22.7907 16.2939 22.7907 12.6977C22.7907 9.10139 19.8753 6.18604 16.2791 6.18604C12.6828 6.18604 9.76746 9.10139 9.76746 12.6977C9.76746 16.2939 12.6828 19.2093 16.2791 19.2093ZM15.686 15.8193L15.686 15.6707C15.1723 15.5408 14.6979 15.2981 14.2909 14.9468C14.0268 14.718 13.997 14.3184 14.2263 14.0537C14.4531 13.7893 14.8532 13.7588 15.1199 13.9883C15.4723 14.2929 15.9035 14.4722 16.3664 14.5074C16.7417 14.5294 17.0814 14.2356 17.1101 13.8479C17.1077 13.6594 16.7822 13.445 16.1401 13.258C15.5685 13.0803 14.2606 12.671 14.2591 11.408C14.3202 10.53 14.9095 9.84378 15.6802 9.61433L15.6799 9.48362C15.6799 9.13346 15.9712 8.85741 16.3123 8.84828C16.6611 8.84786 16.9458 9.13082 16.9469 9.48015L16.9473 9.62113C17.3848 9.75218 17.7906 10.0253 18.0697 10.4252C18.2709 10.7119 18.2008 11.1067 17.9139 11.3067C17.6312 11.5091 17.2325 11.4384 17.0324 11.151C16.8713 10.922 16.6086 10.7884 16.3298 10.795C15.8754 10.7722 15.5507 11.0659 15.5242 11.452C15.526 11.5715 15.6428 11.7761 16.505 12.0462C16.9581 12.1772 18.3718 12.589 18.3752 13.8918C18.3134 14.768 17.7183 15.4375 16.9534 15.6684L16.9535 15.8182C16.9534 16.1314 16.7258 16.3914 16.4284 16.4426C16.393 16.4487 16.3572 16.4518 16.3195 16.452C15.9707 16.4524 15.6872 16.1686 15.686 15.8193Z" fill="white"/>
<rect x="13.3489" y="0.976807" width="1" height="4.55814" rx="0.5" fill="white"/>
<rect x="18.5581" y="0.976807" width="1" height="4.55814" rx="0.5" fill="white"/>
<rect x="15.9534" width="1" height="4.55814" rx="0.5" fill="white"/>
</svg>
