<svg width="28" height="28" viewBox="0 0 28 28" fill="none" xmlns="http://www.w3.org/2000/svg">
<path d="M23.3373 14.7423C25.4171 14.7423 27.1032 13.8363 27.1032 12.7187C27.1032 11.6011 25.4171 10.6951 23.3373 10.6951C21.2575 10.6951 19.5715 11.6011 19.5715 12.7187C19.5715 13.8363 21.2575 14.7423 23.3373 14.7423Z" fill="white"/>
<path d="M23.3377 15.4265C21.2699 15.4265 19.5525 14.6443 19.1885 13.6113V15.2416C19.5525 16.2743 21.2699 17.0561 23.3377 17.0561C25.4046 17.0561 27.1217 16.2746 27.486 15.2416V13.6113C27.1217 14.6443 25.4046 15.4265 23.3377 15.4265Z" fill="white"/>
<path d="M23.3377 17.9603C21.2699 17.9603 19.5525 17.1781 19.1885 16.1458V17.7757C19.5525 18.8081 21.2699 19.59 23.3377 19.59C25.4046 19.59 27.1217 18.8081 27.486 17.7757V16.1458C27.1217 17.1781 25.4046 17.9603 23.3377 17.9603Z" fill="white"/>
<path d="M23.3377 20.4942C21.2699 20.4942 19.5525 19.7114 19.1885 18.6787V20.3084C19.5525 21.3411 21.2699 22.1235 23.3377 22.1235C25.4046 22.1235 27.1217 21.3411 27.486 20.3084V18.6787C27.1217 19.7114 25.4046 20.4942 23.3377 20.4942Z" fill="white"/>
<path d="M23.3377 23.027C21.2699 23.027 19.5525 22.2448 19.1885 21.2122V22.8427C19.5525 23.8745 21.2699 24.657 23.3377 24.657C25.4046 24.657 27.1217 23.8745 27.486 22.8427V21.2122C27.1217 22.2448 25.4046 23.027 23.3377 23.027Z" fill="white"/>
<path d="M23.2876 25.5604C21.2201 25.5604 19.503 24.7783 19.1384 23.7456V25.3762C19.503 26.408 21.2201 27.1904 23.2876 27.1904C25.3551 27.1904 27.0722 26.408 27.4359 25.3762V23.7456C27.0722 24.7786 25.3551 25.5604 23.2876 25.5604Z" fill="white"/>
<path d="M13.7176 17.895C15.7975 17.895 17.4837 16.9889 17.4837 15.8711C17.4837 14.7533 15.7975 13.8472 13.7176 13.8472C11.6376 13.8472 9.95142 14.7533 9.95142 15.8711C9.95142 16.9889 11.6376 17.895 13.7176 17.895Z" fill="white"/>
<path d="M13.7172 21.3031C11.6503 21.3031 9.93321 20.521 9.56921 19.4883V21.1179C9.93321 22.1503 11.6503 22.9328 13.7172 22.9328C15.7844 22.9328 17.5024 22.1503 17.8664 21.1179V19.4883C17.5024 20.521 15.7844 21.3031 13.7172 21.3031Z" fill="white"/>
<path d="M13.7172 18.758C11.6503 18.758 9.93321 17.9758 9.56921 16.9431V18.5728C9.93321 19.6052 11.6503 20.3876 13.7172 20.3876C15.7844 20.3876 17.5024 19.6052 17.8664 18.5728V16.9431C17.5024 17.9758 15.7844 18.758 13.7172 18.758Z" fill="white"/>
<path d="M13.7172 23.8369C11.6503 23.8369 9.93321 23.0544 9.56921 22.0217V23.6517C9.93321 24.6841 11.6503 25.4665 13.7172 25.4665C15.7844 25.4665 17.5024 24.6841 17.8664 23.6517V22.0217C17.5024 23.0544 15.7844 23.8369 13.7172 23.8369Z" fill="white"/>
<path d="M13.7172 26.3697C11.6503 26.3697 9.93321 25.5879 9.56921 24.5552V26.1851C9.93321 27.2178 11.6503 28 13.7172 28C15.7844 28 17.5024 27.2178 17.8664 26.1851V24.5552C17.5024 25.5879 15.7844 26.3697 13.7172 26.3697Z" fill="white"/>
<path d="M4.14896 19.6373C6.22878 19.6373 7.9148 18.731 7.9148 17.6131C7.9148 16.4951 6.22878 15.5889 4.14896 15.5889C2.06914 15.5889 0.383118 16.4951 0.383118 17.6131C0.383118 18.731 2.06914 19.6373 4.14896 19.6373Z" fill="white"/>
<path d="M4.1492 20.3222C2.08141 20.3222 0.363997 19.5397 0 18.5073V20.137C0.363997 21.1697 2.08141 21.9521 4.1492 21.9521C6.21609 21.9521 7.9332 21.1697 8.2972 20.137V18.5073C7.9332 19.5397 6.21609 20.3222 4.1492 20.3222Z" fill="white"/>
<path d="M4.1492 22.8556C2.08141 22.8556 0.363997 22.0732 0 21.0408V22.6704C0.363997 23.7031 2.08141 24.4856 4.1492 24.4856C6.21609 24.4856 7.9332 23.7031 8.2972 22.6704V21.0408C7.9332 22.0732 6.21609 22.8556 4.1492 22.8556Z" fill="white"/>
<path d="M4.1492 25.3891C2.08141 25.3891 0.363997 24.6069 0 23.5742V25.2042C0.363997 26.2366 2.08141 27.019 4.1492 27.019C6.21609 27.019 7.9332 26.2366 8.2972 25.2042V23.5742C7.9332 24.6069 6.21609 25.3891 4.1492 25.3891Z" fill="white"/>
<path d="M19.0126 1H23.5158M23.5158 1V5.50316M23.5158 1L14.0001 10.5L4.50006 12.5" stroke="white" stroke-width="2" stroke-linecap="round" stroke-linejoin="round"/>
</svg>
