<svg width="28" height="28" viewBox="0 0 28 28" fill="none" xmlns="http://www.w3.org/2000/svg">
<path d="M4.66666 17.5V20.3333C4.66666 21.9902 6.0098 23.3333 7.66666 23.3333H10.5" stroke="white" stroke-width="2" stroke-linecap="round" stroke-linejoin="round"/>
<path d="M7 19.8334L4.66671 17.5001L2.33342 19.8334" stroke="white" stroke-width="2" stroke-linecap="round" stroke-linejoin="round"/>
<path d="M23.3333 10.5L23.3333 7.66667C23.3333 6.00981 21.9902 4.66667 20.3333 4.66667L17.5 4.66667" stroke="white" stroke-width="2" stroke-linecap="round" stroke-linejoin="round"/>
<path d="M21 8.16663L23.3333 10.4999L25.6666 8.16663" stroke="white" stroke-width="2" stroke-linecap="round" stroke-linejoin="round"/>
<circle cx="20.5" cy="20.5" r="6.85" fill="white" stroke="white" stroke-width="1.3"/>
<path d="M21.0326 16.7391C21.4457 16.7536 21.8696 16.8261 22.3043 16.9565C22.7391 17.087 23.1268 17.2899 23.4674 17.5652C23.1123 17.971 22.7609 18.3659 22.413 18.75C22.2319 18.5688 22.0145 18.4275 21.7609 18.3261C21.5072 18.2246 21.2645 18.1703 21.0326 18.163V19.9022C21.3152 19.9891 21.6014 20.087 21.8913 20.1957C22.1812 20.3043 22.4457 20.4493 22.6848 20.6304C22.9239 20.8116 23.1196 21.0326 23.2717 21.2935C23.4239 21.5543 23.5 21.8804 23.5 22.2717C23.5 22.6703 23.4275 23.0181 23.2826 23.3152C23.1449 23.6051 22.9565 23.8478 22.7174 24.0435C22.4855 24.2391 22.2174 24.3877 21.913 24.4891C21.6159 24.5906 21.308 24.6449 20.9891 24.6522V25.4457H20.1848V24.6522C19.7138 24.6377 19.2391 24.5507 18.7609 24.3913C18.2826 24.2246 17.8623 23.9783 17.5 23.6522C17.6884 23.4565 17.8768 23.2609 18.0652 23.0652C18.2609 22.8623 18.4529 22.6594 18.6413 22.4565C18.7355 22.5652 18.8478 22.6667 18.9783 22.7609C19.1087 22.8478 19.2428 22.9239 19.3804 22.9891C19.5181 23.0543 19.6558 23.1087 19.7935 23.1522C19.9312 23.1884 20.0616 23.2065 20.1848 23.2065V21.3043C19.8732 21.2174 19.5725 21.1196 19.2826 21.0109C19 20.9022 18.75 20.7609 18.5326 20.587C18.3152 20.413 18.1413 20.2029 18.0109 19.9565C17.8804 19.7029 17.8152 19.3949 17.8152 19.0326C17.8152 18.6775 17.8877 18.3623 18.0326 18.087C18.1775 17.8043 18.3659 17.5688 18.5978 17.3804C18.8297 17.1848 19.0906 17.0362 19.3804 16.9348C19.6703 16.8261 19.9565 16.7645 20.2391 16.75V16H21.0326V16.7391ZM20.2391 18.1413C20.0435 18.163 19.8659 18.2391 19.7065 18.3696C19.5543 18.4928 19.4783 18.6739 19.4783 18.913C19.4783 19.1449 19.5471 19.3225 19.6848 19.4457C19.8225 19.5688 20.0072 19.6594 20.2391 19.7174V18.1413ZM20.9891 23.2174C21.2355 23.2029 21.4275 23.1232 21.5652 22.9783C21.7101 22.8261 21.7826 22.6232 21.7826 22.3696C21.7826 22.1159 21.7065 21.9275 21.5543 21.8043C21.4094 21.6739 21.221 21.5725 20.9891 21.5V23.2174Z" fill="#323232"/>
<circle cx="7.5" cy="7.5" r="6.85" fill="white" stroke="white" stroke-width="1.3"/>
<path fill-rule="evenodd" clip-rule="evenodd" d="M11.3795 10.8128C11.6165 10.5433 11.8245 10.2496 12 9.93658L10.9499 9.41381C10.799 9.66788 10.6137 9.9 10.3995 10.1034C10.1068 10.3752 9.79532 10.5336 9.47829 10.574C8.86608 10.6523 8.43834 10.463 7.81448 10.0627C7.15885 9.64217 6.416 9.16542 5.3617 9.30011C4.72292 9.38214 4.13575 9.71698 3.61991 10.2953C3.38308 10.5648 3.17532 10.8585 3 11.1715L4.04977 11.6943C4.20054 11.4402 4.38539 11.208 4.59911 11.0041C4.88871 10.736 5.19852 10.5782 5.52056 10.538C5.60884 10.5265 5.6977 10.5207 5.78675 10.5205C6.26957 10.5205 6.65736 10.7068 7.18465 11.0451C7.79686 11.4382 8.55974 11.9274 9.63791 11.7903C10.2895 11.7062 10.8756 11.3775 11.3795 10.8127V10.8128ZM11.3795 7.68579C11.6165 7.41632 11.8245 7.12258 12 6.8096L10.9499 6.28683C10.799 6.54099 10.6137 6.77311 10.3995 6.97673C10.1068 7.24851 9.79532 7.40688 9.47829 7.44732C8.86608 7.5253 8.43834 7.33631 7.81448 6.936C7.15885 6.51548 6.416 6.03873 5.3617 6.17342C4.72292 6.25544 4.13575 6.58999 3.61991 7.1686C3.38298 7.43798 3.17522 7.73161 3 8.0446L4.04977 8.56737C4.20064 8.3133 4.38548 8.08099 4.59911 7.87689C4.88977 7.60915 5.19852 7.45232 5.52056 7.41112C5.60884 7.39966 5.6977 7.39379 5.78675 7.39359C6.26957 7.39359 6.65736 7.57989 7.18465 7.91819C7.79686 8.31128 8.55974 8.80055 9.63791 8.66345C10.2895 8.57931 10.8756 8.25063 11.3795 7.68579ZM11.3795 4.5588C11.6165 4.28933 11.8245 3.9956 12 3.68261L10.9499 3.15984C10.799 3.414 10.6137 3.64612 10.3995 3.84974C10.1068 4.12152 9.79532 4.27989 9.47829 4.32033C8.86608 4.39831 8.43834 4.20933 7.81448 3.80902C7.15972 3.38849 6.41677 2.91174 5.36247 3.04643C4.72263 3.12971 4.13652 3.46301 3.62068 4.04162C3.38356 4.31089 3.17541 4.60453 3 4.91761L4.04977 5.44038C4.20064 5.18632 4.38548 4.95401 4.59911 4.7499C4.88977 4.48217 5.19852 4.32534 5.52056 4.28413C5.60884 4.27267 5.6977 4.2668 5.78675 4.26661C6.26957 4.26661 6.65736 4.4529 7.18465 4.79121C7.79686 5.18429 8.55916 5.67327 9.63791 5.53647C10.2895 5.45232 10.8756 5.12364 11.3795 4.5588Z" fill="#323232"/>
</svg>
