<svg width="28" height="28" viewBox="0 0 28 28" fill="none" xmlns="http://www.w3.org/2000/svg">
<path d="M4.66669 17.5V20.3333C4.66669 21.9902 6.00983 23.3333 7.66669 23.3333H10.5" stroke="white" stroke-width="2" stroke-linecap="round" stroke-linejoin="round"/>
<path d="M7 19.8334L4.66671 17.5001L2.33342 19.8334" stroke="white" stroke-width="2" stroke-linecap="round" stroke-linejoin="round"/>
<path d="M23.3333 10.5L23.3333 7.66667C23.3333 6.00981 21.9902 4.66667 20.3333 4.66667L17.5 4.66667" stroke="white" stroke-width="2" stroke-linecap="round" stroke-linejoin="round"/>
<path d="M21 8.16663L23.3333 10.4999L25.6666 8.16663" stroke="white" stroke-width="2" stroke-linecap="round" stroke-linejoin="round"/>
<circle cx="20.5" cy="20.5" r="6.85" fill="white" stroke="white" stroke-width="1.3"/>
<path d="M21.0326 16.7391C21.4457 16.7536 21.8696 16.8261 22.3043 16.9565C22.7391 17.087 23.1268 17.2899 23.4674 17.5652C23.1123 17.971 22.7609 18.3659 22.413 18.75C22.2319 18.5688 22.0145 18.4275 21.7609 18.3261C21.5072 18.2246 21.2645 18.1703 21.0326 18.163V19.9022C21.3152 19.9891 21.6014 20.087 21.8913 20.1957C22.1812 20.3043 22.4457 20.4493 22.6848 20.6304C22.9239 20.8116 23.1196 21.0326 23.2717 21.2935C23.4239 21.5543 23.5 21.8804 23.5 22.2717C23.5 22.6703 23.4275 23.0181 23.2826 23.3152C23.1449 23.6051 22.9565 23.8478 22.7174 24.0435C22.4855 24.2391 22.2174 24.3877 21.913 24.4891C21.6159 24.5906 21.308 24.6449 20.9891 24.6522V25.4457H20.1848V24.6522C19.7138 24.6377 19.2391 24.5507 18.7609 24.3913C18.2826 24.2246 17.8623 23.9783 17.5 23.6522C17.6884 23.4565 17.8768 23.2609 18.0652 23.0652C18.2609 22.8623 18.4529 22.6594 18.6413 22.4565C18.7355 22.5652 18.8478 22.6667 18.9783 22.7609C19.1087 22.8478 19.2428 22.9239 19.3804 22.9891C19.5181 23.0543 19.6558 23.1087 19.7935 23.1522C19.9312 23.1884 20.0616 23.2065 20.1848 23.2065V21.3043C19.8732 21.2174 19.5725 21.1196 19.2826 21.0109C19 20.9022 18.75 20.7609 18.5326 20.587C18.3152 20.413 18.1413 20.2029 18.0109 19.9565C17.8804 19.7029 17.8152 19.3949 17.8152 19.0326C17.8152 18.6775 17.8877 18.3623 18.0326 18.087C18.1775 17.8043 18.3659 17.5688 18.5978 17.3804C18.8297 17.1848 19.0906 17.0362 19.3804 16.9348C19.6703 16.8261 19.9565 16.7645 20.2391 16.75V16H21.0326V16.7391ZM20.2391 18.1413C20.0435 18.163 19.8659 18.2391 19.7065 18.3696C19.5543 18.4928 19.4783 18.6739 19.4783 18.913C19.4783 19.1449 19.5471 19.3225 19.6848 19.4457C19.8225 19.5688 20.0072 19.6594 20.2391 19.7174V18.1413ZM20.9891 23.2174C21.2355 23.2029 21.4275 23.1232 21.5652 22.9783C21.7101 22.8261 21.7826 22.6232 21.7826 22.3696C21.7826 22.1159 21.7065 21.9275 21.5543 21.8043C21.4094 21.6739 21.221 21.5725 20.9891 21.5V23.2174Z" fill="#323232"/>
<circle cx="7.5" cy="7.5" r="6.85" fill="white" stroke="white" stroke-width="1.3"/>
</svg>
