<svg width="28" height="28" viewBox="0 0 28 28" fill="none" xmlns="http://www.w3.org/2000/svg">
<g clip-path="url(#clip0)">
<path d="M23.9063 14H0.58308C0.260788 14 0 14.2608 0 14.5831V27.4114C0 27.7337 0.260788 27.9945 0.58308 27.9945H4.18064H4.19089H20.1869H20.1971H23.9063C24.2286 27.9945 24.4894 27.7337 24.4894 27.4114V14.5831C24.4894 14.2608 24.2286 14 23.9063 14ZM23.3232 17.5035C22.0828 17.3284 21.0846 16.3895 20.8418 15.1656H23.3232V17.5035ZM3.53513 15.1656C3.29861 16.3469 2.3541 17.2563 1.16616 17.4862V15.1656H3.53513ZM1.16616 24.5705C2.33118 24.7821 3.26794 25.6741 3.52674 26.8283H1.16616V24.5705ZM20.8513 26.8283C20.9754 26.2682 21.2592 25.7564 21.681 25.349C22.1358 24.9101 22.7087 24.6451 23.3232 24.56V26.8283L20.8513 26.8283Z" fill="white"/>
<path d="M12.5326 16.739C12.9457 16.7535 13.3696 16.826 13.8043 16.9564C14.2391 17.0868 14.6268 17.2897 14.9674 17.5651C14.6123 17.9709 14.2609 18.3658 13.913 18.7499C13.7319 18.5687 13.5145 18.4274 13.2609 18.326C13.0072 18.2245 12.7645 18.1702 12.5326 18.1629V19.9021C12.8152 19.989 13.1014 20.0868 13.3913 20.1955C13.6812 20.3042 13.9457 20.4492 14.1848 20.6303C14.4239 20.8115 14.6196 21.0325 14.7717 21.2934C14.9239 21.5542 15 21.8803 15 22.2716C15 22.6702 14.9275 23.018 14.7826 23.3151C14.6449 23.605 14.4565 23.8477 14.2174 24.0434C13.9855 24.239 13.7174 24.3876 13.413 24.489C13.1159 24.5905 12.808 24.6448 12.4891 24.6521V25.4455H11.6848V24.6521C11.2138 24.6376 10.7391 24.5506 10.2609 24.3912C9.78261 24.2245 9.36232 23.9781 9 23.6521C9.18841 23.4564 9.37681 23.2607 9.56522 23.0651C9.76087 22.8622 9.9529 22.6593 10.1413 22.4564C10.2355 22.5651 10.3478 22.6665 10.4783 22.7607C10.6087 22.8477 10.7428 22.9238 10.8804 22.989C11.0181 23.0542 11.1558 23.1086 11.2935 23.1521C11.4312 23.1883 11.5616 23.2064 11.6848 23.2064V21.3042C11.3732 21.2173 11.0725 21.1194 10.7826 21.0107C10.5 20.9021 10.25 20.7607 10.0326 20.5868C9.81522 20.4129 9.6413 20.2028 9.51087 19.9564C9.38043 19.7028 9.31522 19.3948 9.31522 19.0325C9.31522 18.6774 9.38768 18.3622 9.53261 18.0868C9.67754 17.8042 9.86594 17.5687 10.0978 17.3803C10.3297 17.1847 10.5906 17.0361 10.8804 16.9347C11.1703 16.826 11.4565 16.7644 11.7391 16.7499V15.9999H12.5326V16.739ZM11.7391 18.1412C11.5435 18.1629 11.3659 18.239 11.2065 18.3694C11.0543 18.4926 10.9783 18.6738 10.9783 18.9129C10.9783 19.1448 11.0471 19.3223 11.1848 19.4455C11.3225 19.5687 11.5072 19.6593 11.7391 19.7173V18.1412ZM12.4891 23.2173C12.7355 23.2028 12.9275 23.1231 13.0652 22.9781C13.2101 22.826 13.2826 22.6231 13.2826 22.3694C13.2826 22.1158 13.2065 21.9274 13.0543 21.8042C12.9094 21.6738 12.721 21.5723 12.4891 21.4999V23.2173Z" fill="#323232"/>
<path d="M27.4048 11.673H25.0725C24.7502 11.673 24.4894 11.9338 24.4894 12.2561C24.4894 12.5783 24.7502 12.8391 25.0725 12.8391H26.8217V24.5007H25.7045C25.3822 24.5007 25.1214 24.7615 25.1214 25.0838C25.1214 25.4061 25.3822 25.6669 25.7045 25.6669H27.4048C27.7271 25.6669 27.9879 25.4061 27.9879 25.0838V12.2561C27.9879 11.9338 27.7271 11.673 27.4048 11.673Z" fill="white"/>
<path d="M5.24769 11.673C4.9254 11.673 4.66461 11.9338 4.66461 12.2561V12.8579C4.66461 13.1802 4.9254 13.441 5.24769 13.441C5.56998 13.441 5.83077 13.1802 5.83077 12.8579L15.0775 12.8391C15.3992 12.8391 15.6611 12.5783 15.6611 12.2561C15.6611 11.9338 15.3992 11.673 15.0775 11.673H5.24769Z" fill="white"/>
<path d="M2.91542 13.441H2.91599C3.23828 13.4404 3.49907 13.179 3.4985 12.8573L3.49565 10.4766H8.65739C8.97968 10.4766 9.24047 10.2158 9.24047 9.8935C9.24047 9.57121 8.97968 9.31042 8.65739 9.31042H2.912C2.75712 9.31042 2.60907 9.37192 2.49918 9.48124C2.38985 9.59114 2.32892 9.73919 2.32892 9.89407L2.33234 12.8584C2.33291 13.1802 2.5937 13.441 2.91542 13.441Z" fill="white"/>
</g>
<defs>
<clipPath id="clip0">
<rect width="27.9947" height="28" fill="white"/>
</clipPath>
</defs>
</svg>
