<svg width="36" height="36" viewBox="0 0 36 36" fill="none" xmlns="http://www.w3.org/2000/svg">
<g filter="url(#filter0_d)">
<path d="M31.3563 25.653H6.3561V0.653402C6.3561 0.33097 6.0952 0.0700684 5.77277 0.0700684C5.45033 0.0700684 5.18943 0.33097 5.18943 0.653402V2.32479H4.6061C4.28367 2.32479 4.02277 2.58569 4.02277 2.90812C4.02277 3.23056 4.28367 3.49146 4.6061 3.49146H5.18943V6.99203H4.6061C4.28367 6.99203 4.02277 7.25293 4.02277 7.57536C4.02277 7.89779 4.28367 8.1587 4.6061 8.1587H5.18943V11.6587H4.6061C4.28367 11.6587 4.02277 11.9196 4.02277 12.242C4.02277 12.5645 4.28367 12.8254 4.6061 12.8254H5.18943V16.3254H4.6061C4.28367 16.3254 4.02277 16.5863 4.02277 16.9087C4.02277 17.2311 4.28367 17.492 4.6061 17.492H5.18943V20.9932H4.6061C4.28367 20.9932 4.02277 21.2541 4.02277 21.5765C4.02277 21.8989 4.28367 22.1598 4.6061 22.1598H5.18943V25.653H4.6061C4.28367 25.653 4.02277 25.9139 4.02277 26.2363C4.02277 26.5588 4.28367 26.8197 4.6061 26.8197H5.18943V27.403C5.18943 27.7254 5.45033 27.9863 5.77277 27.9863C6.0952 27.9863 6.3561 27.7254 6.3561 27.403V26.8197H9.8561V27.403C9.8561 27.7254 10.117 27.9863 10.4394 27.9863C10.7619 27.9863 11.0228 27.7254 11.0228 27.403V26.8197H14.5233V27.403C14.5233 27.7254 14.7842 27.9863 15.1067 27.9863C15.4291 27.9863 15.69 27.7254 15.69 27.403V26.8197H19.1906V27.403C19.1906 27.7254 19.4515 27.9863 19.7739 27.9863C20.0963 27.9863 20.3572 27.7254 20.3572 27.403V26.8197H23.8572V27.403C23.8572 27.7254 24.1181 27.9863 24.4406 27.9863C24.763 27.9863 25.0239 27.7254 25.0239 27.403V26.8197H28.5239V27.403C28.5239 27.7254 28.7848 27.9863 29.1072 27.9863C29.4297 27.9863 29.6906 27.7254 29.6906 27.403V26.8197H31.3563C31.6787 26.8197 31.9396 26.5588 31.9396 26.2363C31.9396 25.9139 31.6787 25.653 31.3563 25.653Z" fill="white"/>
<rect x="8" y="17" width="4" height="7" rx="1" fill="white"/>
<rect x="20" y="15" width="4" height="9" rx="1" fill="white"/>
<rect x="14" y="12" width="4" height="12" rx="1" fill="white"/>
<rect x="26" y="7" width="4" height="17" rx="1" fill="white"/>
</g>
<defs>
<filter id="filter0_d" x="0" y="0" width="36" height="36" filterUnits="userSpaceOnUse" color-interpolation-filters="sRGB">
<feFlood flood-opacity="0" result="BackgroundImageFix"/>
<feColorMatrix in="SourceAlpha" type="matrix" values="0 0 0 0 0 0 0 0 0 0 0 0 0 0 0 0 0 0 127 0"/>
<feOffset dy="4"/>
<feGaussianBlur stdDeviation="2"/>
<feColorMatrix type="matrix" values="0 0 0 0 0 0 0 0 0 0 0 0 0 0 0 0 0 0 0.25 0"/>
<feBlend mode="normal" in2="BackgroundImageFix" result="effect1_dropShadow"/>
<feBlend mode="normal" in="SourceGraphic" in2="effect1_dropShadow" result="shape"/>
</filter>
</defs>
</svg>
