<svg width="28" height="28" viewBox="0 0 28 28" fill="none" xmlns="http://www.w3.org/2000/svg">
<g clip-path="url(#clip0)">
<path d="M23.9063 14H0.58308C0.260788 14 0 14.2608 0 14.5831V27.4114C0 27.7337 0.260788 27.9945 0.58308 27.9945H4.18064H4.19089H20.1869H20.1971H23.9063C24.2286 27.9945 24.4894 27.7337 24.4894 27.4114V14.5831C24.4894 14.2608 24.2286 14 23.9063 14ZM23.3232 17.5035C22.0828 17.3284 21.0846 16.3895 20.8418 15.1656H23.3232V17.5035ZM3.53513 15.1656C3.29861 16.3469 2.3541 17.2563 1.16616 17.4862V15.1656H3.53513ZM1.16616 24.5705C2.33118 24.7821 3.26794 25.6741 3.52674 26.8283H1.16616V24.5705ZM20.8513 26.8283C20.9754 26.2682 21.2592 25.7564 21.681 25.349C22.1358 24.9101 22.7087 24.6451 23.3232 24.56V26.8283L20.8513 26.8283Z" fill="white"/>
<path d="M12.5326 16.739C12.9457 16.7535 13.3696 16.826 13.8043 16.9564C14.2391 17.0868 14.6268 17.2897 14.9674 17.5651C14.6123 17.9709 14.2609 18.3658 13.913 18.7499C13.7319 18.5687 13.5145 18.4274 13.2609 18.326C13.0072 18.2245 12.7645 18.1702 12.5326 18.1629V19.9021C12.8152 19.989 13.1014 20.0868 13.3913 20.1955C13.6812 20.3042 13.9457 20.4492 14.1848 20.6303C14.4239 20.8115 14.6196 21.0325 14.7717 21.2934C14.9239 21.5542 15 21.8803 15 22.2716C15 22.6702 14.9275 23.018 14.7826 23.3151C14.6449 23.605 14.4565 23.8477 14.2174 24.0434C13.9855 24.239 13.7174 24.3876 13.413 24.489C13.1159 24.5905 12.808 24.6448 12.4891 24.6521V25.4455H11.6848V24.6521C11.2138 24.6376 10.7391 24.5506 10.2609 24.3912C9.78261 24.2245 9.36232 23.9781 9 23.6521C9.18841 23.4564 9.37681 23.2607 9.56522 23.0651C9.76087 22.8622 9.9529 22.6593 10.1413 22.4564C10.2355 22.5651 10.3478 22.6665 10.4783 22.7607C10.6087 22.8477 10.7428 22.9238 10.8804 22.989C11.0181 23.0542 11.1558 23.1086 11.2935 23.1521C11.4312 23.1883 11.5616 23.2064 11.6848 23.2064V21.3042C11.3732 21.2173 11.0725 21.1194 10.7826 21.0107C10.5 20.9021 10.25 20.7607 10.0326 20.5868C9.81522 20.4129 9.6413 20.2028 9.51087 19.9564C9.38043 19.7028 9.31522 19.3948 9.31522 19.0325C9.31522 18.6774 9.38768 18.3622 9.53261 18.0868C9.67754 17.8042 9.86594 17.5687 10.0978 17.3803C10.3297 17.1847 10.5906 17.0361 10.8804 16.9347C11.1703 16.826 11.4565 16.7644 11.7391 16.7499V15.9999H12.5326V16.739ZM11.7391 18.1412C11.5435 18.1629 11.3659 18.239 11.2065 18.3694C11.0543 18.4926 10.9783 18.6738 10.9783 18.9129C10.9783 19.1448 11.0471 19.3223 11.1848 19.4455C11.3225 19.5687 11.5072 19.6593 11.7391 19.7173V18.1412ZM12.4891 23.2173C12.7355 23.2028 12.9275 23.1231 13.0652 22.9781C13.2101 22.826 13.2826 22.6231 13.2826 22.3694C13.2826 22.1158 13.2065 21.9274 13.0543 21.8042C12.9094 21.6738 12.721 21.5723 12.4891 21.4999V23.2173Z" fill="#323232"/>
<path d="M27.4048 11.673H25.0725C24.7502 11.673 24.4894 11.9338 24.4894 12.2561C24.4894 12.5783 24.7502 12.8391 25.0725 12.8391H26.8217V24.5007H25.7045C25.3822 24.5007 25.1214 24.7615 25.1214 25.0838C25.1214 25.4061 25.3822 25.6669 25.7045 25.6669H27.4048C27.7271 25.6669 27.9879 25.4061 27.9879 25.0838V12.2561C27.9879 11.9338 27.7271 11.673 27.4048 11.673Z" fill="white"/>
<path d="M5.24772 11.673C4.92543 11.673 4.66464 11.9338 4.66464 12.2561V12.8579C4.66464 13.1802 4.92543 13.441 5.24772 13.441C5.57001 13.441 5.8308 13.1802 5.8308 12.8579L15.0775 12.8391C15.3992 12.8391 15.6612 12.5783 15.6612 12.2561C15.6612 11.9338 15.3992 11.673 15.0775 11.673H5.24772Z" fill="white"/>
<path d="M2.91542 13.441H2.91599C3.23828 13.4404 3.49907 13.179 3.4985 12.8573L3.49565 10.4766H8.65739C8.97968 10.4766 9.24047 10.2158 9.24047 9.8935C9.24047 9.57121 8.97968 9.31042 8.65739 9.31042H2.912C2.75712 9.31042 2.60907 9.37192 2.49918 9.48124C2.38985 9.59114 2.32892 9.73919 2.32892 9.89407L2.33234 12.8584C2.33291 13.1802 2.5937 13.441 2.91542 13.441Z" fill="white"/>
</g>
<path d="M13.2247 10.4925C13.9412 10.4925 14.6634 10.3442 15.3453 10.0396C15.4999 10.4389 15.6865 10.8274 15.9402 11.1861C16.7476 12.3272 17.9514 13.0851 19.3294 13.3208C19.6277 13.3721 19.9261 13.3971 20.2234 13.3971C21.2961 13.3971 22.3404 13.0669 23.2344 12.4348C24.3744 11.6274 25.1328 10.4242 25.3686 9.04679C25.6043 7.66938 25.29 6.28228 24.4826 5.14118C23.6751 4.00008 22.4714 3.24218 21.0934 3.00644C20.0628 2.82886 19.0238 2.96181 18.0875 3.37976C17.9683 3.07121 17.8291 2.7712 17.653 2.48941C16.1236 0.0437755 12.8899 -0.703862 10.4437 0.825009C9.25872 1.56526 8.43308 2.72288 8.11819 4.08435C7.80386 5.44639 8.03847 6.84886 8.77927 8.03438C9.77005 9.62076 11.4789 10.4925 13.2247 10.4925Z" fill="white"/>
<g clip-path="url(#clip1)">
<path d="M15.6271 6.2543C15.55 6.04887 15.4268 5.87719 15.2569 5.74187C15.1404 5.64623 14.9648 5.54556 14.7309 5.4427C14.9715 5.40346 15.1711 5.33783 15.3291 5.2423C15.4887 5.14606 15.6168 5.02696 15.7153 4.88561C15.8157 4.74382 15.8817 4.58749 15.9105 4.41518C15.95 4.17951 15.9164 3.95038 15.8101 3.72859C15.7028 3.50664 15.5298 3.32198 15.2882 3.17366C15.1954 3.11591 15.0814 3.06486 14.9539 3.01763L15.1078 2.0989L14.2271 1.95137L14.0835 2.80839L13.5163 2.71338L13.6598 1.85635L12.7786 1.70874L12.635 2.56576L11.2898 2.34043L11.1693 3.06003L11.3724 3.09406C11.5096 3.11704 11.6017 3.14564 11.6452 3.17879C11.689 3.21151 11.7187 3.25089 11.7317 3.29723C11.7451 3.34266 11.738 3.44298 11.7122 3.59749L11.2257 6.50179C11.2001 6.6544 11.1745 6.74869 11.1469 6.78847C11.1193 6.82924 11.079 6.85614 11.0262 6.87367C10.9746 6.88894 10.8785 6.88454 10.7413 6.86157L10.5382 6.82753L10.4177 7.54643L11.763 7.77177L11.6193 8.62927L12.5006 8.77688L12.6442 7.91938L13.1457 8.00339C13.1678 8.00708 13.1896 8.01074 13.211 8.01432L13.0673 8.87182L13.9481 9.01935L14.1039 8.08899C14.258 8.08575 14.3945 8.07055 14.5128 8.0445C14.8372 7.97391 15.1022 7.8363 15.3078 7.63161C15.5151 7.42673 15.6405 7.18543 15.6867 6.90917C15.725 6.67915 15.7055 6.46091 15.6271 6.2543ZM13.0534 3.49838L13.624 3.59395C13.9572 3.64977 14.1865 3.70965 14.3088 3.77357C14.4304 3.83542 14.5186 3.92118 14.57 4.02911C14.6227 4.1387 14.6369 4.26211 14.6141 4.39834C14.5921 4.52959 14.5361 4.63928 14.4482 4.7285C14.3579 4.8178 14.2378 4.87479 14.087 4.89955C13.9352 4.92609 13.7104 4.91455 13.4119 4.86454L12.8413 4.76897L13.0534 3.49838ZM14.1263 6.9884C14.0022 7.09963 13.8665 7.16546 13.7129 7.1812C13.562 7.19789 13.3752 7.18809 13.1538 7.151L12.7736 7.08731C12.6473 7.06616 12.5709 7.0458 12.544 7.02738C12.5169 7.01039 12.5016 6.98221 12.4943 6.9456C12.4902 6.91589 12.4984 6.82186 12.5239 6.66071L12.7128 5.53335L13.3863 5.64618C13.684 5.69603 13.8968 5.75974 14.0323 5.83929C14.1668 5.91793 14.2627 6.01696 14.3146 6.13667C14.3697 6.25497 14.385 6.39052 14.3589 6.54621C14.3286 6.72876 14.2512 6.87488 14.1263 6.9884Z" fill="#323232"/>
</g>
<path d="M22.6085 9.19179C22.5514 8.97993 22.4452 8.79724 22.289 8.64629C22.1823 8.53995 22.017 8.42293 21.7941 8.29818C22.0373 8.28213 22.2423 8.2359 22.4087 8.15593C22.5768 8.0754 22.7156 7.9691 22.8273 7.83783C22.9408 7.7063 23.0214 7.55699 23.0666 7.38824C23.1285 7.15742 23.1169 6.92613 23.0323 6.69518C22.9468 6.46399 22.7922 6.26362 22.5659 6.09286C22.479 6.02649 22.3705 5.96478 22.2481 5.90557L22.4892 5.00578L21.6266 4.77464L21.4017 5.614L20.8462 5.46514L21.0711 4.62578L20.208 4.39453L19.9831 5.23388L18.6656 4.88086L18.4768 5.58563L18.6757 5.63895C18.8101 5.67495 18.899 5.71223 18.9391 5.74939C18.9796 5.78614 19.0054 5.8282 19.0139 5.87556C19.0229 5.92206 19.0063 6.02125 18.9657 6.17257L18.2036 9.017C18.1635 9.16646 18.1291 9.25788 18.0977 9.29482C18.0664 9.33276 18.0236 9.35569 17.9695 9.36809C17.9167 9.37835 17.8214 9.36478 17.687 9.32878L17.4881 9.27546L17.2994 9.97954L18.6169 10.3326L18.3919 11.1724L19.2549 11.4036L19.48 10.5638L19.9711 10.6954C19.9927 10.7012 20.0141 10.7069 20.0351 10.7126L19.81 11.5524L20.6726 11.7835L20.9168 10.8723C21.0704 10.8838 21.2077 10.8818 21.328 10.8672C21.6576 10.8279 21.9347 10.7163 22.1589 10.5322C22.3849 10.3481 22.5327 10.1199 22.6052 9.84937C22.6653 9.62407 22.6667 9.40496 22.6085 9.19179ZM20.3103 6.20225L20.8691 6.35198C21.1955 6.43943 21.418 6.52098 21.5336 6.5963C21.6488 6.66951 21.7283 6.76331 21.7692 6.87567C21.8111 6.98979 21.8135 7.11399 21.7777 7.24742C21.7433 7.37596 21.6771 7.4798 21.581 7.5602C21.4826 7.64044 21.3576 7.68568 21.2051 7.6959C21.0514 7.70779 20.8288 7.6748 20.5364 7.59645L19.9776 7.44672L20.3103 6.20225ZM21.0443 9.77892C20.9102 9.87777 20.7688 9.93032 20.6144 9.93128C20.4626 9.93346 20.2776 9.90583 20.0608 9.84772L19.6884 9.74794C19.5647 9.71481 19.4906 9.68723 19.4656 9.66632C19.4402 9.64681 19.4277 9.61729 19.4239 9.58016C19.4227 9.5502 19.4399 9.45738 19.4807 9.29941L19.7765 8.1953L20.4362 8.37206C20.7277 8.45016 20.9335 8.53394 21.0607 8.6261C21.187 8.71724 21.273 8.82498 21.3133 8.94912C21.3568 9.07214 21.3591 9.20854 21.3182 9.36103C21.2706 9.53984 21.1795 9.67788 21.0443 9.77892Z" fill="#323232"/>
<defs>
<clipPath id="clip0">
<rect width="27.9947" height="28" fill="white"/>
</clipPath>
<clipPath id="clip1">
<rect width="7.01719" height="7.01719" fill="white" transform="translate(11.0034 1) rotate(16.5892)"/>
</clipPath>
</defs>
</svg>
