<svg width="22" height="22" viewBox="0 0 22 22" fill="none" xmlns="http://www.w3.org/2000/svg">
<path d="M11.0001 0.0458984C4.92496 0.0458984 0 4.97086 0 11.046C0 16.4946 3.96574 21.007 9.16547 21.8808V13.3409H6.51194V10.2677H9.16547V8.00165C9.16547 5.37239 10.7713 3.9396 13.1172 3.9396C14.2407 3.9396 15.2062 4.02332 15.4865 4.06019V6.80847L13.8595 6.80926C12.584 6.80926 12.3381 7.41523 12.3381 8.30477V10.2661H15.3815L14.9846 13.3393H12.3381V21.9543C17.7806 21.2919 22 16.6646 22 11.0428C22 4.97086 17.075 0.0458984 11.0001 0.0458984Z" fill="white"/>
</svg>
