<svg width="24" height="24" viewBox="0 0 24 24" fill="none" xmlns="http://www.w3.org/2000/svg">
<path d="M12.0001 6.27832C8.89521 6.27832 6.32263 8.80655 6.32263 11.9557C6.32263 15.1049 8.85086 17.6332 12.0001 17.6332C15.1492 17.6332 17.6775 15.0606 17.6775 11.9557C17.6775 8.8509 15.1049 6.27832 12.0001 6.27832ZM12.0001 15.5928C10.0041 15.5928 8.36295 13.9517 8.36295 11.9557C8.36295 9.95977 10.0041 8.31864 12.0001 8.31864C13.996 8.31864 15.6371 9.95977 15.6371 11.9557C15.6371 13.9517 13.996 15.5928 12.0001 15.5928Z" fill="white"/>
<path d="M17.8991 7.43098C18.6095 7.43098 19.1854 6.85509 19.1854 6.14469C19.1854 5.43429 18.6095 4.8584 17.8991 4.8584C17.1887 4.8584 16.6128 5.43429 16.6128 6.14469C16.6128 6.85509 17.1887 7.43098 17.8991 7.43098Z" fill="white"/>
<path d="M21.2258 2.81855C20.0726 1.62097 18.4314 1 16.5685 1H7.43145C3.57258 1 1 3.57258 1 7.43145V16.5242C1 18.4315 1.62097 20.0726 2.8629 21.2702C4.06048 22.4234 5.65726 23 7.47581 23H16.5242C18.4314 23 20.0282 22.379 21.1814 21.2702C22.379 20.1169 23 18.4758 23 16.5685V7.43145C23 5.56855 22.379 3.97177 21.2258 2.81855ZM21.0484 16.5685C21.0484 17.9435 20.5605 19.0524 19.7621 19.8065C18.9637 20.5605 17.8548 20.9597 16.5242 20.9597H7.47581C6.14516 20.9597 5.03629 20.5605 4.2379 19.8065C3.43952 19.0081 3.04032 17.8992 3.04032 16.5242V7.43145C3.04032 6.10081 3.43952 4.99194 4.2379 4.19355C4.99194 3.43952 6.14516 3.04032 7.47581 3.04032H16.6129C17.9435 3.04032 19.0524 3.43952 19.8508 4.2379C20.6048 5.03629 21.0484 6.14516 21.0484 7.43145V16.5685Z" fill="white"/>
</svg>
