<svg width="24" height="17" viewBox="0 0 24 17" fill="none" xmlns="http://www.w3.org/2000/svg">
<path d="M19.575 0.140919C17.0016 0.047169 14.3391 -0.00439351 11.6016 0.000293994C8.94375 0.000293994 6.36094 0.0518565 3.85781 0.140919C1.70625 0.220606 0 1.98779 0 4.14404V12.4972C0 14.6534 1.70625 16.4206 3.8625 16.5003C6.42656 16.594 9.07031 16.6456 11.7938 16.6409C14.4656 16.6409 17.0625 16.5894 19.5797 16.5003C21.7359 16.4206 23.4375 14.6534 23.4375 12.4972V4.14404C23.4375 1.98779 21.7313 0.220606 19.575 0.140919Z" fill="white"/>
<path d="M9.36096 4.80469V11.8922L15.4594 8.34844L9.36096 4.80469Z" fill="#171717"/>
</svg>
