<svg width="23" height="19" viewBox="0 0 23 19" fill="none" xmlns="http://www.w3.org/2000/svg">
<path d="M22.0002 1.3086C22.0003 1.13197 21.9536 0.958463 21.8649 0.805749C21.7761 0.653035 21.6485 0.526571 21.4949 0.439236C21.3414 0.3519 21.1675 0.306814 20.9909 0.308569C20.8142 0.310323 20.6412 0.358856 20.4895 0.449224C19.9042 0.79761 19.274 1.06441 18.6165 1.24222C17.6774 0.436457 16.4798 -0.00447226 15.2425 3.42044e-05C13.885 0.00159684 12.5813 0.530627 11.6067 1.47542C10.632 2.4202 10.0626 3.70679 10.0188 5.06351C7.34281 4.63678 4.91746 3.24004 3.20528 1.13965C3.10212 1.01449 2.97037 0.915968 2.82114 0.8524C2.67192 0.788832 2.50959 0.762082 2.34786 0.774404C2.18622 0.787714 2.03026 0.840197 1.89345 0.927315C1.75665 1.01443 1.64313 1.13356 1.5627 1.2744C1.15023 1.99422 0.913333 2.80116 0.871252 3.62971C0.82917 4.45826 0.98309 5.28506 1.32051 6.04295L1.31856 6.0449C1.16691 6.13831 1.04175 6.26906 0.955067 6.42465C0.868381 6.58024 0.823061 6.75547 0.823442 6.93358C0.821606 7.08051 0.830419 7.22738 0.849812 7.37303C0.951949 8.6313 1.50959 9.80909 2.41817 10.6855C2.35654 10.803 2.31892 10.9315 2.30751 11.0636C2.29611 11.1957 2.31115 11.3288 2.35176 11.4551C2.74788 12.6892 3.59026 13.7311 4.71407 14.3769C3.57231 14.8184 2.33949 14.9724 1.12422 14.8252C0.899294 14.797 0.671452 14.846 0.47807 14.9643C0.284688 15.0826 0.137249 15.2631 0.0599373 15.4762C-0.0173743 15.6893 -0.0199674 15.9223 0.0525831 16.1371C0.125134 16.3519 0.26852 16.5356 0.459222 16.6582C2.54932 18.0044 4.9829 18.7201 7.46899 18.7197C10.2883 18.7514 13.039 17.8505 15.2932 16.1572C17.5475 14.4638 19.1789 12.0729 19.9338 9.3564C20.2869 8.17304 20.4671 6.94488 20.469 5.70996C20.469 5.64453 20.469 5.57715 20.468 5.50977C20.9901 4.9467 21.3946 4.28508 21.6577 3.56367C21.9208 2.84227 22.0372 2.0756 22.0002 1.3086Z" fill="white"/>
</svg>
