<svg width="17" height="21" viewBox="0 0 17 21" fill="none" xmlns="http://www.w3.org/2000/svg">
<path d="M16.9307 19.5991C16.9 18.4949 16.6239 14.3542 14.6303 13.0354C13.0047 11.9312 9.50816 11.8392 8.46533 11.8392C7.4225 11.8392 3.92595 11.9312 2.30036 13.0354C0.245372 14.4462 0.0306715 18.8629 0 19.7524C0 20.0285 0.0920149 20.2738 0.276044 20.4885C0.460073 20.6726 0.736116 20.7952 0.981488 20.7952H15.9185C16.4706 20.7952 16.9307 20.3352 16.9307 19.7831C16.9307 19.6911 16.9307 19.6297 16.9307 19.5991Z" fill="#828282"/>
<path d="M8.46589 10.2443C11.2948 10.2443 13.588 7.95102 13.588 5.12214C13.588 2.29326 11.2948 0 8.46589 0C5.63701 0 3.34375 2.29326 3.34375 5.12214C3.34375 7.95102 5.63701 10.2443 8.46589 10.2443Z" fill="#828282"/>
</svg>
