<svg width="24" height="19" viewBox="0 0 24 19" fill="none" xmlns="http://www.w3.org/2000/svg">
<path d="M11.0284 10.6751C11.1546 10.5741 11.306 10.4984 11.4574 10.4227C9.99369 9.81701 7.7224 9.76654 6.9653 9.76654C6.10726 9.76654 3.23028 9.84225 1.89274 10.7508C0.201893 11.9117 0.0252366 15.5457 0 16.2776C0 16.5047 0.0757097 16.7066 0.227129 16.8833C0.378549 17.0347 0.580442 17.1356 0.807571 17.1356H8.40378C8.52997 15.3438 8.98423 12.0631 11.0284 10.6751Z" fill="#424242"/>
<path d="M6.99088 8.42902C9.31849 8.42902 11.2054 6.54212 11.2054 4.21451C11.2054 1.8869 9.31849 0 6.99088 0C4.66327 0 2.77637 1.8869 2.77637 4.21451C2.77637 6.54212 4.66327 8.42902 6.99088 8.42902Z" fill="#424242"/>
<path d="M23.9999 17.4385C23.9747 16.53 23.7476 13.123 22.1072 12.0379C20.7697 11.1294 17.8927 11.0536 17.0346 11.0536C16.1766 11.0536 13.2996 11.1294 11.9621 12.0379C10.2712 13.1988 10.0946 16.8328 10.0693 17.5647C10.0693 17.7918 10.145 17.9937 10.2965 18.1704C10.4479 18.3218 10.675 18.4227 10.8769 18.4227H23.1671C23.6214 18.4227 23.9999 18.0442 23.9999 17.5899C23.9999 17.5142 23.9999 17.4637 23.9999 17.4385Z" fill="#424242"/>
<path d="M17.0348 9.74134C19.3624 9.74134 21.2493 7.85444 21.2493 5.52683C21.2493 3.19922 19.3624 1.31232 17.0348 1.31232C14.7072 1.31232 12.8203 3.19922 12.8203 5.52683C12.8203 7.85444 14.7072 9.74134 17.0348 9.74134Z" fill="#424242"/>
</svg>
