<svg width="24" height="24" viewBox="0 0 24 24" fill="none" xmlns="http://www.w3.org/2000/svg">
<path d="M20.9307 21.5991C20.9 20.4949 20.6239 16.3542 18.6303 15.0354C17.0047 13.9312 13.5082 13.8392 12.4653 13.8392C11.4225 13.8392 7.92595 13.9312 6.30036 15.0354C4.24537 16.4462 4.03067 20.8629 4 21.7524C4 22.0285 4.09201 22.2738 4.27604 22.4885C4.46007 22.6726 4.73612 22.7952 4.98149 22.7952H19.9185C20.4706 22.7952 20.9307 22.3352 20.9307 21.7831C20.9307 21.6911 20.9307 21.6297 20.9307 21.5991Z" fill="#424242"/>
<path d="M12.4659 12.2443C15.2948 12.2443 17.588 9.95102 17.588 7.12214C17.588 4.29326 15.2948 2 12.4659 2C9.63701 2 7.34375 4.29326 7.34375 7.12214C7.34375 9.95102 9.63701 12.2443 12.4659 12.2443Z" fill="#424242"/>
</svg>
