<svg width="25" height="24" viewBox="0 0 25 24" fill="none" xmlns="http://www.w3.org/2000/svg">
<g clip-path="url(#clip0)">
<path d="M22.8774 21.2666C23.5245 20.5309 24.0923 19.729 24.5713 18.8744L21.7046 17.4471C21.2926 18.1408 20.7869 18.7744 20.2018 19.33C19.4024 20.0719 18.5522 20.5043 17.6867 20.6148C16.0154 20.8284 14.8476 20.3117 13.1442 19.2188C11.3544 18.0706 9.32625 16.7692 6.44786 17.1369C4.70382 17.3607 3.10076 18.2748 1.69244 19.8539C1.04584 20.5897 0.478562 21.3915 0 22.2462L2.86604 23.6734C3.27773 22.9798 3.78237 22.3458 4.36591 21.7891C5.15654 21.0573 6.0024 20.6264 6.88169 20.5167C7.12267 20.4854 7.36538 20.4694 7.60837 20.4687C8.92657 20.4687 9.98535 20.9774 11.4249 21.901C13.0963 22.9743 15.179 24.3099 18.1227 23.9357C19.9017 23.7061 21.5018 22.8086 22.8774 21.2666ZM22.8774 12.7295C23.5245 11.9938 24.0923 11.192 24.5713 10.3373L21.7046 8.91008C21.2924 9.60392 20.7868 10.2377 20.2018 10.7936C19.4024 11.5356 18.5522 11.968 17.6867 12.0784C16.0154 12.2913 14.8476 11.7754 13.1442 10.6825C11.3544 9.5343 9.32625 8.23281 6.44786 8.60051C4.70382 8.82433 3.10076 9.73777 1.69244 11.3176C1.04572 12.053 0.478427 12.8546 0 13.7091L2.86604 15.1363C3.2779 14.4426 3.78252 13.8085 4.36591 13.2513C5.15945 12.5202 6.0024 12.0922 6.88169 11.9796C7.12267 11.9483 7.36538 11.9323 7.60837 11.9316C8.92657 11.9316 9.98535 12.4403 11.4249 13.3639C13.0963 14.4372 15.179 15.7729 18.1227 15.3986C19.9017 15.169 21.5018 14.2715 22.8774 12.7295ZM22.8774 4.19245C23.5245 3.45672 24.0923 2.65489 24.5713 1.80021L21.7046 0.373003C21.2924 1.06684 20.7868 1.70065 20.2018 2.25657C19.4024 2.99851 18.5522 3.43089 17.6867 3.54134C16.0154 3.75426 14.8476 3.23831 13.1442 2.14538C11.3566 0.997223 9.32843 -0.304266 6.45004 0.0634358C4.70309 0.290888 3.10294 1.20069 1.69462 2.7805C1.04714 3.5158 0.479114 4.31741 0 5.17202L2.86604 6.59922C3.2779 5.90557 3.78252 5.27138 4.36591 4.71421C5.15945 3.98316 6.0024 3.55515 6.88169 3.44251C7.12267 3.41126 7.36538 3.39524 7.60837 3.39455C8.92657 3.39455 9.98535 3.90323 11.4249 4.82684C13.0963 5.90015 15.1775 7.23507 18.1227 6.86156C19.9017 6.63192 21.5018 5.73447 22.8774 4.19245Z" fill="#424242"/>
</g>
<defs>
<clipPath id="clip0">
<rect width="24.5713" height="24" fill="white"/>
</clipPath>
</defs>
</svg>
