<svg width="25" height="23" viewBox="0 0 25 23" fill="none" xmlns="http://www.w3.org/2000/svg">
<path d="M12.0205 20.0773V9.11176L13.9387 9.11176V20.0773H12.0205Z" fill="#424242"/>
<path fill-rule="evenodd" clip-rule="evenodd" d="M12.021 9.04782L13.9391 9.04782C13.9561 9.04782 13.9723 9.05456 13.9843 9.06655C13.9963 9.07854 14.0031 9.0948 14.0031 9.11176V20.0773C14.0031 20.1126 13.9744 20.1413 13.9391 20.1413H12.021C11.9857 20.1413 11.957 20.1126 11.957 20.0773V9.11176C11.957 9.07645 11.9857 9.04782 12.021 9.04782ZM12.0849 9.1757V20.0134H13.8752V9.1757L12.0849 9.1757Z" fill="#424242"/>
<path d="M16.5282 17.8075C16.5537 16.6822 15.0363 15.8681 14.2903 15.6656V13.7155C17.3338 14.3293 18.3078 16.2517 18.3824 17.1362C18.5549 19.1822 17.8197 22.328 13.0115 22.3791C8.20336 22.4303 6.91606 18.9904 6.96935 17.328L8.91947 17.1362C9.12408 19.8472 11.477 20.4929 13.0115 20.4929C15.697 20.4929 16.4976 19.1502 16.5282 17.8075Z" fill="#424242"/>
<path fill-rule="evenodd" clip-rule="evenodd" d="M14.2503 13.666C14.2651 13.6539 14.2846 13.649 14.3034 13.6528C17.3715 14.2716 18.3693 16.2148 18.4466 17.1308C18.5335 18.1622 18.3926 19.4777 17.6169 20.5434C16.8389 21.6122 15.4316 22.4174 13.0127 22.4431C10.5916 22.4689 9.04909 21.6149 8.11946 20.538C7.19201 19.4635 6.87878 18.172 6.9059 17.326C6.90693 17.2939 6.9316 17.2675 6.96355 17.2644L8.91367 17.0726C8.9308 17.0709 8.94788 17.0762 8.96106 17.0872C8.97424 17.0983 8.9824 17.1142 8.98369 17.1314C9.08439 18.4657 9.71196 19.2869 10.501 19.7769C11.2932 20.2689 12.2521 20.429 13.012 20.429C14.3446 20.429 15.1983 20.0959 15.7223 19.607C16.246 19.1184 16.4497 18.4655 16.4647 17.8061C16.4768 17.2738 16.1234 16.806 15.6595 16.4408C15.1972 16.0769 14.6392 15.8264 14.274 15.7273C14.2462 15.7198 14.2268 15.6945 14.2268 15.6656V13.7155C14.2268 13.6963 14.2354 13.6782 14.2503 13.666ZM14.3547 13.794V15.6172C14.7346 15.7283 15.2813 15.9803 15.7386 16.3403C16.2134 16.7141 16.606 17.216 16.5925 17.809C16.577 18.4923 16.3652 19.1821 15.8095 19.7005C15.2542 20.2187 14.3648 20.5569 13.012 20.5569C12.2374 20.5569 11.2526 20.3942 10.4335 19.8855C9.62434 19.383 8.9808 18.5448 8.86154 17.2062L7.03245 17.3861C7.02159 18.2033 7.33178 19.4298 8.21626 20.4544C9.119 21.5002 10.6242 22.3406 13.0113 22.3152C15.4006 22.2898 16.765 21.4965 17.5135 20.4681C18.2643 19.4366 18.4047 18.1562 18.3191 17.1416C18.2478 16.2959 17.3131 14.4193 14.3547 13.794Z" fill="#424242"/>
<path d="M11.6504 15.131C7.57308 14.0003 7.32491 11.4342 7.96007 9.71933C8.66201 9.98069 8.9879 10.1938 9.39868 10.7417C9.33521 11.662 9.56076 12.5816 11.6849 13.1892C11.7125 13.1971 11.7324 13.2225 11.7324 13.2512L11.7324 15.07C11.7324 15.1121 11.6909 15.1423 11.6504 15.131Z" fill="#424242"/>
<path d="M5.69023 15.9853C7.88972 16.2154 9.54786 15.3026 10.07 14.8977C9.33011 14.5083 8.95535 14.2529 8.37565 13.7148C4.95494 14.8657 2.55724 12.8842 2.39739 10.7103L0.447266 10.9341C0.607112 14.2589 2.94087 15.6975 5.69023 15.9853Z" fill="#424242"/>
<path fill-rule="evenodd" clip-rule="evenodd" d="M2.43863 10.6611C2.45204 10.6722 2.46035 10.6883 2.46162 10.7057C2.61791 12.8312 4.96794 14.794 8.35573 13.6542C8.37793 13.6468 8.40244 13.652 8.41961 13.668C8.99465 14.2017 9.36464 14.454 10.1003 14.8411C10.1195 14.8512 10.1323 14.8704 10.1342 14.8921C10.1361 14.9138 10.1269 14.9349 10.1097 14.9482C9.57771 15.3608 7.90357 16.2812 5.68404 16.0489C4.3011 15.9042 3.01652 15.4694 2.05655 14.6472C1.0949 13.8235 0.464554 12.6156 0.383864 10.9372C0.382247 10.9036 0.406989 10.8745 0.440439 10.8706L2.39057 10.6468C2.40786 10.6449 2.42522 10.65 2.43863 10.6611ZM0.514713 10.9908C0.605761 12.606 1.21853 13.761 2.13974 14.5501C3.07394 15.3503 4.33093 15.7787 5.69735 15.9217C7.77368 16.139 9.36235 15.3276 9.95106 14.9068C9.2765 14.5471 8.90552 14.2905 8.36045 13.7875C4.96018 14.9121 2.54559 12.9692 2.33965 10.7814L0.514713 10.9908Z" fill="#424242"/>
<path d="M6.71397 7.09777C11.9569 8.17194 11.9889 10.6137 11.6692 12.8516C10.8436 12.6181 10.483 12.4564 10.0388 11.9884C10.1027 9.87845 7.82224 9.25037 6.71397 9.0479C2.03367 8.35736 0.970156 5.88294 1.05541 4.73204C0.991469 3.38933 1.97612 0.397006 6.1705 0.448157C10.3649 0.499308 11.5413 3.21883 11.5413 4.60416L9.68712 4.70007C9.43137 2.43025 7.38533 2.38829 6.52216 2.33434C4.28431 2.19448 3.00554 3.0057 2.97357 4.70007C2.94582 6.17066 5.44586 6.8953 6.71397 7.09777Z" fill="#424242"/>
<path fill-rule="evenodd" clip-rule="evenodd" d="M1.9666 2.02636C2.74273 1.10054 4.0566 0.358475 6.17079 0.384258C8.28273 0.410013 9.64273 1.10818 10.4746 1.98178C11.3049 2.85367 11.6048 3.89589 11.6048 4.6042C11.6048 4.63823 11.5781 4.66629 11.5442 4.66805L9.68994 4.76396C9.65617 4.76571 9.62688 4.74086 9.6231 4.70727C9.49789 3.59601 8.93755 3.03654 8.30512 2.74433C7.7095 2.46913 7.0478 2.4298 6.60875 2.4037C6.57721 2.40182 6.54682 2.40001 6.51768 2.39819C5.40548 2.32868 4.54237 2.49647 3.95532 2.88281C3.372 3.26671 3.05266 3.87205 3.03701 4.70131C3.0239 5.39586 3.60843 5.9283 4.38595 6.31732C5.15812 6.70367 6.09323 6.93402 6.72357 7.03466C6.72405 7.03474 6.72454 7.03483 6.72502 7.03491C6.72546 7.03499 6.72589 7.03508 6.72632 7.03517C9.35515 7.57375 10.6948 8.45848 11.3317 9.5051C11.9679 10.5505 11.892 11.741 11.732 12.8607C11.7294 12.8789 11.7191 12.8952 11.7036 12.9052C11.6881 12.9153 11.6691 12.9182 11.6513 12.9132C11.238 12.7962 10.9362 12.6961 10.6812 12.5648C10.4248 12.4328 10.218 12.2706 9.99192 12.0325C9.98018 12.0201 9.97387 12.0036 9.97439 11.9865C10.0055 10.9603 9.46869 10.2946 8.78113 9.85682C8.09152 9.41777 7.25481 9.21189 6.70306 9.11102C2.00839 8.41801 0.904975 5.92848 0.990874 4.73125C0.959283 4.04521 1.19426 2.94766 1.9666 2.02636ZM2.0646 2.10851C1.31346 3.00453 1.08751 4.0721 1.11879 4.72904C1.11891 4.73163 1.11888 4.73422 1.11869 4.7368C1.03676 5.84278 2.0629 8.29715 6.72282 8.98468C6.72354 8.98478 6.72426 8.9849 6.72498 8.98503C7.28151 9.08671 8.13855 9.29612 8.84981 9.74895C9.55765 10.1996 10.1256 10.895 10.1029 11.9635C10.3138 12.1828 10.5052 12.3304 10.7397 12.4511C10.9685 12.5689 11.2403 12.6621 11.6157 12.77C11.7678 11.6748 11.8199 10.5534 11.2225 9.57158C10.6127 8.56946 9.31525 7.69633 6.70202 7.16072C6.06426 7.05878 5.11609 6.82563 4.32873 6.43168C3.54613 6.04011 2.89451 5.47494 2.90915 4.6989C2.92548 3.83379 3.26151 3.18634 3.88502 2.77599C4.50481 2.3681 5.40002 2.20021 6.52566 2.27056C6.55515 2.27241 6.58612 2.27424 6.61844 2.27615C7.05568 2.30198 7.74014 2.34242 8.35875 2.62825C9.01744 2.93259 9.59912 3.51378 9.74296 4.63317L11.4762 4.54352C11.4595 3.8678 11.1648 2.89202 10.382 2.06997C9.57709 1.22469 8.25166 0.537521 6.16923 0.512126C4.08904 0.486758 2.8134 1.21528 2.0646 2.10851Z" fill="#424242"/>
<path d="M12.0205 2.04605V4.66753H13.9387V3.70845H18.4783C19.4374 3.70845 21.3683 3.88748 21.4195 6.13812C21.4711 8.40794 19.5013 9.20717 18.4463 9.20717H14.2903V10.8376C18.3568 10.7353 18.1906 11.0934 19.5333 12.9796L22.2507 17.3274H24.5525L20.5563 10.8696C21.7392 10.39 23.3696 9.55917 23.3696 6.23403C23.3696 2.33377 20.0768 2.04605 18.3824 2.04605H12.0205Z" fill="#424242"/>
<path fill-rule="evenodd" clip-rule="evenodd" d="M11.957 2.04599C11.957 2.01068 11.9857 1.98206 12.021 1.98206H18.3829C19.2315 1.98206 20.4923 2.05358 21.5423 2.62114C22.0685 2.90559 22.5424 3.31493 22.8843 3.902C23.2262 4.48893 23.434 5.24977 23.434 6.23397C23.434 7.90733 23.0235 8.96178 22.4566 9.65918C21.9126 10.3284 21.2301 10.6616 20.6509 10.9001L24.6073 17.2937C24.6195 17.3134 24.6201 17.3382 24.6088 17.3584C24.5975 17.3787 24.5761 17.3913 24.5529 17.3913H22.2511C22.2291 17.3913 22.2086 17.3799 22.1969 17.3612L19.4805 13.015C19.3575 12.8421 19.2477 12.6829 19.1464 12.5362C18.9699 12.2803 18.8194 12.0622 18.6699 11.8745C18.4366 11.5817 18.2114 11.3709 17.9054 11.2202C17.5983 11.069 17.2048 10.9759 16.6314 10.9275C16.0578 10.8792 15.3087 10.8759 14.2924 10.9015C14.2752 10.9019 14.2585 10.8954 14.2462 10.8833C14.2338 10.8713 14.2269 10.8548 14.2269 10.8376V9.20712C14.2269 9.1718 14.2555 9.14318 14.2908 9.14318H18.4468C18.961 9.14318 19.7031 8.94754 20.3089 8.47342C20.9121 8.00141 21.3813 7.25283 21.356 6.13952C21.3434 5.58618 21.2155 5.16438 21.0191 4.84223C20.8227 4.52012 20.5557 4.29413 20.2596 4.13561C19.6653 3.81737 18.9563 3.77234 18.4788 3.77234H14.0031V4.66748C14.0031 4.70279 13.9744 4.73142 13.9391 4.73142H12.021C11.9857 4.73142 11.957 4.70279 11.957 4.66748V2.04599ZM12.0849 2.10993V4.60354H13.8752V3.7084C13.8752 3.67309 13.9038 3.64446 13.9391 3.64446H18.4788C18.9603 3.64446 19.6963 3.68894 20.32 4.02287C20.633 4.19044 20.9182 4.4312 21.1283 4.77566C21.3383 5.12006 21.4709 5.56463 21.4839 6.13661C21.5101 7.29312 21.0203 8.07906 20.3877 8.57413C19.7578 9.06708 18.9875 9.27106 18.4468 9.27106H14.3547V10.772C15.3387 10.7482 16.0737 10.7522 16.6421 10.8001C17.2231 10.8491 17.6345 10.9442 17.9619 11.1055C18.2906 11.2673 18.5297 11.4933 18.7699 11.7949C18.922 11.9857 19.0767 12.21 19.2555 12.469C19.3566 12.6156 19.4655 12.7733 19.5858 12.9424C19.5866 12.9435 19.5873 12.9445 19.588 12.9456L22.2866 17.2634H24.4382L20.5024 10.9032C20.4925 10.8871 20.4901 10.8676 20.496 10.8497C20.5018 10.8318 20.5153 10.8173 20.5328 10.8103C21.1221 10.5714 21.8126 10.2487 22.3574 9.57852C22.9014 8.90931 23.3061 7.88576 23.3061 6.23397C23.3061 5.26805 23.1023 4.53032 22.7738 3.96636C22.4454 3.40254 21.9902 3.00865 21.4815 2.73364C20.4614 2.18227 19.2286 2.10993 18.3829 2.10993H12.0849Z" fill="#424242"/>
<path d="M17.0078 8.82417C14.8659 6.33927 11.0615 7.11348 9.84668 7.75891C10.5074 8.11858 10.8312 8.37088 11.3173 8.92007C11.8181 8.78154 13.229 8.49169 14.4822 8.82417H17.0078Z" fill="#424242"/>
<path fill-rule="evenodd" clip-rule="evenodd" d="M9.98422 7.76142C10.5698 8.08838 10.8889 8.34308 11.3392 8.84795C11.873 8.70535 13.2541 8.43483 14.491 8.7602H16.8659C15.8185 7.61695 14.3979 7.21658 13.0783 7.18155C11.7943 7.14747 10.6146 7.45973 9.98422 7.76142ZM13.0817 7.05372C14.4637 7.0904 15.9702 7.5219 17.0567 8.78239C17.073 8.80133 17.0768 8.82805 17.0664 8.85078C17.056 8.87351 17.0333 8.88808 17.0083 8.88808H14.4827C14.4772 8.88808 14.4716 8.88736 14.4663 8.88594C13.2298 8.55789 11.8324 8.84404 11.3348 8.98167C11.3112 8.98818 11.286 8.98071 11.2699 8.96242C10.789 8.41913 10.4712 8.17138 9.81657 7.81504C9.7959 7.80379 9.78308 7.78209 9.7832 7.75856C9.78332 7.73502 9.79636 7.71346 9.81714 7.70242C10.4353 7.37402 11.7011 7.01708 13.0817 7.05372Z" fill="#424242"/>
<path d="M18.5428 6.77746H13.9525H12.008H7.48145V4.98718H18.5428V6.77746Z" fill="#424242"/>
<path fill-rule="evenodd" clip-rule="evenodd" d="M7.41699 4.98722C7.41699 4.95191 7.44562 4.92328 7.48093 4.92328H18.5423C18.5776 4.92328 18.6062 4.95191 18.6062 4.98722V6.7775C18.6062 6.81281 18.5776 6.84144 18.5423 6.84144H7.48093C7.44562 6.84144 7.41699 6.81281 7.41699 6.7775V4.98722ZM7.54487 5.05116V6.71356H18.4784V5.05116H7.54487Z" fill="#424242"/>
<path d="M16.2082 11.6694L17.8386 11.5089C17.1852 11.2401 16.8075 11.1621 16.1123 11.1579L16.2082 11.6694Z" fill="#424242"/>
<path fill-rule="evenodd" clip-rule="evenodd" d="M16.0637 11.1169C16.0759 11.1023 16.0941 11.0938 16.1132 11.094C16.8168 11.0982 17.2027 11.1779 17.8634 11.4498C17.8906 11.461 17.9066 11.4892 17.9024 11.5182C17.8981 11.5473 17.8746 11.5697 17.8454 11.5726L16.2149 11.733C16.1819 11.7363 16.1519 11.7138 16.1458 11.6812L16.0499 11.1697C16.0464 11.1509 16.0515 11.1316 16.0637 11.1169ZM16.19 11.2226L16.2607 11.6L17.5689 11.4713C17.0865 11.2915 16.7391 11.2308 16.19 11.2226Z" fill="#424242"/>
</svg>
